<svg width="233" height="52" viewBox="0 0 233 52" fill="none" xmlns="http://www.w3.org/2000/svg">
<path d="M21.9375 37.8838C21.5208 36.5921 21.1042 35.4463 20.6875 34.4463C20.3125 33.4463 19.9792 32.5921 19.6875 31.8838C18.0625 32.4255 16.2917 32.8005 14.375 33.0088C14.375 35.6755 14.4375 37.9463 14.5625 39.8213C14.6042 40.988 14.6458 41.988 14.6875 42.8213C14.7708 43.613 14.8333 44.3005 14.875 44.8838C14.9583 45.4671 15.0417 45.988 15.125 46.4463C15.2083 46.9463 15.3333 47.4255 15.5 47.8838C14.6667 48.5088 13.8542 48.9671 13.0625 49.2588C12.3125 49.5505 11.6458 49.7588 11.0625 49.8838C10.3542 50.0505 9.72917 50.0921 9.1875 50.0088C8.97917 49.4255 8.79167 48.8005 8.625 48.1338C8.45833 47.5088 8.33333 46.6338 8.25 45.5088C8.20833 44.4255 8.1875 43.0296 8.1875 41.3213C8.1875 39.613 8.25 37.4255 8.375 34.7588C8.41667 34.4671 8.4375 34.1755 8.4375 33.8838C8.4375 33.5921 8.45833 33.3005 8.5 33.0088C8.125 32.9671 7.72917 32.9255 7.3125 32.8838C6.9375 32.8421 6.5625 32.8005 6.1875 32.7588C5.9375 32.0921 5.77083 31.5088 5.6875 31.0088C5.60417 30.4671 5.5625 30.0296 5.5625 29.6963C5.5625 29.2796 5.60417 28.9463 5.6875 28.6963C6.35417 28.8213 7.02083 28.8838 7.6875 28.8838H8.625C8.70833 27.1338 8.79167 25.363 8.875 23.5713C8.95833 21.738 9.02083 19.9671 9.0625 18.2588C9.14583 16.5088 9.20833 14.863 9.25 13.3213C9.29167 11.738 9.33333 10.3005 9.375 9.00879C8.125 9.84212 7.04167 10.9255 6.125 12.2588C5.20833 13.5921 4.58333 15.1338 4.25 16.8838C3.70833 16.8005 3.25 16.5505 2.875 16.1338C2.5 15.6755 2.1875 15.2171 1.9375 14.7588C1.64583 14.2171 1.39583 13.613 1.1875 12.9463C0.979167 12.1546 0.979167 11.363 1.1875 10.5713C1.39583 9.73796 1.70833 8.96712 2.125 8.25879C2.54167 7.50879 3.02083 6.86296 3.5625 6.32129C4.10417 5.73796 4.625 5.27962 5.125 4.94629C6 4.40462 6.89583 3.92546 7.8125 3.50879C8.77083 3.05046 9.83333 2.67546 11 2.38379C11.4583 1.92546 11.9583 1.50879 12.5 1.13379C13.0833 0.758789 13.625 0.529622 14.125 0.446289C14.8333 0.279622 15.2292 0.717122 15.3125 1.75879C15.6875 1.71712 16.0833 1.69629 16.5 1.69629C16.9167 1.65462 17.3542 1.63379 17.8125 1.63379C19.3958 1.63379 21.0417 1.88379 22.75 2.38379C24.4583 2.88379 26.0208 3.69629 27.4375 4.82129C28.8958 5.90462 30.0833 7.34212 31 9.13379C31.9167 10.8838 32.375 13.0296 32.375 15.5713C32.375 18.4463 31.6875 21.0921 30.3125 23.5088C28.9792 25.9255 27.0625 27.9255 24.5625 29.5088C24.8542 30.2588 25.2292 31.1963 25.6875 32.3213C26.1458 33.4463 26.6042 34.7171 27.0625 36.1338C27.7292 37.8838 28.4375 39.5296 29.1875 41.0713C29.9792 42.5713 30.7917 43.8838 31.625 45.0088C32.4583 46.1338 33.3333 47.0296 34.25 47.6963C35.1667 48.4046 36.0833 48.8213 37 48.9463C36.4583 49.7796 35.8333 50.363 35.125 50.6963C34.4167 51.0296 33.7083 51.238 33 51.3213C32.2083 51.4463 31.375 51.4463 30.5 51.3213C29.2917 51.0713 28.25 50.488 27.375 49.5713C26.5 48.6546 25.7292 47.5505 25.0625 46.2588C24.4375 44.9671 23.8542 43.5921 23.3125 42.1338C22.8125 40.6338 22.3542 39.2171 21.9375 37.8838ZM14.6875 11.2588C14.6875 12.1755 14.6667 13.2796 14.625 14.5713C14.5833 15.863 14.5417 17.2588 14.5 18.7588C14.5 20.2588 14.4792 21.8421 14.4375 23.5088C14.3958 25.1338 14.375 26.7588 14.375 28.3838C15.5 28.2171 16.7292 27.9463 18.0625 27.5713C19.4375 27.1963 20.7083 26.5713 21.875 25.6963C23.0417 24.8213 24.0208 23.6546 24.8125 22.1963C25.6042 20.738 26 18.863 26 16.5713C26 14.8213 25.6875 13.3421 25.0625 12.1338C24.4792 10.8838 23.7083 9.88379 22.75 9.13379C21.7917 8.34212 20.7292 7.77962 19.5625 7.44629C18.4375 7.07129 17.3125 6.88379 16.1875 6.88379C15.9792 6.88379 15.7708 6.88379 15.5625 6.88379C15.3542 6.88379 15.125 6.90462 14.875 6.94629C14.75 8.27962 14.6875 9.71712 14.6875 11.2588ZM44.1875 45.0088C41.2708 45.0088 39.0208 44.0296 37.4375 42.0713C35.8542 40.113 35.0625 37.5505 35.0625 34.3838C35.0625 32.1755 35.375 30.113 36 28.1963C36.6667 26.238 37.5417 24.5505 38.625 23.1338C39.7083 21.7171 40.9583 20.613 42.375 19.8213C43.8333 18.988 45.3542 18.5713 46.9375 18.5713C48.4792 18.5713 49.7917 19.1338 50.875 20.2588C51.9583 21.3421 52.5 22.9046 52.5 24.9463C52.5 26.2796 52.2083 27.613 51.625 28.9463C51.0417 30.238 50.2708 31.4046 49.3125 32.4463C48.3958 33.4463 47.375 34.2588 46.25 34.8838C45.125 35.5088 44.0417 35.8213 43 35.8213C42.3333 35.8213 41.7708 35.738 41.3125 35.5713C40.8542 35.4046 40.4375 35.1546 40.0625 34.8213C40.1875 37.1963 40.7083 38.863 41.625 39.8213C42.5417 40.738 43.7292 41.1963 45.1875 41.1963C46.1875 41.1963 47.0625 40.988 47.8125 40.5713C48.6042 40.1546 49.2708 39.6755 49.8125 39.1338C50.3542 38.5921 50.7917 38.0505 51.125 37.5088C51.4583 36.9255 51.6875 36.488 51.8125 36.1963C51.9375 35.9463 52.1458 35.8213 52.4375 35.8213C52.7708 35.8213 52.9375 36.0713 52.9375 36.5713C52.9375 37.0296 52.7708 37.738 52.4375 38.6963C52.1458 39.613 51.6458 40.5505 50.9375 41.5088C50.2292 42.4255 49.3125 43.238 48.1875 43.9463C47.1042 44.6546 45.7708 45.0088 44.1875 45.0088ZM47.0625 21.2588C46.8125 21.2588 46.3333 21.5296 45.625 22.0713C44.9583 22.5713 44.2292 23.3213 43.4375 24.3213C42.6875 25.3213 41.9792 26.5296 41.3125 27.9463C40.6875 29.3213 40.2917 30.8838 40.125 32.6338C42.625 32.0505 44.6042 31.1338 46.0625 29.8838C47.5208 28.6338 48.25 26.8005 48.25 24.3838C48.25 23.1755 48.1042 22.363 47.8125 21.9463C47.5208 21.488 47.2708 21.2588 47.0625 21.2588ZM66.4375 32.4463C67.3542 32.7796 68.2292 33.0921 69.0625 33.3838C69.8958 33.6755 70.625 34.0296 71.25 34.4463C71.875 34.863 72.375 35.363 72.75 35.9463C73.125 36.488 73.3125 37.1755 73.3125 38.0088C73.3125 39.0088 73.0833 39.9463 72.625 40.8213C72.2083 41.6963 71.5833 42.4671 70.75 43.1338C69.9167 43.8005 68.8958 44.3213 67.6875 44.6963C66.5208 45.113 65.2083 45.3213 63.75 45.3213C62.125 45.3213 60.8125 45.1546 59.8125 44.8213C58.8125 44.5296 58.0417 44.1755 57.5 43.7588C56.9583 43.3421 56.6042 42.9255 56.4375 42.5088C56.2708 42.0921 56.1875 41.7588 56.1875 41.5088C56.1875 41.0088 56.2917 40.4671 56.5 39.8838C56.7083 39.2588 57.1042 38.5921 57.6875 37.8838C57.9375 37.5921 58.2083 37.3213 58.5 37.0713C59.0833 36.5713 59.6667 36.2588 60.25 36.1338C60.1667 37.0921 60.2708 37.8838 60.5625 38.5088C60.8958 39.0921 61.3125 39.5505 61.8125 39.8838C62.3542 40.2171 62.9375 40.4463 63.5625 40.5713C64.2292 40.6963 64.8542 40.7588 65.4375 40.7588C66.0208 40.7588 66.6042 40.6755 67.1875 40.5088C67.8125 40.3421 68.375 40.1338 68.875 39.8838C69.375 39.5921 69.7708 39.2796 70.0625 38.9463C70.3958 38.5713 70.5625 38.1755 70.5625 37.7588C70.5625 37.3005 70.375 36.9255 70 36.6338C69.625 36.3421 69.1458 36.113 68.5625 35.9463C68.0208 35.738 67.4167 35.5921 66.75 35.5088C66.125 35.3838 65.5208 35.2588 64.9375 35.1338C64.3542 35.0088 63.5625 34.8421 62.5625 34.6338C61.6042 34.3838 60.6458 34.0088 59.6875 33.5088C58.7708 33.0088 57.9583 32.3421 57.25 31.5088C56.5833 30.6755 56.25 29.5713 56.25 28.1963C56.25 26.613 56.6458 25.238 57.4375 24.0713C58.2708 22.863 59.2708 21.863 60.4375 21.0713C61.6458 20.238 62.9167 19.613 64.25 19.1963C65.5833 18.7796 66.7708 18.5713 67.8125 18.5713C68.3542 18.5713 68.9375 18.6546 69.5625 18.8213C70.1875 18.9463 70.7708 19.1963 71.3125 19.5713C71.8542 19.9046 72.2917 20.363 72.625 20.9463C73 21.5296 73.1875 22.2796 73.1875 23.1963C73.1875 24.113 73.1042 24.863 72.9375 25.4463C72.8125 25.988 72.6042 26.4255 72.3125 26.7588C72.0625 27.0505 71.75 27.238 71.375 27.3213C71 27.4046 70.5625 27.4463 70.0625 27.4463C69.7292 27.4463 69.4167 27.4046 69.125 27.3213C68.875 27.238 68.6042 27.1546 68.3125 27.0713C68.0208 26.988 67.75 26.8421 67.5 26.6338C67.9167 26.1338 68.2292 25.6546 68.4375 25.1963C68.6875 24.738 68.8125 24.1755 68.8125 23.5088C68.8125 22.9255 68.6458 22.4046 68.3125 21.9463C68.0208 21.488 67.5208 21.2588 66.8125 21.2588C66.0625 21.2588 65.3333 21.4046 64.625 21.6963C63.9583 21.988 63.3542 22.3838 62.8125 22.8838C62.3125 23.3838 61.8958 23.9671 61.5625 24.6338C61.2708 25.2588 61.125 25.9463 61.125 26.6963C61.125 27.8213 61.5417 28.8838 62.375 29.8838C63.25 30.8838 64.6042 31.738 66.4375 32.4463ZM85.3125 45.0088C82.3958 45.0088 80.1458 44.0296 78.5625 42.0713C76.9792 40.113 76.1875 37.5505 76.1875 34.3838C76.1875 32.1755 76.5 30.113 77.125 28.1963C77.7917 26.238 78.6667 24.5505 79.75 23.1338C80.8333 21.7171 82.0833 20.613 83.5 19.8213C84.9583 18.988 86.4792 18.5713 88.0625 18.5713C89.6042 18.5713 90.9167 19.1338 92 20.2588C93.0833 21.3421 93.625 22.9046 93.625 24.9463C93.625 26.2796 93.3333 27.613 92.75 28.9463C92.1667 30.238 91.3958 31.4046 90.4375 32.4463C89.5208 33.4463 88.5 34.2588 87.375 34.8838C86.25 35.5088 85.1667 35.8213 84.125 35.8213C83.4583 35.8213 82.8958 35.738 82.4375 35.5713C81.9792 35.4046 81.5625 35.1546 81.1875 34.8213C81.3125 37.1963 81.8333 38.863 82.75 39.8213C83.6667 40.738 84.8542 41.1963 86.3125 41.1963C87.3125 41.1963 88.1875 40.988 88.9375 40.5713C89.7292 40.1546 90.3958 39.6755 90.9375 39.1338C91.4792 38.5921 91.9167 38.0505 92.25 37.5088C92.5833 36.9255 92.8125 36.488 92.9375 36.1963C93.0625 35.9463 93.2708 35.8213 93.5625 35.8213C93.8958 35.8213 94.0625 36.0713 94.0625 36.5713C94.0625 37.0296 93.8958 37.738 93.5625 38.6963C93.2708 39.613 92.7708 40.5505 92.0625 41.5088C91.3542 42.4255 90.4375 43.238 89.3125 43.9463C88.2292 44.6546 86.8958 45.0088 85.3125 45.0088ZM88.1875 21.2588C87.9375 21.2588 87.4583 21.5296 86.75 22.0713C86.0833 22.5713 85.3542 23.3213 84.5625 24.3213C83.8125 25.3213 83.1042 26.5296 82.4375 27.9463C81.8125 29.3213 81.4167 30.8838 81.25 32.6338C83.75 32.0505 85.7292 31.1338 87.1875 29.8838C88.6458 28.6338 89.375 26.8005 89.375 24.3838C89.375 23.1755 89.2292 22.363 88.9375 21.9463C88.6458 21.488 88.3958 21.2588 88.1875 21.2588ZM114.625 25.1338C114.625 25.7171 114.458 26.3213 114.125 26.9463C113.833 27.5296 113.458 28.0921 113 28.6338C112.542 29.1755 112.021 29.6546 111.438 30.0713C110.896 30.4463 110.375 30.6755 109.875 30.7588C110.208 29.4671 110.312 28.4671 110.188 27.7588C110.062 27.0505 109.854 26.5296 109.562 26.1963C109.229 25.8213 108.812 25.613 108.312 25.5713C107.562 25.5713 106.833 26.0088 106.125 26.8838C105.458 27.7171 104.875 28.7588 104.375 30.0088C103.875 31.2171 103.479 32.5296 103.188 33.9463C102.896 35.3213 102.75 36.5713 102.75 37.6963C102.708 38.488 102.729 39.2588 102.812 40.0088C102.854 40.6338 102.917 41.2796 103 41.9463C103.125 42.613 103.292 43.1338 103.5 43.5088C103.25 43.7171 102.833 43.9671 102.25 44.2588C101.708 44.5505 101.125 44.738 100.5 44.8213C99.9167 44.9046 99.375 44.8005 98.875 44.5088C98.4167 44.2171 98.1667 43.5921 98.125 42.6338C98.0417 41.7171 97.9792 40.6963 97.9375 39.5713C97.9375 38.4046 97.9375 37.2588 97.9375 36.1338C97.9792 34.9671 98.0208 33.8213 98.0625 32.6963C98.1042 31.5713 98.1667 30.5296 98.25 29.5713C98.3333 27.738 98.375 26.3213 98.375 25.3213C98.375 24.3213 98.3542 23.363 98.3125 22.4463C98.3125 22.2796 98.5833 22.0505 99.125 21.7588C99.7083 21.4255 100.333 21.1338 101 20.8838C101.708 20.6338 102.354 20.488 102.938 20.4463C103.521 20.4046 103.812 20.5296 103.812 20.8213C103.812 21.2796 103.75 22.1963 103.625 23.5713C103.542 24.9046 103.417 26.3005 103.25 27.7588C103.542 26.9671 103.917 26.113 104.375 25.1963C104.875 24.2796 105.438 23.4255 106.062 22.6338C106.688 21.8421 107.396 21.1963 108.188 20.6963C108.979 20.1546 109.854 19.8838 110.812 19.8838C111.562 19.8838 112.167 20.113 112.625 20.5713C113.125 21.0296 113.521 21.5505 113.812 22.1338C114.104 22.7171 114.312 23.3005 114.438 23.8838C114.562 24.4671 114.625 24.8838 114.625 25.1338ZM124.688 41.0713C125.062 41.0713 125.562 40.4046 126.188 39.0713C126.812 37.738 127.396 36.1338 127.938 34.2588C128.521 32.3838 128.979 30.4463 129.312 28.4463C129.688 26.4463 129.792 24.7588 129.625 23.3838C129.542 22.9255 129.417 22.5505 129.25 22.2588C129.125 21.9671 128.958 21.6546 128.75 21.3213C129 20.988 129.312 20.738 129.688 20.5713C130.062 20.363 130.417 20.2171 130.75 20.1338C131.167 20.0088 131.583 19.9255 132 19.8838C133 19.8421 133.729 20.0088 134.188 20.3838C134.438 20.6338 134.562 21.2171 134.562 22.1338C134.562 23.0505 134.458 24.1338 134.25 25.3838C134.083 26.5921 133.833 27.8838 133.5 29.2588C133.208 30.5921 132.875 31.8213 132.5 32.9463C132.125 34.0296 131.667 35.2171 131.125 36.5088C130.583 37.7588 130.021 38.9671 129.438 40.1338C128.854 41.2588 128.271 42.238 127.688 43.0713C127.104 43.863 126.604 44.3421 126.188 44.5088C125.312 44.8421 124.438 45.0088 123.562 45.0088C122.729 45.0088 122.208 44.9046 122 44.6963C121.917 44.613 121.729 44.3213 121.438 43.8213C121.146 43.3213 120.812 42.6755 120.438 41.8838C120.104 41.0921 119.729 40.1755 119.312 39.1338C118.938 38.0505 118.604 36.9046 118.312 35.6963C118.021 34.488 117.812 33.1755 117.688 31.7588C117.562 30.3421 117.417 28.9671 117.25 27.6338C117.125 26.2588 116.938 24.988 116.688 23.8213C116.438 22.6546 116.062 21.6963 115.562 20.9463L118.5 19.7588C118.75 19.6338 119.042 19.5296 119.375 19.4463C119.708 19.3213 120.042 19.2796 120.375 19.3213C120.708 19.363 121 19.5296 121.25 19.8213C121.542 20.0713 121.729 20.5296 121.812 21.1963C121.896 21.9463 121.958 22.8421 122 23.8838C122.083 24.9255 122.146 26.0088 122.188 27.1338C122.271 28.2588 122.354 29.3838 122.438 30.5088C122.521 31.5921 122.604 32.5713 122.688 33.4463C122.771 34.363 122.875 35.2796 123 36.1963C123.167 37.113 123.333 37.9255 123.5 38.6338C123.708 39.3421 123.896 39.9255 124.062 40.3838C124.271 40.8421 124.479 41.0713 124.688 41.0713ZM155.312 41.1338C155.396 41.4255 155.521 41.6963 155.688 41.9463C155.812 42.1546 155.979 42.363 156.188 42.5713C156.438 42.738 156.729 42.8421 157.062 42.8838C156.771 43.4671 156.479 43.863 156.188 44.0713C156.021 44.1963 155.875 44.2796 155.75 44.3213C155.375 44.4463 154.812 44.5088 154.062 44.5088C153.312 44.5088 152.583 44.2796 151.875 43.8213C151.625 43.613 151.396 43.3005 151.188 42.8838C150.979 42.5505 150.792 42.0921 150.625 41.5088C150.5 40.8838 150.396 40.0921 150.312 39.1338C149.729 40.3838 149.062 41.3838 148.312 42.1338C147.604 42.8421 146.896 43.363 146.188 43.6963C145.396 44.1546 144.583 44.4255 143.75 44.5088C142.708 44.5921 141.708 44.4255 140.75 44.0088C139.833 43.5505 139.042 42.8838 138.375 42.0088C137.75 41.0921 137.271 39.988 136.938 38.6963C136.604 37.4046 136.5 35.9463 136.625 34.3213C136.75 32.613 137.083 31.0921 137.625 29.7588C138.167 28.4255 138.812 27.238 139.562 26.1963C140.312 25.1546 141.104 24.2796 141.938 23.5713C142.771 22.8213 143.562 22.2171 144.312 21.7588C145.104 21.2588 145.771 20.9046 146.312 20.6963C146.896 20.4463 147.271 20.3005 147.438 20.2588C147.896 20.1338 148.292 20.0921 148.625 20.1338C148.958 20.1755 149.25 20.363 149.5 20.6963C149.583 20.8213 149.688 20.9671 149.812 21.1338C149.896 21.3005 150 21.5296 150.125 21.8213C150.25 22.0713 150.354 22.363 150.438 22.6963C149.438 23.1546 148.5 23.6755 147.625 24.2588C146.75 24.8005 145.938 25.4671 145.188 26.2588C144.479 27.0505 143.854 28.0088 143.312 29.1338C142.771 30.2588 142.354 31.6338 142.062 33.2588C141.646 35.3005 141.75 36.9463 142.375 38.1963C143.042 39.4463 143.938 39.9671 145.062 39.7588C145.729 39.5505 146.375 39.1546 147 38.5713C147.542 38.0713 148.104 37.3213 148.688 36.3213C149.312 35.3213 149.896 33.9463 150.438 32.1963C150.646 29.6963 150.812 27.738 150.938 26.3213C151.104 24.863 151.25 23.7588 151.375 23.0088C151.542 22.1338 151.667 21.5505 151.75 21.2588C151.875 21.0505 152.125 20.863 152.5 20.6963C152.875 20.488 153.292 20.3213 153.75 20.1963C154.208 20.0713 154.625 20.0088 155 20.0088C155.375 19.9671 155.625 19.9671 155.75 20.0088C155.833 20.0505 155.875 20.5713 155.875 21.5713C155.875 22.5296 155.833 23.7588 155.75 25.2588C155.708 26.7171 155.646 28.3213 155.562 30.0713C155.479 31.7796 155.396 33.4046 155.312 34.9463C155.271 36.488 155.229 37.8421 155.188 39.0088C155.188 40.1338 155.229 40.8421 155.312 41.1338ZM177.812 36.4463C177.812 36.9046 177.646 37.613 177.312 38.5713C177.021 39.488 176.521 40.4255 175.812 41.3838C175.104 42.3005 174.188 43.113 173.062 43.8213C171.979 44.5296 170.646 44.8838 169.062 44.8838C166.812 44.8838 164.917 44.2796 163.375 43.0713C161.875 41.8213 160.812 40.0505 160.188 37.7588C159.688 35.8421 159.542 33.8005 159.75 31.6338C160 29.4255 160.604 27.3838 161.562 25.5088C162.521 23.6338 163.854 22.0505 165.562 20.7588C167.271 19.4255 169.354 18.6963 171.812 18.5713C173.062 18.5296 174.104 18.7588 174.938 19.2588C175.771 19.7588 176.417 20.4046 176.875 21.1963C177.333 21.988 177.604 22.863 177.688 23.8213C177.771 24.738 177.667 25.613 177.375 26.4463C177.125 27.2796 176.708 27.988 176.125 28.5713C175.583 29.113 174.875 29.4046 174 29.4463C173.125 29.5296 172.396 29.4255 171.812 29.1338C171.271 28.8005 170.833 28.4046 170.5 27.9463C170.208 27.488 170 27.0088 169.875 26.5088C169.792 26.0088 169.792 25.5713 169.875 25.1963C170 24.6546 170.208 24.1546 170.5 23.6963C170.75 23.2796 171.104 22.863 171.562 22.4463C172.062 22.0296 172.708 21.6963 173.5 21.4463C173.375 21.363 173.25 21.3213 173.125 21.3213C173 21.3213 172.875 21.3005 172.75 21.2588C172.583 21.2588 172.458 21.238 172.375 21.1963C171.708 21.1963 170.938 21.4255 170.062 21.8838C169.229 22.3421 168.417 23.0713 167.625 24.0713C166.875 25.0713 166.229 26.363 165.688 27.9463C165.188 29.488 164.938 31.363 164.938 33.5713C164.938 34.5296 165.042 35.488 165.25 36.4463C165.458 37.363 165.771 38.1963 166.188 38.9463C166.646 39.6546 167.188 40.238 167.812 40.6963C168.479 41.113 169.25 41.3213 170.125 41.3213C171.125 41.3213 172 41.113 172.75 40.6963C173.542 40.238 174.208 39.7171 174.75 39.1338C175.292 38.5505 175.708 37.9671 176 37.3838C176.333 36.8005 176.562 36.363 176.688 36.0713C176.812 35.8213 177.021 35.6963 177.312 35.6963C177.646 35.6963 177.812 35.9463 177.812 36.4463ZM181.812 22.1963C181.812 21.9463 182.146 21.6755 182.812 21.3838C183.479 21.0921 184.208 20.863 185 20.6963C185.833 20.488 186.583 20.3838 187.25 20.3838C187.958 20.3421 188.312 20.488 188.312 20.8213C188.312 21.4463 188.271 22.3421 188.188 23.5088C188.104 24.6338 188 25.8421 187.875 27.1338C187.75 28.3838 187.625 29.6546 187.5 30.9463C187.375 32.1963 187.292 33.2588 187.25 34.1338C187.167 35.0505 187.083 36.0505 187 37.1338C186.917 38.0505 186.854 39.0713 186.812 40.1963C186.771 41.3213 186.771 42.4671 186.812 43.6338C186.812 43.8421 186.604 44.0505 186.188 44.2588C185.771 44.4671 185.312 44.613 184.812 44.6963C184.312 44.8213 183.833 44.8838 183.375 44.8838C182.917 44.8838 182.667 44.8005 182.625 44.6338C182.542 44.4671 182.458 44.1755 182.375 43.7588C182.292 43.3421 182.208 42.7588 182.125 42.0088C182.042 41.2171 181.979 40.2171 181.938 39.0088C181.896 37.7588 181.917 36.2588 182 34.5088C182.167 31.0505 182.188 28.3838 182.062 26.5088C181.938 24.5921 181.854 23.1546 181.812 22.1963ZM186.188 9.75879C187.021 9.75879 187.812 10.0088 188.562 10.5088C189.312 11.0088 189.688 11.6755 189.688 12.5088C189.688 13.1338 189.521 13.738 189.188 14.3213C188.896 14.9046 188.521 15.4255 188.062 15.8838C187.604 16.3421 187.083 16.7171 186.5 17.0088C185.917 17.2588 185.375 17.3838 184.875 17.3838C184.208 17.3838 183.667 17.2796 183.25 17.0713C182.833 16.8213 182.5 16.5505 182.25 16.2588C182.042 15.9255 181.896 15.5713 181.812 15.1963C181.729 14.8213 181.688 14.4671 181.688 14.1338C181.688 13.7171 181.75 13.2588 181.875 12.7588C182 12.2171 182.229 11.738 182.562 11.3213C182.896 10.863 183.354 10.488 183.938 10.1963C184.521 9.90462 185.271 9.75879 186.188 9.75879ZM184.625 15.5713C184.875 15.5713 185.146 15.488 185.438 15.3213C185.771 15.113 186.062 14.8838 186.312 14.6338C186.604 14.3838 186.833 14.113 187 13.8213C187.208 13.5296 187.312 13.2796 187.312 13.0713C187.312 12.738 187.146 12.5713 186.812 12.5713C186.604 12.5713 186.333 12.6546 186 12.8213C185.708 12.988 185.417 13.1963 185.125 13.4463C184.833 13.6546 184.583 13.9046 184.375 14.1963C184.208 14.4463 184.125 14.6963 184.125 14.9463C184.125 15.363 184.292 15.5713 184.625 15.5713ZM209.875 33.5713C209.792 35.1963 209.5 36.6963 209 38.0713C208.542 39.4463 207.896 40.6546 207.062 41.6963C206.229 42.6963 205.229 43.488 204.062 44.0713C202.938 44.6546 201.688 44.9671 200.312 45.0088C199.104 45.0505 197.958 44.7588 196.875 44.1338C195.833 43.5088 194.917 42.6338 194.125 41.5088C193.333 40.3838 192.729 39.0505 192.312 37.5088C191.938 35.9255 191.833 34.2171 192 32.3838C192.125 30.2588 192.521 28.4463 193.188 26.9463C193.854 25.4046 194.562 24.1338 195.312 23.1338C196.062 22.1338 196.75 21.4046 197.375 20.9463C198.042 20.4463 198.458 20.1546 198.625 20.0713C198.917 19.9463 199.188 19.9255 199.438 20.0088C199.688 20.0505 199.958 20.113 200.25 20.1963C200.333 20.238 200.417 20.3421 200.5 20.5088C200.667 20.8005 200.771 21.3421 200.812 22.1338C201.021 21.6755 201.292 21.3005 201.625 21.0088C201.958 20.7171 202.292 20.5088 202.625 20.3838C203.042 20.2171 203.458 20.113 203.875 20.0713C204.167 20.0296 204.667 20.2588 205.375 20.7588C206.125 21.2588 206.833 22.0505 207.5 23.1338C208.208 24.2171 208.812 25.6338 209.312 27.3838C209.812 29.0921 210 31.1546 209.875 33.5713ZM205.625 32.8213C205.667 31.8213 205.625 30.8213 205.5 29.8213C205.417 28.7796 205.25 27.8421 205 27.0088C204.792 26.1338 204.521 25.4463 204.188 24.9463C203.854 24.4046 203.521 24.1338 203.188 24.1338C202.812 24.2171 202.396 24.4046 201.938 24.6963C201.562 24.9463 201.146 25.3421 200.688 25.8838C200.229 26.4255 199.792 27.1963 199.375 28.1963C199.333 28.0713 199.292 27.8421 199.25 27.5088C199.208 27.2171 199.167 26.8421 199.125 26.3838C199.125 25.8838 199.167 25.2171 199.25 24.3838C198.667 25.0921 198.208 25.9255 197.875 26.8838C197.583 27.8421 197.354 28.7588 197.188 29.6338C197.021 30.6755 196.896 31.7171 196.812 32.7588C196.771 33.8838 196.812 34.988 196.938 36.0713C197.104 37.1546 197.354 38.113 197.688 38.9463C198.062 39.7796 198.5 40.4463 199 40.9463C199.5 41.4463 200.104 41.6755 200.812 41.6338C201.521 41.5921 202.146 41.3005 202.688 40.7588C203.229 40.2171 203.708 39.5296 204.125 38.6963C204.542 37.863 204.875 36.9255 205.125 35.8838C205.375 34.8421 205.542 33.8213 205.625 32.8213ZM219.75 42.6338C219.708 42.8838 219.479 43.1546 219.062 43.4463C218.688 43.6963 218.229 43.9255 217.688 44.1338C217.188 44.3421 216.708 44.4671 216.25 44.5088C215.792 44.5921 215.479 44.5505 215.312 44.3838C215.146 44.2171 214.875 43.9046 214.5 43.4463C214.125 42.988 213.896 42.238 213.812 41.1963C213.729 40.113 213.688 38.7588 213.688 37.1338C213.688 35.4671 213.667 33.6338 213.625 31.6338V29.1338C213.625 28.3838 213.604 27.5088 213.562 26.5088C213.562 25.5088 213.542 24.4671 213.5 23.3838C213.875 23.1755 214.25 22.988 214.625 22.8213C215.042 22.613 215.417 22.4463 215.75 22.3213C216.125 22.1546 216.479 22.0296 216.812 21.9463C217.688 21.6963 218.354 21.5505 218.812 21.5088C219.271 21.4671 219.542 21.613 219.625 21.9463C219.667 22.1963 219.646 22.8005 219.562 23.7588C219.479 24.5921 219.375 25.863 219.25 27.5713C219.125 29.238 218.917 31.5713 218.625 34.5713C219.167 33.238 219.604 32.0921 219.938 31.1338C220.312 30.1755 220.625 29.4046 220.875 28.8213C221.125 28.113 221.354 27.5505 221.562 27.1338C221.771 26.5921 222.042 25.988 222.375 25.3213C222.708 24.6546 223.042 24.0296 223.375 23.4463C223.75 22.863 224.083 22.3421 224.375 21.8838C224.708 21.4255 224.958 21.1546 225.125 21.0713C225.25 20.988 225.625 20.988 226.25 21.0713C226.875 21.1546 227.542 21.363 228.25 21.6963C228.958 21.988 229.646 22.4255 230.312 23.0088C230.979 23.5505 231.417 24.2171 231.625 25.0088C231.875 25.9255 231.958 27.1338 231.875 28.6338C231.833 30.1338 231.729 31.6755 231.562 33.2588C231.438 34.8421 231.333 36.3421 231.25 37.7588C231.167 39.1755 231.25 40.2588 231.5 41.0088C231.583 41.4255 231.708 41.8005 231.875 42.1338C231.958 42.4671 232.062 42.7796 232.188 43.0713C232.354 43.3213 232.521 43.5088 232.688 43.6338C231.688 44.0921 230.875 44.4255 230.25 44.6338C229.625 44.8421 229.146 44.988 228.812 45.0713C228.396 45.1963 228.104 45.238 227.938 45.1963C227.562 45.0713 227.229 44.7588 226.938 44.2588C226.688 43.7588 226.458 42.9671 226.25 41.8838C226.167 41.5505 226.125 41.0088 226.125 40.2588C226.167 39.4671 226.229 38.5921 226.312 37.6338C226.396 36.6338 226.479 35.613 226.562 34.5713C226.688 33.488 226.771 32.488 226.812 31.5713C226.896 30.613 226.958 29.8005 227 29.1338C227.042 28.4255 227.042 27.9463 227 27.6963C226.792 26.9463 226.5 26.4255 226.125 26.1338C225.75 25.8005 225.458 25.7588 225.25 26.0088C224.708 26.6338 224.125 27.6546 223.5 29.0713C222.917 30.4463 222.354 31.9671 221.812 33.6338C221.271 35.2588 220.812 36.8838 220.438 38.5088C220.062 40.1338 219.833 41.5088 219.75 42.6338Z" fill="white"/>
</svg>
