<svg width="311" height="50" viewBox="0 0 311 50" fill="none" xmlns="http://www.w3.org/2000/svg">
<path d="M15.375 49.5C13.125 49.5 11.0833 48.9375 9.25 47.8125C7.41667 46.7292 5.85417 45.2292 4.5625 43.3125C3.3125 41.3958 2.33333 39.1458 1.625 36.5625C0.958333 33.9792 0.625 31.1875 0.625 28.1875C0.625 23.8958 1.125 20.0625 2.125 16.6875C3.125 13.3125 4.4375 10.4583 6.0625 8.125C7.72917 5.79167 9.60417 4 11.6875 2.75C13.8125 1.5 15.9792 0.875 18.1875 0.875C20.2708 0.875 22.0208 1.25 23.4375 2C24.8542 2.75 25.9792 3.70833 26.8125 4.875C27.6875 6.04167 28.2708 7.33333 28.5625 8.75C28.8958 10.125 29 11.4375 28.875 12.6875C28.6667 15.1042 27.8333 17.0625 26.375 18.5625C24.9583 20.0625 23.3125 20.8125 21.4375 20.8125C20.8125 20.7708 20.1667 20.6667 19.5 20.5C18.9167 20.3333 18.3125 20.0833 17.6875 19.75C17.0625 19.4167 16.4792 18.9375 15.9375 18.3125C17.6875 18.4375 19.0417 18.0833 20 17.25C20.9583 16.4167 21.6667 15.4792 22.125 14.4375C22.625 13.2292 22.9167 11.8125 23 10.1875C23 9.27083 22.8542 8.47917 22.5625 7.8125C22.2708 7.10417 21.875 6.54167 21.375 6.125C20.9167 5.66667 20.4167 5.33333 19.875 5.125C19.3333 4.91667 18.8125 4.8125 18.3125 4.8125C17.1875 4.8125 15.9583 5.25 14.625 6.125C13.3333 7 12.1042 8.33333 10.9375 10.125C9.77083 11.875 8.79167 14.125 8 16.875C7.25 19.5833 6.875 22.8125 6.875 26.5625C6.875 30.2708 7.20833 33.3125 7.875 35.6875C8.54167 38.0208 9.35417 39.8542 10.3125 41.1875C11.2708 42.4792 12.2708 43.375 13.3125 43.875C14.3958 44.3333 15.3125 44.5625 16.0625 44.5625C17.5208 44.4375 18.8542 43.9375 20.0625 43.0625C21.1042 42.3125 22.0833 41.125 23 39.5C23.9583 37.8333 24.6042 35.4583 24.9375 32.375C25.4792 32.4167 25.9167 32.5417 26.25 32.75C26.625 32.9583 26.9375 33.1667 27.1875 33.375C27.4375 33.625 27.6667 33.9167 27.875 34.25C27.9167 34.2917 27.9167 34.7083 27.875 35.5C27.8333 36.2917 27.6875 37.25 27.4375 38.375C27.1875 39.5 26.7917 40.7083 26.25 42C25.75 43.2917 25.0208 44.5 24.0625 45.625C23.1458 46.75 21.9792 47.6667 20.5625 48.375C19.1458 49.125 17.4167 49.5 15.375 49.5ZM49.4375 33.25C49.3542 34.875 49.0625 36.375 48.5625 37.75C48.1042 39.125 47.4583 40.3333 46.625 41.375C45.7917 42.375 44.7917 43.1667 43.625 43.75C42.5 44.3333 41.25 44.6458 39.875 44.6875C38.6667 44.7292 37.5208 44.4375 36.4375 43.8125C35.3958 43.1875 34.4792 42.3125 33.6875 41.1875C32.8958 40.0625 32.2917 38.7292 31.875 37.1875C31.5 35.6042 31.3958 33.8958 31.5625 32.0625C31.6875 29.9375 32.0833 28.125 32.75 26.625C33.4167 25.0833 34.125 23.8125 34.875 22.8125C35.625 21.8125 36.3125 21.0833 36.9375 20.625C37.6042 20.125 38.0208 19.8333 38.1875 19.75C38.4792 19.625 38.75 19.6042 39 19.6875C39.25 19.7292 39.5208 19.7917 39.8125 19.875C39.8958 19.9167 39.9792 20.0208 40.0625 20.1875C40.2292 20.4792 40.3333 21.0208 40.375 21.8125C40.5833 21.3542 40.8542 20.9792 41.1875 20.6875C41.5208 20.3958 41.8542 20.1875 42.1875 20.0625C42.6042 19.8958 43.0208 19.7917 43.4375 19.75C43.7292 19.7083 44.2292 19.9375 44.9375 20.4375C45.6875 20.9375 46.3958 21.7292 47.0625 22.8125C47.7708 23.8958 48.375 25.3125 48.875 27.0625C49.375 28.7708 49.5625 30.8333 49.4375 33.25ZM45.1875 32.5C45.2292 31.5 45.1875 30.5 45.0625 29.5C44.9792 28.4583 44.8125 27.5208 44.5625 26.6875C44.3542 25.8125 44.0833 25.125 43.75 24.625C43.4167 24.0833 43.0833 23.8125 42.75 23.8125C42.375 23.8958 41.9583 24.0833 41.5 24.375C41.125 24.625 40.7083 25.0208 40.25 25.5625C39.7917 26.1042 39.3542 26.875 38.9375 27.875C38.8958 27.75 38.8542 27.5208 38.8125 27.1875C38.7708 26.8958 38.7292 26.5208 38.6875 26.0625C38.6875 25.5625 38.7292 24.8958 38.8125 24.0625C38.2292 24.7708 37.7708 25.6042 37.4375 26.5625C37.1458 27.5208 36.9167 28.4375 36.75 29.3125C36.5833 30.3542 36.4583 31.3958 36.375 32.4375C36.3333 33.5625 36.375 34.6667 36.5 35.75C36.6667 36.8333 36.9167 37.7917 37.25 38.625C37.625 39.4583 38.0625 40.125 38.5625 40.625C39.0625 41.125 39.6667 41.3542 40.375 41.3125C41.0833 41.2708 41.7083 40.9792 42.25 40.4375C42.7917 39.8958 43.2708 39.2083 43.6875 38.375C44.1042 37.5417 44.4375 36.6042 44.6875 35.5625C44.9375 34.5208 45.1042 33.5 45.1875 32.5ZM62.6875 32.125C63.6042 32.4583 64.4792 32.7708 65.3125 33.0625C66.1458 33.3542 66.875 33.7083 67.5 34.125C68.125 34.5417 68.625 35.0417 69 35.625C69.375 36.1667 69.5625 36.8542 69.5625 37.6875C69.5625 38.6875 69.3333 39.625 68.875 40.5C68.4583 41.375 67.8333 42.1458 67 42.8125C66.1667 43.4792 65.1458 44 63.9375 44.375C62.7708 44.7917 61.4583 45 60 45C58.375 45 57.0625 44.8333 56.0625 44.5C55.0625 44.2083 54.2917 43.8542 53.75 43.4375C53.2083 43.0208 52.8542 42.6042 52.6875 42.1875C52.5208 41.7708 52.4375 41.4375 52.4375 41.1875C52.4375 40.6875 52.5417 40.1458 52.75 39.5625C52.9583 38.9375 53.3542 38.2708 53.9375 37.5625C54.1875 37.2708 54.4583 37 54.75 36.75C55.3333 36.25 55.9167 35.9375 56.5 35.8125C56.4167 36.7708 56.5208 37.5625 56.8125 38.1875C57.1458 38.7708 57.5625 39.2292 58.0625 39.5625C58.6042 39.8958 59.1875 40.125 59.8125 40.25C60.4792 40.375 61.1042 40.4375 61.6875 40.4375C62.2708 40.4375 62.8542 40.3542 63.4375 40.1875C64.0625 40.0208 64.625 39.8125 65.125 39.5625C65.625 39.2708 66.0208 38.9583 66.3125 38.625C66.6458 38.25 66.8125 37.8542 66.8125 37.4375C66.8125 36.9792 66.625 36.6042 66.25 36.3125C65.875 36.0208 65.3958 35.7917 64.8125 35.625C64.2708 35.4167 63.6667 35.2708 63 35.1875C62.375 35.0625 61.7708 34.9375 61.1875 34.8125C60.6042 34.6875 59.8125 34.5208 58.8125 34.3125C57.8542 34.0625 56.8958 33.6875 55.9375 33.1875C55.0208 32.6875 54.2083 32.0208 53.5 31.1875C52.8333 30.3542 52.5 29.25 52.5 27.875C52.5 26.2917 52.8958 24.9167 53.6875 23.75C54.5208 22.5417 55.5208 21.5417 56.6875 20.75C57.8958 19.9167 59.1667 19.2917 60.5 18.875C61.8333 18.4583 63.0208 18.25 64.0625 18.25C64.6042 18.25 65.1875 18.3333 65.8125 18.5C66.4375 18.625 67.0208 18.875 67.5625 19.25C68.1042 19.5833 68.5417 20.0417 68.875 20.625C69.25 21.2083 69.4375 21.9583 69.4375 22.875C69.4375 23.7917 69.3542 24.5417 69.1875 25.125C69.0625 25.6667 68.8542 26.1042 68.5625 26.4375C68.3125 26.7292 68 26.9167 67.625 27C67.25 27.0833 66.8125 27.125 66.3125 27.125C65.9792 27.125 65.6667 27.0833 65.375 27C65.125 26.9167 64.8542 26.8333 64.5625 26.75C64.2708 26.6667 64 26.5208 63.75 26.3125C64.1667 25.8125 64.4792 25.3333 64.6875 24.875C64.9375 24.4167 65.0625 23.8542 65.0625 23.1875C65.0625 22.6042 64.8958 22.0833 64.5625 21.625C64.2708 21.1667 63.7708 20.9375 63.0625 20.9375C62.3125 20.9375 61.5833 21.0833 60.875 21.375C60.2083 21.6667 59.6042 22.0625 59.0625 22.5625C58.5625 23.0625 58.1458 23.6458 57.8125 24.3125C57.5208 24.9375 57.375 25.625 57.375 26.375C57.375 27.5 57.7917 28.5625 58.625 29.5625C59.5 30.5625 60.8542 31.4167 62.6875 32.125ZM87.375 20.75C87.375 20.2917 87.6458 19.9583 88.1875 19.75C88.7708 19.5 89.375 19.375 90 19.375C90.6667 19.375 91.2708 19.5 91.8125 19.75C92.3542 19.9583 92.6042 20.25 92.5625 20.625C92.5208 20.9167 92.4792 21.5 92.4375 22.375C92.3958 23.2083 92.3333 24.2083 92.25 25.375C92.2083 26.5417 92.1458 27.7917 92.0625 29.125C91.9792 30.4583 91.8958 31.7708 91.8125 33.0625C91.7708 34.3125 91.7292 35.4792 91.6875 36.5625C91.6875 37.6458 91.6875 38.4792 91.6875 39.0625C91.6875 39.8125 91.7292 40.5 91.8125 41.125C91.8958 41.6667 92 42.2083 92.125 42.75C92.25 43.25 92.4375 43.6042 92.6875 43.8125C92.3542 43.9375 92 44.0208 91.625 44.0625C91.2917 44.1042 90.9792 44.1458 90.6875 44.1875C90.3542 44.2292 90.0208 44.25 89.6875 44.25C88.9792 44.25 88.375 44.1042 87.875 43.8125C87.4167 43.5208 87.1875 42.9167 87.1875 42C87.1875 41.5417 87.2083 40.875 87.25 40C87.3333 39.125 87.4167 38.1875 87.5 37.1875C87.2083 38.0625 86.8542 38.9583 86.4375 39.875C86.0208 40.7917 85.5 41.6042 84.875 42.3125C84.2917 43.0208 83.625 43.6042 82.875 44.0625C82.125 44.5208 81.2708 44.75 80.3125 44.75C79.2292 44.75 78.2292 44.5208 77.3125 44.0625C76.4375 43.6042 75.6667 42.9583 75 42.125C74.3333 41.25 73.8333 40.1875 73.5 38.9375C73.1667 37.6875 73.0417 36.25 73.125 34.625C73.125 33.375 73.1458 32.0417 73.1875 30.625C73.2292 29.4167 73.2917 28.0208 73.375 26.4375C73.4583 24.8542 73.6042 23.2083 73.8125 21.5C73.8542 21.3333 74.1458 21.125 74.6875 20.875C75.2292 20.625 75.8333 20.4167 76.5 20.25C77.1667 20.0833 77.8125 20.0208 78.4375 20.0625C79.0625 20.1042 79.5208 20.3542 79.8125 20.8125C79.6042 21.5625 79.3958 22.4583 79.1875 23.5C78.9792 24.5 78.7917 25.5417 78.625 26.625C78.4583 27.7083 78.3333 28.7708 78.25 29.8125C78.1667 30.8542 78.125 31.8125 78.125 32.6875C78.125 33.4792 78.1667 34.3542 78.25 35.3125C78.3333 36.2292 78.4792 37.1042 78.6875 37.9375C78.9375 38.7292 79.2708 39.3958 79.6875 39.9375C80.1458 40.4792 80.7292 40.75 81.4375 40.75C82.2292 40.75 82.9167 40.4167 83.5 39.75C84.125 39.0417 84.6458 38.1458 85.0625 37.0625C85.4792 35.9792 85.8333 34.75 86.125 33.375C86.4167 31.9583 86.6458 30.5625 86.8125 29.1875C87.0208 27.8125 87.1458 26.5 87.1875 25.25C87.2708 23.9583 87.3333 22.875 87.375 22V20.75ZM110.75 24.5C110.417 24.5 110.042 24.6875 109.625 25.0625C109.25 25.3958 108.875 25.875 108.5 26.5C108.125 27.0833 107.75 27.75 107.375 28.5C107 29.2083 106.667 29.9375 106.375 30.6875C105.667 32.4375 104.979 34.2292 104.312 36.0625C103.646 37.8958 103.25 39.4792 103.125 40.8125C103.083 40.9375 103.062 41.0625 103.062 41.1875C103.062 41.2708 103.062 41.3542 103.062 41.4375C103.021 41.5208 103 41.6458 103 41.8125C102.917 42.3958 102.792 42.875 102.625 43.25C102.5 43.5833 102.208 43.8125 101.75 43.9375C101.25 44.0208 100.75 44.0833 100.25 44.125C99.75 44.1667 99.2708 44.125 98.8125 44C98.5208 43.9167 98.2917 43.7708 98.125 43.5625C98 43.3125 97.8958 43.0417 97.8125 42.75C97.7708 42.4167 97.7292 42.1042 97.6875 41.8125C97.6875 41.5208 97.6875 41.2708 97.6875 41.0625C97.6875 40.8125 97.7083 40.0417 97.75 38.75C97.7917 37.4167 97.8333 35.9167 97.875 34.25C97.9167 32.5833 97.9375 30.9583 97.9375 29.375C97.9375 27.75 97.9167 26.5208 97.875 25.6875C97.7917 25.1042 97.7083 24.5625 97.625 24.0625C97.5417 23.6042 97.4375 23.1458 97.3125 22.6875C97.2292 22.2292 97.0833 21.8333 96.875 21.5C97.3333 21.25 97.7917 21.0417 98.25 20.875C98.7083 20.7083 99.125 20.5833 99.5 20.5C99.9583 20.375 100.375 20.2917 100.75 20.25C101.75 20.1667 102.521 20.1667 103.062 20.25C103.646 20.3333 103.938 20.7708 103.938 21.5625C103.938 22.2708 103.875 23.375 103.75 24.875C103.667 26.3333 103.562 28.375 103.438 31C103.896 29.9583 104.438 28.7917 105.062 27.5C105.688 26.1667 106.354 24.9375 107.062 23.8125C107.771 22.6458 108.5 21.6875 109.25 20.9375C110 20.1458 110.708 19.75 111.375 19.75C111.833 19.75 112.354 19.8542 112.938 20.0625C113.562 20.2292 114.146 20.4792 114.688 20.8125C115.229 21.1042 115.708 21.4375 116.125 21.8125C116.583 22.1875 116.896 22.5625 117.062 22.9375C117.229 23.3542 117.333 24 117.375 24.875C117.417 25.75 117.417 26.7292 117.375 27.8125C117.708 27.0208 118.083 26.25 118.5 25.5C118.917 24.75 119.333 24.0625 119.75 23.4375C120.208 22.7708 120.667 22.2083 121.125 21.75C121.583 21.2917 122 20.9792 122.375 20.8125C122.875 20.6042 123.479 20.5625 124.188 20.6875C124.896 20.8125 125.583 21.0417 126.25 21.375C126.958 21.6667 127.562 22.0208 128.062 22.4375C128.604 22.8542 128.938 23.25 129.062 23.625C129.188 24.0417 129.292 24.6875 129.375 25.5625C129.458 26.4375 129.521 27.3958 129.562 28.4375C129.604 29.4792 129.625 30.5625 129.625 31.6875C129.625 32.7708 129.604 33.7292 129.562 34.5625C129.479 36.9792 129.5 38.8958 129.625 40.3125C129.75 41.6875 130.25 42.7083 131.125 43.375C130.542 43.75 130 44.0208 129.5 44.1875C129 44.3958 128.562 44.5417 128.188 44.625C127.729 44.75 127.333 44.8125 127 44.8125C126.542 44.8125 126.167 44.6875 125.875 44.4375C125.583 44.2292 125.354 43.9375 125.188 43.5625C125.021 43.1875 124.917 42.7708 124.875 42.3125C124.833 41.8542 124.812 41.3958 124.812 40.9375C124.812 40.5208 124.833 39.8333 124.875 38.875C124.958 37.875 125.021 36.75 125.062 35.5C125.104 34.25 125.104 32.9792 125.062 31.6875C125.021 30.3542 124.917 29.1458 124.75 28.0625C124.625 26.9375 124.396 26.0208 124.062 25.3125C123.729 24.6042 123.271 24.25 122.688 24.25C122.188 24.25 121.708 24.5625 121.25 25.1875C120.792 25.7708 120.354 26.5625 119.938 27.5625C119.521 28.5208 119.146 29.6042 118.812 30.8125C118.521 31.9792 118.25 33.1458 118 34.3125C117.75 35.4792 117.562 36.5625 117.438 37.5625C117.312 38.5208 117.25 39.2917 117.25 39.875L117.188 39.3125C117.188 40.1042 117.188 40.8333 117.188 41.5C117.229 42.1667 117.271 42.8333 117.312 43.5C117.354 43.75 117.125 43.9583 116.625 44.125C116.125 44.3333 115.562 44.4167 114.938 44.375C114.354 44.375 113.812 44.25 113.312 44C112.812 43.75 112.562 43.3333 112.562 42.75C112.562 42.3333 112.562 41.7083 112.562 40.875C112.562 40.0417 112.542 39.1042 112.5 38.0625C112.5 37.0208 112.479 35.9375 112.438 34.8125C112.438 33.6458 112.417 32.5417 112.375 31.5C112.375 30.7083 112.354 29.8958 112.312 29.0625C112.312 28.2292 112.271 27.4792 112.188 26.8125C112.104 26.1042 111.938 25.5417 111.688 25.125C111.479 24.7083 111.167 24.5 110.75 24.5ZM134.75 21.875C134.75 21.625 135.083 21.3542 135.75 21.0625C136.417 20.7708 137.146 20.5417 137.938 20.375C138.771 20.1667 139.521 20.0625 140.188 20.0625C140.896 20.0208 141.25 20.1667 141.25 20.5C141.25 21.125 141.208 22.0208 141.125 23.1875C141.042 24.3125 140.938 25.5208 140.812 26.8125C140.688 28.0625 140.562 29.3333 140.438 30.625C140.312 31.875 140.229 32.9375 140.188 33.8125C140.104 34.7292 140.021 35.7292 139.938 36.8125C139.854 37.7292 139.792 38.75 139.75 39.875C139.708 41 139.708 42.1458 139.75 43.3125C139.75 43.5208 139.542 43.7292 139.125 43.9375C138.708 44.1458 138.25 44.2917 137.75 44.375C137.25 44.5 136.771 44.5625 136.312 44.5625C135.854 44.5625 135.604 44.4792 135.562 44.3125C135.479 44.1458 135.396 43.8542 135.312 43.4375C135.229 43.0208 135.146 42.4375 135.062 41.6875C134.979 40.8958 134.917 39.8958 134.875 38.6875C134.833 37.4375 134.854 35.9375 134.938 34.1875C135.104 30.7292 135.125 28.0625 135 26.1875C134.875 24.2708 134.792 22.8333 134.75 21.875ZM139.125 9.4375C139.958 9.4375 140.75 9.6875 141.5 10.1875C142.25 10.6875 142.625 11.3542 142.625 12.1875C142.625 12.8125 142.458 13.4167 142.125 14C141.833 14.5833 141.458 15.1042 141 15.5625C140.542 16.0208 140.021 16.3958 139.438 16.6875C138.854 16.9375 138.312 17.0625 137.812 17.0625C137.146 17.0625 136.604 16.9583 136.188 16.75C135.771 16.5 135.438 16.2292 135.188 15.9375C134.979 15.6042 134.833 15.25 134.75 14.875C134.667 14.5 134.625 14.1458 134.625 13.8125C134.625 13.3958 134.688 12.9375 134.812 12.4375C134.938 11.8958 135.167 11.4167 135.5 11C135.833 10.5417 136.292 10.1667 136.875 9.875C137.458 9.58333 138.208 9.4375 139.125 9.4375ZM137.562 15.25C137.812 15.25 138.083 15.1667 138.375 15C138.708 14.7917 139 14.5625 139.25 14.3125C139.542 14.0625 139.771 13.7917 139.938 13.5C140.146 13.2083 140.25 12.9583 140.25 12.75C140.25 12.4167 140.083 12.25 139.75 12.25C139.542 12.25 139.271 12.3333 138.938 12.5C138.646 12.6667 138.354 12.875 138.062 13.125C137.771 13.3333 137.521 13.5833 137.312 13.875C137.146 14.125 137.062 14.375 137.062 14.625C137.062 15.0417 137.229 15.25 137.562 15.25ZM165.875 4.3125C165.875 4.77083 165.833 5.66667 165.75 7C165.667 8.33333 165.562 9.9375 165.438 11.8125C165.312 13.6875 165.188 15.75 165.062 18C164.938 20.25 164.833 22.5417 164.75 24.875C164.667 27.2083 164.583 29.3958 164.5 31.4375C164.458 33.4375 164.438 35.2292 164.438 36.8125C164.479 38.3958 164.562 39.7292 164.688 40.8125C164.812 41.8542 165 42.5625 165.25 42.9375L162.438 44C162.229 44.0833 161.979 44.125 161.688 44.125C161.396 44.125 161.083 44.0417 160.75 43.875C160.458 43.7083 160.208 43.4167 160 43C159.792 42.5833 159.688 42 159.688 41.25C159.688 40.9583 159.688 40.6042 159.688 40.1875C159.729 39.7292 159.75 39.2083 159.75 38.625C159.25 39.4583 158.708 40.2708 158.125 41.0625C157.542 41.8542 156.896 42.5417 156.188 43.125C155.521 43.7083 154.792 44.1667 154 44.5C153.208 44.875 152.375 45.0625 151.5 45.0625C150.667 45.0625 149.854 44.875 149.062 44.5C148.271 44.1667 147.562 43.6458 146.938 42.9375C146.312 42.2292 145.792 41.3125 145.375 40.1875C145 39.0625 144.812 37.7083 144.812 36.125C144.812 33.25 145.146 30.75 145.812 28.625C146.479 26.4583 147.312 24.6667 148.312 23.25C149.354 21.7917 150.458 20.7083 151.625 20C152.833 19.25 153.938 18.875 154.938 18.875C156.479 18.875 157.667 19.2917 158.5 20.125C159.333 20.9167 159.938 21.75 160.312 22.625C160.354 21.4167 160.375 20.2917 160.375 19.25C160.417 18.1667 160.438 17.25 160.438 16.5C160.438 13.4167 160.375 10.6667 160.25 8.25C160.125 5.83333 159.812 4 159.312 2.75C159.896 2.41667 160.417 2.16667 160.875 2C161.375 1.83333 161.812 1.70833 162.188 1.625C162.646 1.5 163.042 1.4375 163.375 1.4375C164.292 1.4375 164.938 1.70833 165.312 2.25C165.688 2.75 165.875 3.4375 165.875 4.3125ZM159.938 33.3125C160.021 32.2292 160.062 31.1042 160.062 29.9375C160.104 28.7292 160.146 27.5208 160.188 26.3125C159.896 26.7708 159.542 27.1667 159.125 27.5C158.75 27.8333 158.333 27.9167 157.875 27.75C158.042 26.5 158.021 25.5417 157.812 24.875C157.646 24.2083 157.396 23.7083 157.062 23.375C156.688 23 156.25 22.7917 155.75 22.75C155 22.75 154.25 23.1667 153.5 24C152.792 24.8333 152.146 25.875 151.562 27.125C151.021 28.3333 150.583 29.6458 150.25 31.0625C149.917 32.4375 149.75 33.7083 149.75 34.875C149.75 37.2083 150.062 38.8333 150.688 39.75C151.354 40.6667 152.062 41.125 152.812 41.125C153.438 41.125 154.083 40.875 154.75 40.375C155.458 39.875 156.125 39.2292 156.75 38.4375C157.417 37.6458 158.021 36.8125 158.562 35.9375C159.146 35.0208 159.604 34.1458 159.938 33.3125ZM186.75 33.25C186.667 34.875 186.375 36.375 185.875 37.75C185.417 39.125 184.771 40.3333 183.938 41.375C183.104 42.375 182.104 43.1667 180.938 43.75C179.812 44.3333 178.562 44.6458 177.188 44.6875C175.979 44.7292 174.833 44.4375 173.75 43.8125C172.708 43.1875 171.792 42.3125 171 41.1875C170.208 40.0625 169.604 38.7292 169.188 37.1875C168.812 35.6042 168.708 33.8958 168.875 32.0625C169 29.9375 169.396 28.125 170.062 26.625C170.729 25.0833 171.438 23.8125 172.188 22.8125C172.938 21.8125 173.625 21.0833 174.25 20.625C174.917 20.125 175.333 19.8333 175.5 19.75C175.792 19.625 176.062 19.6042 176.312 19.6875C176.562 19.7292 176.833 19.7917 177.125 19.875C177.208 19.9167 177.292 20.0208 177.375 20.1875C177.542 20.4792 177.646 21.0208 177.688 21.8125C177.896 21.3542 178.167 20.9792 178.5 20.6875C178.833 20.3958 179.167 20.1875 179.5 20.0625C179.917 19.8958 180.333 19.7917 180.75 19.75C181.042 19.7083 181.542 19.9375 182.25 20.4375C183 20.9375 183.708 21.7292 184.375 22.8125C185.083 23.8958 185.688 25.3125 186.188 27.0625C186.688 28.7708 186.875 30.8333 186.75 33.25ZM182.5 32.5C182.542 31.5 182.5 30.5 182.375 29.5C182.292 28.4583 182.125 27.5208 181.875 26.6875C181.667 25.8125 181.396 25.125 181.062 24.625C180.729 24.0833 180.396 23.8125 180.062 23.8125C179.688 23.8958 179.271 24.0833 178.812 24.375C178.438 24.625 178.021 25.0208 177.562 25.5625C177.104 26.1042 176.667 26.875 176.25 27.875C176.208 27.75 176.167 27.5208 176.125 27.1875C176.083 26.8958 176.042 26.5208 176 26.0625C176 25.5625 176.042 24.8958 176.125 24.0625C175.542 24.7708 175.083 25.6042 174.75 26.5625C174.458 27.5208 174.229 28.4375 174.062 29.3125C173.896 30.3542 173.771 31.3958 173.688 32.4375C173.646 33.5625 173.688 34.6667 173.812 35.75C173.979 36.8333 174.229 37.7917 174.562 38.625C174.938 39.4583 175.375 40.125 175.875 40.625C176.375 41.125 176.979 41.3542 177.688 41.3125C178.396 41.2708 179.021 40.9792 179.562 40.4375C180.104 39.8958 180.583 39.2083 181 38.375C181.417 37.5417 181.75 36.6042 182 35.5625C182.25 34.5208 182.417 33.5 182.5 32.5ZM207.062 24.8125C207.062 25.3958 206.896 26 206.562 26.625C206.271 27.2083 205.896 27.7708 205.438 28.3125C204.979 28.8542 204.458 29.3333 203.875 29.75C203.333 30.125 202.812 30.3542 202.312 30.4375C202.646 29.1458 202.75 28.1458 202.625 27.4375C202.5 26.7292 202.292 26.2083 202 25.875C201.667 25.5 201.25 25.2917 200.75 25.25C200 25.25 199.271 25.6875 198.562 26.5625C197.896 27.3958 197.312 28.4375 196.812 29.6875C196.312 30.8958 195.917 32.2083 195.625 33.625C195.333 35 195.188 36.25 195.188 37.375C195.146 38.1667 195.167 38.9375 195.25 39.6875C195.292 40.3125 195.354 40.9583 195.438 41.625C195.562 42.2917 195.729 42.8125 195.938 43.1875C195.688 43.3958 195.271 43.6458 194.688 43.9375C194.146 44.2292 193.562 44.4167 192.938 44.5C192.354 44.5833 191.812 44.4792 191.312 44.1875C190.854 43.8958 190.604 43.2708 190.562 42.3125C190.479 41.3958 190.417 40.375 190.375 39.25C190.375 38.0833 190.375 36.9375 190.375 35.8125C190.417 34.6458 190.458 33.5 190.5 32.375C190.542 31.25 190.604 30.2083 190.688 29.25C190.771 27.4167 190.812 26 190.812 25C190.812 24 190.792 23.0417 190.75 22.125C190.75 21.9583 191.021 21.7292 191.562 21.4375C192.146 21.1042 192.771 20.8125 193.438 20.5625C194.146 20.3125 194.792 20.1667 195.375 20.125C195.958 20.0833 196.25 20.2083 196.25 20.5C196.25 20.9583 196.188 21.875 196.062 23.25C195.979 24.5833 195.854 25.9792 195.688 27.4375C195.979 26.6458 196.354 25.7917 196.812 24.875C197.312 23.9583 197.875 23.1042 198.5 22.3125C199.125 21.5208 199.833 20.875 200.625 20.375C201.417 19.8333 202.292 19.5625 203.25 19.5625C204 19.5625 204.604 19.7917 205.062 20.25C205.562 20.7083 205.958 21.2292 206.25 21.8125C206.542 22.3958 206.75 22.9792 206.875 23.5625C207 24.1458 207.062 24.5625 207.062 24.8125ZM223.188 9.4375C222.938 9.1875 222.75 8.91667 222.625 8.625C222.5 8.29167 222.396 7.95833 222.312 7.625C222.229 7.25 222.167 6.875 222.125 6.5C222.083 6.16667 222.083 5.83333 222.125 5.5C222.125 4.875 222.25 4.39583 222.5 4.0625C222.958 3.97917 223.458 3.89583 224 3.8125C224.542 3.6875 225.062 3.58333 225.562 3.5C226.146 3.41667 226.75 3.33333 227.375 3.25C227.708 2.91667 228.146 2.5625 228.688 2.1875C229.271 1.77083 229.917 1.39583 230.625 1.0625C231.167 0.8125 231.542 0.8125 231.75 1.0625C231.958 1.3125 232.104 1.83333 232.188 2.625C233.229 2.54167 234.312 2.45833 235.438 2.375C236.562 2.29167 237.729 2.25 238.938 2.25C240.562 2.20833 242.083 2.16667 243.5 2.125C244.708 2.08333 245.917 2.08333 247.125 2.125C248.375 2.125 249.333 2.14583 250 2.1875C250.333 2.22917 250.583 2.47917 250.75 2.9375C250.958 3.35417 251.021 3.91667 250.938 4.625C250.896 5.29167 250.688 6.02083 250.312 6.8125C249.938 7.60417 249.375 8.375 248.625 9.125C247.625 8.91667 246.562 8.75 245.438 8.625C244.354 8.5 243.354 8.39583 242.438 8.3125C241.354 8.22917 240.312 8.20833 239.312 8.25C238.104 8.25 236.896 8.29167 235.688 8.375C234.479 8.41667 233.333 8.47917 232.25 8.5625C232.208 10.4375 232.167 12.625 232.125 15.125C232.125 17.5833 232.104 20.3125 232.062 23.3125C232.646 23.2292 233.208 23.1875 233.75 23.1875C234.292 23.1458 234.854 23.1042 235.438 23.0625C236.938 22.9792 238.396 22.8958 239.812 22.8125C241.229 22.7292 242.458 22.7708 243.5 22.9375C244.583 23.0625 245.396 23.375 245.938 23.875C246.479 24.375 246.604 25.1667 246.312 26.25L245.438 29.25C245.354 29.0417 245.125 28.875 244.75 28.75C244.417 28.5833 244.021 28.4583 243.562 28.375C243.062 28.25 242.5 28.1458 241.875 28.0625C240.417 27.8958 238.812 27.875 237.062 28C235.312 28.125 233.625 28.3125 232 28.5625C232 30.6458 232.021 32.625 232.062 34.5C232.146 36.3333 232.229 38 232.312 39.5C232.438 41 232.542 42.2917 232.625 43.375C232.708 44.4583 232.771 45.2708 232.812 45.8125C232.854 46.1875 232.812 46.4792 232.688 46.6875C232.479 46.9375 232.229 47.2292 231.938 47.5625C231.646 47.8958 231.271 48.2292 230.812 48.5625C230.354 48.8958 229.792 49.1667 229.125 49.375C228.5 49.625 227.771 49.7708 226.938 49.8125C226.562 49.8125 226.375 49.625 226.375 49.25V29.875C225.667 29.8333 225.021 29.2917 224.438 28.25C223.854 27.2083 223.583 26.0417 223.625 24.75C223.917 24.6667 224.208 24.6042 224.5 24.5625C224.833 24.5208 225.146 24.4583 225.438 24.375C225.771 24.2917 226.083 24.2292 226.375 24.1875C226.375 21.1875 226.396 18.3958 226.438 15.8125C226.479 13.1875 226.542 10.9375 226.625 9.0625C226.25 9.10417 225.854 9.14583 225.438 9.1875C225.104 9.22917 224.729 9.27083 224.312 9.3125C223.896 9.35417 223.521 9.39583 223.188 9.4375ZM258.125 44.6875C255.208 44.6875 252.958 43.7083 251.375 41.75C249.792 39.7917 249 37.2292 249 34.0625C249 31.8542 249.312 29.7917 249.938 27.875C250.604 25.9167 251.479 24.2292 252.562 22.8125C253.646 21.3958 254.896 20.2917 256.312 19.5C257.771 18.6667 259.292 18.25 260.875 18.25C262.417 18.25 263.729 18.8125 264.812 19.9375C265.896 21.0208 266.438 22.5833 266.438 24.625C266.438 25.9583 266.146 27.2917 265.562 28.625C264.979 29.9167 264.208 31.0833 263.25 32.125C262.333 33.125 261.312 33.9375 260.188 34.5625C259.062 35.1875 257.979 35.5 256.938 35.5C256.271 35.5 255.708 35.4167 255.25 35.25C254.792 35.0833 254.375 34.8333 254 34.5C254.125 36.875 254.646 38.5417 255.562 39.5C256.479 40.4167 257.667 40.875 259.125 40.875C260.125 40.875 261 40.6667 261.75 40.25C262.542 39.8333 263.208 39.3542 263.75 38.8125C264.292 38.2708 264.729 37.7292 265.062 37.1875C265.396 36.6042 265.625 36.1667 265.75 35.875C265.875 35.625 266.083 35.5 266.375 35.5C266.708 35.5 266.875 35.75 266.875 36.25C266.875 36.7083 266.708 37.4167 266.375 38.375C266.083 39.2917 265.583 40.2292 264.875 41.1875C264.167 42.1042 263.25 42.9167 262.125 43.625C261.042 44.3333 259.708 44.6875 258.125 44.6875ZM261 20.9375C260.75 20.9375 260.271 21.2083 259.562 21.75C258.896 22.25 258.167 23 257.375 24C256.625 25 255.917 26.2083 255.25 27.625C254.625 29 254.229 30.5625 254.062 32.3125C256.562 31.7292 258.542 30.8125 260 29.5625C261.458 28.3125 262.188 26.4792 262.188 24.0625C262.188 22.8542 262.042 22.0417 261.75 21.625C261.458 21.1667 261.208 20.9375 261 20.9375ZM278.625 3.5C278.542 5 278.396 6.72917 278.188 8.6875C277.979 10.6458 277.75 12.75 277.5 15C277.292 17.25 277.062 19.6042 276.812 22.0625C276.604 24.5208 276.417 27 276.25 29.5C276.083 32 276 34.0417 276 35.625C276.042 37.1667 276.146 38.4375 276.312 39.4375C276.479 40.4375 276.708 41.2292 277 41.8125C277.292 42.3958 277.667 42.9583 278.125 43.5C277.583 43.8333 277.083 44.0833 276.625 44.25C276.167 44.4167 275.771 44.5417 275.438 44.625C275.021 44.75 274.646 44.8125 274.312 44.8125C273.688 44.8125 273.146 44.5208 272.688 43.9375C272.229 43.3125 271.854 42.5208 271.562 41.5625C271.312 40.6042 271.104 39.5417 270.938 38.375C270.812 37.1667 270.75 35.9792 270.75 34.8125C270.75 33.5625 270.792 32.125 270.875 30.5C270.958 28.8333 271.042 27.0833 271.125 25.25C271.25 23.375 271.375 21.4375 271.5 19.4375C271.625 17.3958 271.729 15.375 271.812 13.375C271.896 11.8333 271.979 10.4375 272.062 9.1875C272.146 8.10417 272.208 7.125 272.25 6.25C272.292 5.33333 272.271 4.79167 272.188 4.625C272.438 4.29167 272.75 4.04167 273.125 3.875C273.5 3.70833 273.854 3.5625 274.188 3.4375C274.604 3.3125 275.021 3.20833 275.438 3.125H276.625C276.958 3.125 277.312 3.16667 277.688 3.25C278.062 3.29167 278.375 3.375 278.625 3.5ZM281.938 21.875C281.938 21.625 282.271 21.3542 282.938 21.0625C283.604 20.7708 284.333 20.5417 285.125 20.375C285.958 20.1667 286.708 20.0625 287.375 20.0625C288.083 20.0208 288.438 20.1667 288.438 20.5C288.438 21.125 288.396 22.0208 288.312 23.1875C288.229 24.3125 288.125 25.5208 288 26.8125C287.875 28.0625 287.75 29.3333 287.625 30.625C287.5 31.875 287.417 32.9375 287.375 33.8125C287.292 34.7292 287.208 35.7292 287.125 36.8125C287.042 37.7292 286.979 38.75 286.938 39.875C286.896 41 286.896 42.1458 286.938 43.3125C286.938 43.5208 286.729 43.7292 286.312 43.9375C285.896 44.1458 285.438 44.2917 284.938 44.375C284.438 44.5 283.958 44.5625 283.5 44.5625C283.042 44.5625 282.792 44.4792 282.75 44.3125C282.667 44.1458 282.583 43.8542 282.5 43.4375C282.417 43.0208 282.333 42.4375 282.25 41.6875C282.167 40.8958 282.104 39.8958 282.062 38.6875C282.021 37.4375 282.042 35.9375 282.125 34.1875C282.292 30.7292 282.312 28.0625 282.188 26.1875C282.062 24.2708 281.979 22.8333 281.938 21.875ZM286.312 9.4375C287.146 9.4375 287.938 9.6875 288.688 10.1875C289.438 10.6875 289.812 11.3542 289.812 12.1875C289.812 12.8125 289.646 13.4167 289.312 14C289.021 14.5833 288.646 15.1042 288.188 15.5625C287.729 16.0208 287.208 16.3958 286.625 16.6875C286.042 16.9375 285.5 17.0625 285 17.0625C284.333 17.0625 283.792 16.9583 283.375 16.75C282.958 16.5 282.625 16.2292 282.375 15.9375C282.167 15.6042 282.021 15.25 281.938 14.875C281.854 14.5 281.812 14.1458 281.812 13.8125C281.812 13.3958 281.875 12.9375 282 12.4375C282.125 11.8958 282.354 11.4167 282.688 11C283.021 10.5417 283.479 10.1667 284.062 9.875C284.646 9.58333 285.396 9.4375 286.312 9.4375ZM284.75 15.25C285 15.25 285.271 15.1667 285.562 15C285.896 14.7917 286.188 14.5625 286.438 14.3125C286.729 14.0625 286.958 13.7917 287.125 13.5C287.333 13.2083 287.438 12.9583 287.438 12.75C287.438 12.4167 287.271 12.25 286.938 12.25C286.729 12.25 286.458 12.3333 286.125 12.5C285.833 12.6667 285.542 12.875 285.25 13.125C284.958 13.3333 284.708 13.5833 284.5 13.875C284.333 14.125 284.25 14.375 284.25 14.625C284.25 15.0417 284.417 15.25 284.75 15.25ZM310.562 20.5625C310.562 21.0625 310.562 21.5417 310.562 22C310.562 22.4167 310.5 22.8333 310.375 23.25C310.25 23.6667 310.062 24.125 309.812 24.625C309.562 25.125 309.188 25.6875 308.688 26.3125C308.104 27.0625 307.292 28.0625 306.25 29.3125C305.25 30.5625 304.188 31.8958 303.062 33.3125C301.979 34.7292 300.958 36.125 300 37.5C299.042 38.8333 298.312 39.9792 297.812 40.9375C298.312 40.5625 299 40.1875 299.875 39.8125C300.792 39.3958 301.917 39.1458 303.25 39.0625C304 39.0208 304.75 39.0417 305.5 39.125C306.167 39.2083 306.854 39.3333 307.562 39.5C308.312 39.625 309 39.8542 309.625 40.1875C309.833 40.6458 309.938 41.1458 309.938 41.6875C309.979 42.2292 309.979 42.75 309.938 43.25C309.896 43.8333 309.812 44.4167 309.688 45C309.021 44.7917 308.312 44.625 307.562 44.5C306.854 44.375 306.167 44.2708 305.5 44.1875C304.75 44.1042 304 44.0625 303.25 44.0625C302.458 44.0625 301.667 44.125 300.875 44.25C300.167 44.3333 299.396 44.5 298.562 44.75C297.771 45 296.979 45.3333 296.188 45.75C295.938 45.75 295.667 45.6667 295.375 45.5C295.125 45.375 294.896 45.2083 294.688 45C294.438 44.7917 294.167 44.5625 293.875 44.3125C293.708 44.1042 293.542 43.8958 293.375 43.6875C293.083 43.2708 292.938 42.8125 292.938 42.3125C293.604 40.9792 294.229 39.8333 294.812 38.875C295.438 37.875 295.979 37.0208 296.438 36.3125C296.979 35.5208 297.479 34.8125 297.938 34.1875C299.229 32.5208 300.542 30.7708 301.875 28.9375C303.25 27.0625 304.292 25.4375 305 24.0625C304.625 23.8958 304.104 23.75 303.438 23.625C302.812 23.5 302.021 23.4583 301.062 23.5C299.479 23.5417 297.896 23.7917 296.312 24.25C294.771 24.6667 293.708 25.375 293.125 26.375C292.708 25.9583 292.375 25.2292 292.125 24.1875C291.917 23.1042 291.979 22.0208 292.312 20.9375C293.021 20.6042 293.812 20.3333 294.688 20.125C295.604 19.875 296.438 19.7083 297.188 19.625C298.062 19.5 298.958 19.4375 299.875 19.4375C300.875 19.4375 301.958 19.4792 303.125 19.5625C304.083 19.6458 305.208 19.7708 306.5 19.9375C307.792 20.0625 309.146 20.2708 310.562 20.5625Z" fill="#333333"/>
</svg>
