<svg width="108" height="49" viewBox="0 0 108 49" fill="none" xmlns="http://www.w3.org/2000/svg">
<path d="M35.0625 48.3125C33.8125 48.2708 32.9583 47.875 32.5 47.125C32.0417 46.4167 31.7708 45.4167 31.6875 44.125C31.6042 42.8333 31.6458 41.3125 31.8125 39.5625C31.9792 37.7708 32.0625 35.8333 32.0625 33.75C32.1042 29.625 32.25 25.875 32.5 22.5C32.7917 19.0833 32.875 15.7708 32.75 12.5625C32.75 12.3125 32.75 12.0833 32.75 11.875C32.75 11.6667 32.7292 11.4583 32.6875 11.25C32.4792 11.9583 32.2292 12.7708 31.9375 13.6875C31.6875 14.5625 31.375 15.5417 31 16.625C30.25 18.9583 29.5 21.3542 28.75 23.8125C28.0417 26.2708 27.3333 28.6667 26.625 31C25.9583 33.2917 25.3125 35.4375 24.6875 37.4375C24.1042 39.3958 23.5833 41.0417 23.125 42.375C22.6667 43.7083 22.2083 44.6875 21.75 45.3125C21.3333 45.9792 20.8958 46.4375 20.4375 46.6875C20.0208 46.9375 19.5833 47.0417 19.125 47C18.7083 46.9583 18.2917 46.9167 17.875 46.875C17.7083 45.4583 17.3958 43.7917 16.9375 41.875C16.4792 39.9583 16 38.125 15.5 36.375C14.9167 34.3333 14.2708 32.25 13.5625 30.125C12.6042 26.4583 11.6042 23.1042 10.5625 20.0625C9.52083 17.0208 8.70833 14.5208 8.125 12.5625C7.875 14.6875 7.6875 17.125 7.5625 19.875C7.4375 22.625 7.35417 25.375 7.3125 28.125C7.27083 30.875 7.29167 33.4792 7.375 35.9375C7.45833 38.3542 7.58333 40.3125 7.75 41.8125C7.79167 42.4375 7.875 43.0625 8 43.6875C8.08333 44.2292 8.1875 44.7708 8.3125 45.3125C8.47917 45.8958 8.66667 46.4167 8.875 46.875C8.66667 47.0417 8.41667 47.1875 8.125 47.3125C7.83333 47.4375 7.52083 47.5417 7.1875 47.625C6.8125 47.75 6.41667 47.8542 6 47.9375C4.375 48.2708 3.1875 48.2292 2.4375 47.8125C1.72917 47.3958 1.29167 46.5625 1.125 45.3125C1.04167 44.6875 0.979167 43.5208 0.9375 41.8125C0.895833 40.1042 0.875 38.1458 0.875 35.9375C0.916667 33.6875 0.979167 31.3333 1.0625 28.875C1.14583 26.4167 1.27083 24.125 1.4375 22C1.60417 20.2917 1.77083 18.4375 1.9375 16.4375C2.10417 14.6875 2.27083 12.6667 2.4375 10.375C2.60417 8.08333 2.79167 5.60417 3 2.9375C3.125 2.6875 3.33333 2.47917 3.625 2.3125C3.91667 2.10417 4.22917 1.9375 4.5625 1.8125C4.9375 1.64583 5.35417 1.52083 5.8125 1.4375C6.52083 1.3125 7.14583 1.20833 7.6875 1.125C8.14583 1.04167 8.5625 0.979167 8.9375 0.9375C9.35417 0.895833 9.52083 0.895833 9.4375 0.9375C9.97917 2.0625 10.3958 3 10.6875 3.75C10.9792 4.45833 11.2708 5.3125 11.5625 6.3125C11.8958 7.3125 12.2917 8.625 12.75 10.25C13.25 11.875 13.9583 14.1458 14.875 17.0625C16.125 21.1042 17.1875 24.625 18.0625 27.625C18.9792 30.625 19.6667 32.9167 20.125 34.5C20.4167 33.9583 20.7083 33.375 21 32.75C21.2917 32.0833 21.5833 31.2917 21.875 30.375C22.2083 29.4583 22.5417 28.3958 22.875 27.1875C23.25 25.9375 23.6667 24.4583 24.125 22.75C24.7083 20.875 25.3125 18.8542 25.9375 16.6875C26.4375 14.8542 26.9792 12.7708 27.5625 10.4375C28.1875 8.0625 28.7708 5.60417 29.3125 3.0625C30.6458 2.52083 31.7292 2.125 32.5625 1.875C33.3958 1.58333 34.0417 1.35417 34.5 1.1875C35.0417 1.02083 35.4375 0.916667 35.6875 0.875C35.9375 0.916667 36.1875 1.04167 36.4375 1.25C36.6458 1.45833 36.8958 1.75 37.1875 2.125C37.4792 2.5 37.7917 3.0625 38.125 3.8125C38.125 4.39583 38.125 5.33333 38.125 6.625C38.125 7.91667 38.125 9.41667 38.125 11.125C38.125 12.7917 38.1042 14.6042 38.0625 16.5625C38.0208 18.5208 37.9792 20.5 37.9375 22.5C37.9375 24.4583 37.9167 26.375 37.875 28.25C37.875 30.125 37.8542 31.7917 37.8125 33.25C37.7292 35.4583 37.7083 37.3333 37.75 38.875C37.8333 40.4167 37.9583 41.7083 38.125 42.75C38.3333 43.75 38.5833 44.5625 38.875 45.1875C39.2083 45.8125 39.6042 46.3125 40.0625 46.6875C39.9375 46.7708 39.6875 46.8958 39.3125 47.0625C38.9792 47.2708 38.5625 47.4583 38.0625 47.625C37.5625 47.8333 37.0417 48 36.5 48.125C35.9583 48.25 35.4792 48.3125 35.0625 48.3125ZM52.3125 43.6875C49.3958 43.6875 47.1458 42.7083 45.5625 40.75C43.9792 38.7917 43.1875 36.2292 43.1875 33.0625C43.1875 30.8542 43.5 28.7917 44.125 26.875C44.7917 24.9167 45.6667 23.2292 46.75 21.8125C47.8333 20.3958 49.0833 19.2917 50.5 18.5C51.9583 17.6667 53.4792 17.25 55.0625 17.25C56.6042 17.25 57.9167 17.8125 59 18.9375C60.0833 20.0208 60.625 21.5833 60.625 23.625C60.625 24.9583 60.3333 26.2917 59.75 27.625C59.1667 28.9167 58.3958 30.0833 57.4375 31.125C56.5208 32.125 55.5 32.9375 54.375 33.5625C53.25 34.1875 52.1667 34.5 51.125 34.5C50.4583 34.5 49.8958 34.4167 49.4375 34.25C48.9792 34.0833 48.5625 33.8333 48.1875 33.5C48.3125 35.875 48.8333 37.5417 49.75 38.5C50.6667 39.4167 51.8542 39.875 53.3125 39.875C54.3125 39.875 55.1875 39.6667 55.9375 39.25C56.7292 38.8333 57.3958 38.3542 57.9375 37.8125C58.4792 37.2708 58.9167 36.7292 59.25 36.1875C59.5833 35.6042 59.8125 35.1667 59.9375 34.875C60.0625 34.625 60.2708 34.5 60.5625 34.5C60.8958 34.5 61.0625 34.75 61.0625 35.25C61.0625 35.7083 60.8958 36.4167 60.5625 37.375C60.2708 38.2917 59.7708 39.2292 59.0625 40.1875C58.3542 41.1042 57.4375 41.9167 56.3125 42.625C55.2292 43.3333 53.8958 43.6875 52.3125 43.6875ZM55.1875 19.9375C54.9375 19.9375 54.4583 20.2083 53.75 20.75C53.0833 21.25 52.3542 22 51.5625 23C50.8125 24 50.1042 25.2083 49.4375 26.625C48.8125 28 48.4167 29.5625 48.25 31.3125C50.75 30.7292 52.7292 29.8125 54.1875 28.5625C55.6458 27.3125 56.375 25.4792 56.375 23.0625C56.375 21.8542 56.2292 21.0417 55.9375 20.625C55.6458 20.1667 55.3958 19.9375 55.1875 19.9375ZM71.1875 41.3125C71.1458 41.5625 70.9167 41.8333 70.5 42.125C70.125 42.375 69.6667 42.6042 69.125 42.8125C68.625 43.0208 68.1458 43.1458 67.6875 43.1875C67.2292 43.2708 66.9167 43.2292 66.75 43.0625C66.5833 42.8958 66.3125 42.5833 65.9375 42.125C65.5625 41.6667 65.3333 40.9167 65.25 39.875C65.1667 38.7917 65.125 37.4375 65.125 35.8125C65.125 34.1458 65.1042 32.3125 65.0625 30.3125V27.8125C65.0625 27.0625 65.0417 26.1875 65 25.1875C65 24.1875 64.9792 23.1458 64.9375 22.0625C65.3125 21.8542 65.6875 21.6667 66.0625 21.5C66.4792 21.2917 66.8542 21.125 67.1875 21C67.5625 20.8333 67.9167 20.7083 68.25 20.625C69.125 20.375 69.7917 20.2292 70.25 20.1875C70.7083 20.1458 70.9792 20.2917 71.0625 20.625C71.1042 20.875 71.0833 21.4792 71 22.4375C70.9167 23.2708 70.8125 24.5417 70.6875 26.25C70.5625 27.9167 70.3542 30.25 70.0625 33.25C70.6042 31.9167 71.0417 30.7708 71.375 29.8125C71.75 28.8542 72.0625 28.0833 72.3125 27.5C72.5625 26.7917 72.7917 26.2292 73 25.8125C73.2083 25.2708 73.4792 24.6667 73.8125 24C74.1458 23.3333 74.4792 22.7083 74.8125 22.125C75.1875 21.5417 75.5208 21.0208 75.8125 20.5625C76.1458 20.1042 76.3958 19.8333 76.5625 19.75C76.6875 19.6667 77.0625 19.6667 77.6875 19.75C78.3125 19.8333 78.9792 20.0417 79.6875 20.375C80.3958 20.6667 81.0833 21.1042 81.75 21.6875C82.4167 22.2292 82.8542 22.8958 83.0625 23.6875C83.3125 24.6042 83.3958 25.8125 83.3125 27.3125C83.2708 28.8125 83.1667 30.3542 83 31.9375C82.875 33.5208 82.7708 35.0208 82.6875 36.4375C82.6042 37.8542 82.6875 38.9375 82.9375 39.6875C83.0208 40.1042 83.1458 40.4792 83.3125 40.8125C83.3958 41.1458 83.5 41.4583 83.625 41.75C83.7917 42 83.9583 42.1875 84.125 42.3125C83.125 42.7708 82.3125 43.1042 81.6875 43.3125C81.0625 43.5208 80.5833 43.6667 80.25 43.75C79.8333 43.875 79.5417 43.9167 79.375 43.875C79 43.75 78.6667 43.4375 78.375 42.9375C78.125 42.4375 77.8958 41.6458 77.6875 40.5625C77.6042 40.2292 77.5625 39.6875 77.5625 38.9375C77.6042 38.1458 77.6667 37.2708 77.75 36.3125C77.8333 35.3125 77.9167 34.2917 78 33.25C78.125 32.1667 78.2083 31.1667 78.25 30.25C78.3333 29.2917 78.3958 28.4792 78.4375 27.8125C78.4792 27.1042 78.4792 26.625 78.4375 26.375C78.2292 25.625 77.9375 25.1042 77.5625 24.8125C77.1875 24.4792 76.8958 24.4375 76.6875 24.6875C76.1458 25.3125 75.5625 26.3333 74.9375 27.75C74.3542 29.125 73.7917 30.6458 73.25 32.3125C72.7083 33.9375 72.25 35.5625 71.875 37.1875C71.5 38.8125 71.2708 40.1875 71.1875 41.3125ZM101.938 19.75C101.938 19.2917 102.208 18.9583 102.75 18.75C103.333 18.5 103.938 18.375 104.562 18.375C105.229 18.375 105.833 18.5 106.375 18.75C106.917 18.9583 107.167 19.25 107.125 19.625C107.083 19.9167 107.042 20.5 107 21.375C106.958 22.2083 106.896 23.2083 106.812 24.375C106.771 25.5417 106.708 26.7917 106.625 28.125C106.542 29.4583 106.458 30.7708 106.375 32.0625C106.333 33.3125 106.292 34.4792 106.25 35.5625C106.25 36.6458 106.25 37.4792 106.25 38.0625C106.25 38.8125 106.292 39.5 106.375 40.125C106.458 40.6667 106.562 41.2083 106.688 41.75C106.812 42.25 107 42.6042 107.25 42.8125C106.917 42.9375 106.562 43.0208 106.188 43.0625C105.854 43.1042 105.542 43.1458 105.25 43.1875C104.917 43.2292 104.583 43.25 104.25 43.25C103.542 43.25 102.938 43.1042 102.438 42.8125C101.979 42.5208 101.75 41.9167 101.75 41C101.75 40.5417 101.771 39.875 101.812 39C101.896 38.125 101.979 37.1875 102.062 36.1875C101.771 37.0625 101.417 37.9583 101 38.875C100.583 39.7917 100.062 40.6042 99.4375 41.3125C98.8542 42.0208 98.1875 42.6042 97.4375 43.0625C96.6875 43.5208 95.8333 43.75 94.875 43.75C93.7917 43.75 92.7917 43.5208 91.875 43.0625C91 42.6042 90.2292 41.9583 89.5625 41.125C88.8958 40.25 88.3958 39.1875 88.0625 37.9375C87.7292 36.6875 87.6042 35.25 87.6875 33.625C87.6875 32.375 87.7083 31.0417 87.75 29.625C87.7917 28.4167 87.8542 27.0208 87.9375 25.4375C88.0208 23.8542 88.1667 22.2083 88.375 20.5C88.4167 20.3333 88.7083 20.125 89.25 19.875C89.7917 19.625 90.3958 19.4167 91.0625 19.25C91.7292 19.0833 92.375 19.0208 93 19.0625C93.625 19.1042 94.0833 19.3542 94.375 19.8125C94.1667 20.5625 93.9583 21.4583 93.75 22.5C93.5417 23.5 93.3542 24.5417 93.1875 25.625C93.0208 26.7083 92.8958 27.7708 92.8125 28.8125C92.7292 29.8542 92.6875 30.8125 92.6875 31.6875C92.6875 32.4792 92.7292 33.3542 92.8125 34.3125C92.8958 35.2292 93.0417 36.1042 93.25 36.9375C93.5 37.7292 93.8333 38.3958 94.25 38.9375C94.7083 39.4792 95.2917 39.75 96 39.75C96.7917 39.75 97.4792 39.4167 98.0625 38.75C98.6875 38.0417 99.2083 37.1458 99.625 36.0625C100.042 34.9792 100.396 33.75 100.688 32.375C100.979 30.9583 101.208 29.5625 101.375 28.1875C101.583 26.8125 101.708 25.5 101.75 24.25C101.833 22.9583 101.896 21.875 101.938 21V19.75Z" fill="#333333"/>
</svg>
