<svg width="213" height="46" viewBox="0 0 213 46" fill="none" xmlns="http://www.w3.org/2000/svg">
<path d="M1.78125 6.98438C1.59375 6.79688 1.4375 6.57812 1.3125 6.32812C1.21875 6.07812 1.14062 5.84375 1.07812 5.625C0.984375 5.375 0.9375 5.10938 0.9375 4.82812C0.90625 4.57812 0.90625 4.32813 0.9375 4.07812C0.96875 3.89062 1 3.70312 1.03125 3.51562C1.0625 3.29688 1.14062 3.14062 1.26562 3.04688C1.51562 2.98437 1.79688 2.9375 2.10938 2.90625C2.45312 2.84375 2.76562 2.78125 3.04688 2.71875C3.39062 2.65625 3.73438 2.59375 4.07812 2.53125C4.20312 2.34375 4.45312 2.15625 4.82812 1.96875C5.23438 1.75 5.65625 1.5625 6.09375 1.40625C6.5625 1.25 7 1.14063 7.40625 1.07812C7.8125 0.984375 8.09375 0.984375 8.25 1.07812V2.0625C9.0625 1.96875 9.90625 1.89063 10.7812 1.82812C11.6562 1.73438 12.5938 1.6875 13.5938 1.6875C14.8125 1.65625 15.9531 1.625 17.0156 1.59375C17.9219 1.5625 18.8281 1.5625 19.7344 1.59375C20.6719 1.59375 21.3906 1.60938 21.8906 1.64062C22.1406 1.67187 22.3281 1.85937 22.4531 2.20312C22.6094 2.51562 22.6562 2.92188 22.5938 3.42188C22.5625 3.92187 22.4062 4.46875 22.125 5.0625C21.8438 5.65625 21.4062 6.21875 20.8125 6.75C20.0625 6.59375 19.2812 6.46875 18.4688 6.375C17.6562 6.28125 16.9062 6.20312 16.2188 6.14062C15.4062 6.07812 14.625 6.0625 13.875 6.09375C12.9062 6.09375 11.9531 6.125 11.0156 6.1875C10.0781 6.21875 9.17188 6.26562 8.29688 6.32812C8.32812 7.85938 8.34375 9.60938 8.34375 11.5781C8.375 13.5156 8.40625 15.4844 8.4375 17.4844C8.84375 17.4531 9.25 17.4219 9.65625 17.3906C10.0625 17.3594 10.4844 17.3281 10.9219 17.2969C12.0469 17.2344 13.1406 17.1719 14.2031 17.1094C15.2969 17.0469 16.2344 17.0781 17.0156 17.2031C17.8281 17.2969 18.4375 17.5312 18.8438 17.9062C19.25 18.2812 19.3438 18.875 19.125 19.6875L18.4688 21.9375C18.4062 21.7812 18.2344 21.6562 17.9531 21.5625C17.7031 21.4375 17.4062 21.3438 17.0625 21.2812C16.6875 21.1875 16.2656 21.1094 15.7969 21.0469C14.7031 20.9219 13.5 20.9062 12.1875 21C10.875 21.0938 9.625 21.2344 8.4375 21.4219V21.4688C8.46875 24.2188 8.45312 26.5 8.39062 28.3125C8.35938 30.125 8.3125 31.5312 8.25 32.5312C8.65625 32.4688 9.04688 32.4219 9.42188 32.3906C9.82812 32.3594 10.25 32.3125 10.6875 32.25C11.8125 32.1562 12.9844 32.0938 14.2031 32.0625C15.2344 32.0312 16.375 32.0312 17.625 32.0625C18.9062 32.0625 20.1406 32.1406 21.3281 32.2969C21.5156 32.6094 21.5781 33.0156 21.5156 33.5156C21.4531 34.0156 21.3438 34.5 21.1875 34.9688C21 35.5312 20.7656 36.125 20.4844 36.75C19.0781 36.5938 17.7188 36.4844 16.4062 36.4219C15.0938 36.3594 13.9219 36.3125 12.8906 36.2812C11.6719 36.25 10.5312 36.25 9.46875 36.2812C7.53125 36.2188 6 36.3125 4.875 36.5625C3.75 36.8438 2.95312 37.0469 2.48438 37.1719C2.17188 37.2656 1.9375 37.2188 1.78125 37.0312C1.625 36.8438 1.45312 36.5312 1.26562 36.0938C1.07812 35.6875 1.01562 35.1094 1.07812 34.3594C1.07812 34.2969 1.09375 34.2031 1.125 34.0781C1.15625 33.9844 1.25 33.9062 1.40625 33.8438C1.59375 33.7812 1.89062 33.7031 2.29688 33.6094C2.70312 33.5156 3.20312 33.4062 3.79688 33.2812C3.85938 32 3.90625 30.375 3.9375 28.4062C3.96875 26.4375 4.01562 24.4375 4.07812 22.4062C3.54688 22.3125 3.07812 21.8906 2.67188 21.1406C2.26562 20.3594 2.07812 19.5 2.10938 18.5625C2.29688 18.5 2.5 18.4531 2.71875 18.4219C2.96875 18.3906 3.20312 18.3438 3.42188 18.2812C3.67188 18.2188 3.92188 18.1719 4.17188 18.1406C4.20312 17.3281 4.21875 16.5938 4.21875 15.9375C4.21875 15.2812 4.23438 14.7031 4.26562 14.2031C4.32812 12.8906 4.34375 11.5938 4.3125 10.3125C4.28125 9 4.25 7.79688 4.21875 6.70312C3.9375 6.73438 3.64062 6.76562 3.32812 6.79688C3.07812 6.82812 2.8125 6.85938 2.53125 6.89062C2.25 6.92188 2 6.95312 1.78125 6.98438ZM31.0312 24.0938C31.7188 24.3438 32.375 24.5781 33 24.7969C33.625 25.0156 34.1719 25.2812 34.6406 25.5938C35.1094 25.9062 35.4844 26.2812 35.7656 26.7188C36.0469 27.125 36.1875 27.6406 36.1875 28.2656C36.1875 29.0156 36.0156 29.7188 35.6719 30.375C35.3594 31.0312 34.8906 31.6094 34.2656 32.1094C33.6406 32.6094 32.875 33 31.9688 33.2812C31.0938 33.5938 30.1094 33.75 29.0156 33.75C27.7969 33.75 26.8125 33.625 26.0625 33.375C25.3125 33.1562 24.7344 32.8906 24.3281 32.5781C23.9219 32.2656 23.6562 31.9531 23.5312 31.6406C23.4062 31.3281 23.3438 31.0781 23.3438 30.8906C23.3438 30.5156 23.4219 30.1094 23.5781 29.6719C23.7344 29.2031 24.0312 28.7031 24.4688 28.1719C24.6562 27.9531 24.8594 27.75 25.0781 27.5625C25.5156 27.1875 25.9531 26.9531 26.3906 26.8594C26.3281 27.5781 26.4062 28.1719 26.625 28.6406C26.875 29.0781 27.1875 29.4219 27.5625 29.6719C27.9688 29.9219 28.4062 30.0938 28.875 30.1875C29.375 30.2812 29.8438 30.3281 30.2812 30.3281C30.7188 30.3281 31.1562 30.2656 31.5938 30.1406C32.0625 30.0156 32.4844 29.8594 32.8594 29.6719C33.2344 29.4531 33.5312 29.2188 33.75 28.9688C34 28.6875 34.125 28.3906 34.125 28.0781C34.125 27.7344 33.9844 27.4531 33.7031 27.2344C33.4219 27.0156 33.0625 26.8438 32.625 26.7188C32.2188 26.5625 31.7656 26.4531 31.2656 26.3906C30.7969 26.2969 30.3438 26.2031 29.9062 26.1094C29.4688 26.0156 28.875 25.8906 28.125 25.7344C27.4062 25.5469 26.6875 25.2656 25.9688 24.8906C25.2812 24.5156 24.6719 24.0156 24.1406 23.3906C23.6406 22.7656 23.3906 21.9375 23.3906 20.9062C23.3906 19.7188 23.6875 18.6875 24.2812 17.8125C24.9062 16.9062 25.6562 16.1562 26.5312 15.5625C27.4375 14.9375 28.3906 14.4688 29.3906 14.1562C30.3906 13.8438 31.2812 13.6875 32.0625 13.6875C32.4688 13.6875 32.9062 13.75 33.375 13.875C33.8438 13.9688 34.2812 14.1562 34.6875 14.4375C35.0938 14.6875 35.4219 15.0312 35.6719 15.4688C35.9531 15.9062 36.0938 16.4688 36.0938 17.1562C36.0938 17.8438 36.0312 18.4062 35.9062 18.8438C35.8125 19.25 35.6562 19.5781 35.4375 19.8281C35.25 20.0469 35.0156 20.1875 34.7344 20.25C34.4531 20.3125 34.125 20.3438 33.75 20.3438C33.5 20.3438 33.2656 20.3125 33.0469 20.25C32.8594 20.1875 32.6562 20.125 32.4375 20.0625C32.2188 20 32.0156 19.8906 31.8281 19.7344C32.1406 19.3594 32.375 19 32.5312 18.6562C32.7188 18.3125 32.8125 17.8906 32.8125 17.3906C32.8125 16.9531 32.6875 16.5625 32.4375 16.2188C32.2188 15.875 31.8438 15.7031 31.3125 15.7031C30.75 15.7031 30.2031 15.8125 29.6719 16.0312C29.1719 16.25 28.7188 16.5469 28.3125 16.9219C27.9375 17.2969 27.625 17.7344 27.375 18.2344C27.1562 18.7031 27.0469 19.2188 27.0469 19.7812C27.0469 20.625 27.3594 21.4219 27.9844 22.1719C28.6406 22.9219 29.6562 23.5625 31.0312 24.0938ZM48.0469 14.4375C48.9219 14.4375 49.7344 14.6875 50.4844 15.1875C51.2344 15.6875 51.875 16.3438 52.4062 17.1562C52.9375 17.9688 53.3594 18.9062 53.6719 19.9688C53.9844 21 54.1406 22.0781 54.1406 23.2031C54.1406 24.3281 54.0156 25.5156 53.7656 26.7656C53.5156 28.0156 53.125 29.1719 52.5938 30.2344C52.0625 31.2969 51.375 32.1875 50.5312 32.9062C49.6875 33.5938 48.6562 33.9375 47.4375 33.9375C46.4688 33.9375 45.5469 33.5938 44.6719 32.9062C43.8281 32.1875 43.1719 31.2969 42.7031 30.2344C42.6406 31.3281 42.5 32.4375 42.2812 33.5625C42.0625 34.7188 41.9531 36.0938 41.9531 37.6875C41.9531 38.1562 41.9688 38.6875 42 39.2812C42.0312 39.875 42.0781 40.4688 42.1406 41.0625C42.2031 41.6562 42.2969 42.2031 42.4219 42.7031C42.5469 43.2031 42.6875 43.5938 42.8438 43.875C42.3125 44.1875 41.8281 44.4219 41.3906 44.5781C40.9844 44.7344 40.625 44.8438 40.3125 44.9062C39.9688 45 39.6406 45.0469 39.3281 45.0469C38.9219 45.0469 38.6562 44.875 38.5312 44.5312C38.4062 44.1875 38.3438 43.5781 38.3438 42.7031C38.3438 42.1406 38.3594 41.3281 38.3906 40.2656C38.4531 39.2344 38.5156 38.0469 38.5781 36.7031C38.6719 35.3594 38.75 33.9531 38.8125 32.4844C38.9062 30.9844 38.9844 29.5156 39.0469 28.0781C39.1406 26.6406 39.2031 25.3125 39.2344 24.0938C39.2969 22.8438 39.3281 21.7969 39.3281 20.9531C39.3281 19.9219 39.3125 19.125 39.2812 18.5625C39.25 17.9688 39.2031 17.5312 39.1406 17.25C39.1094 16.9375 39.0625 16.7188 39 16.5938C38.9375 16.4688 38.8594 16.3281 38.7656 16.1719C39.0469 15.9531 39.375 15.7656 39.75 15.6094C40.1562 15.4219 40.5469 15.2969 40.9219 15.2344C41.3281 15.1406 41.6875 15.1094 42 15.1406C42.3438 15.1719 42.6094 15.25 42.7969 15.375C42.9531 15.5312 43.0625 15.7656 43.125 16.0781C43.2188 16.3906 43.2969 16.8594 43.3594 17.4844C43.9531 16.6719 44.625 15.9688 45.375 15.375C46.1562 14.75 47.0469 14.4375 48.0469 14.4375ZM46.2188 31.1719C46.7812 31.1719 47.3125 30.9062 47.8125 30.375C48.3438 29.8438 48.7969 29.1719 49.1719 28.3594C49.5781 27.5156 49.8906 26.5938 50.1094 25.5938C50.3594 24.5625 50.4844 23.5469 50.4844 22.5469C50.4844 21.4531 50.375 20.5625 50.1562 19.875C49.9688 19.1562 49.7188 18.5938 49.4062 18.1875C49.125 17.75 48.8125 17.4531 48.4688 17.2969C48.1562 17.1094 47.875 17.0156 47.625 17.0156C47.0312 17.0156 46.4688 17.2656 45.9375 17.7656C45.4062 18.2344 44.9375 18.8594 44.5312 19.6406C44.125 20.3906 43.7969 21.2344 43.5469 22.1719C43.3281 23.1094 43.2188 24.0469 43.2188 24.9844C43.2188 25.8594 43.2969 26.6719 43.4531 27.4219C43.6406 28.1719 43.875 28.8281 44.1562 29.3906C44.4375 29.9531 44.75 30.3906 45.0938 30.7031C45.4688 31.0156 45.8438 31.1719 46.2188 31.1719ZM63.1406 33.5156C60.9531 33.5156 59.2656 32.7812 58.0781 31.3125C56.8906 29.8438 56.2969 27.9219 56.2969 25.5469C56.2969 23.8906 56.5312 22.3438 57 20.9062C57.5 19.4375 58.1562 18.1719 58.9688 17.1094C59.7812 16.0469 60.7188 15.2188 61.7812 14.625C62.875 14 64.0156 13.6875 65.2031 13.6875C66.3594 13.6875 67.3438 14.1094 68.1562 14.9531C68.9688 15.7656 69.375 16.9375 69.375 18.4688C69.375 19.4688 69.1562 20.4688 68.7188 21.4688C68.2812 22.4375 67.7031 23.3125 66.9844 24.0938C66.2969 24.8438 65.5312 25.4531 64.6875 25.9219C63.8438 26.3906 63.0312 26.625 62.25 26.625C61.75 26.625 61.3281 26.5625 60.9844 26.4375C60.6406 26.3125 60.3281 26.125 60.0469 25.875C60.1406 27.6562 60.5312 28.9062 61.2188 29.625C61.9062 30.3125 62.7969 30.6562 63.8906 30.6562C64.6406 30.6562 65.2969 30.5 65.8594 30.1875C66.4531 29.875 66.9531 29.5156 67.3594 29.1094C67.7656 28.7031 68.0938 28.2969 68.3438 27.8906C68.5938 27.4531 68.7656 27.125 68.8594 26.9062C68.9531 26.7188 69.1094 26.625 69.3281 26.625C69.5781 26.625 69.7031 26.8125 69.7031 27.1875C69.7031 27.5312 69.5781 28.0625 69.3281 28.7812C69.1094 29.4688 68.7344 30.1719 68.2031 30.8906C67.6719 31.5781 66.9844 32.1875 66.1406 32.7188C65.3281 33.25 64.3281 33.5156 63.1406 33.5156ZM65.2969 15.7031C65.1094 15.7031 64.75 15.9062 64.2188 16.3125C63.7188 16.6875 63.1719 17.25 62.5781 18C62.0156 18.75 61.4844 19.6562 60.9844 20.7188C60.5156 21.75 60.2188 22.9219 60.0938 24.2344C61.9688 23.7969 63.4531 23.1094 64.5469 22.1719C65.6406 21.2344 66.1875 19.8594 66.1875 18.0469C66.1875 17.1406 66.0781 16.5312 65.8594 16.2188C65.6406 15.875 65.4531 15.7031 65.2969 15.7031ZM85.2656 27.0938C85.2656 27.4375 85.1406 27.9688 84.8906 28.6875C84.6719 29.375 84.2969 30.0781 83.7656 30.7969C83.2344 31.4844 82.5469 32.0938 81.7031 32.625C80.8906 33.1562 79.8906 33.4219 78.7031 33.4219C77.0156 33.4219 75.5938 32.9688 74.4375 32.0625C73.3125 31.125 72.5156 29.7969 72.0469 28.0781C71.6719 26.6406 71.5625 25.1094 71.7188 23.4844C71.9062 21.8281 72.3594 20.2969 73.0781 18.8906C73.7969 17.4844 74.7969 16.2969 76.0781 15.3281C77.3594 14.3281 78.9219 13.7812 80.7656 13.6875C81.7031 13.6562 82.4844 13.8281 83.1094 14.2031C83.7344 14.5781 84.2188 15.0625 84.5625 15.6562C84.9062 16.25 85.1094 16.9062 85.1719 17.625C85.2344 18.3125 85.1562 18.9688 84.9375 19.5938C84.75 20.2188 84.4375 20.75 84 21.1875C83.5938 21.5938 83.0625 21.8125 82.4062 21.8438C81.75 21.9062 81.2031 21.8281 80.7656 21.6094C80.3594 21.3594 80.0312 21.0625 79.7812 20.7188C79.5625 20.375 79.4062 20.0156 79.3125 19.6406C79.25 19.2656 79.25 18.9375 79.3125 18.6562C79.4062 18.25 79.5625 17.875 79.7812 17.5312C79.9688 17.2188 80.2344 16.9062 80.5781 16.5938C80.9531 16.2812 81.4375 16.0312 82.0312 15.8438C81.9375 15.7812 81.8438 15.75 81.75 15.75C81.6562 15.75 81.5625 15.7344 81.4688 15.7031C81.3438 15.7031 81.25 15.6875 81.1875 15.6562C80.6875 15.6562 80.1094 15.8281 79.4531 16.1719C78.8281 16.5156 78.2188 17.0625 77.625 17.8125C77.0625 18.5625 76.5781 19.5312 76.1719 20.7188C75.7969 21.875 75.6094 23.2812 75.6094 24.9375C75.6094 25.6562 75.6875 26.375 75.8438 27.0938C76 27.7812 76.2344 28.4062 76.5469 28.9688C76.8906 29.5 77.2969 29.9375 77.7656 30.2812C78.2656 30.5938 78.8438 30.75 79.5 30.75C80.25 30.75 80.9062 30.5938 81.4688 30.2812C82.0625 29.9375 82.5625 29.5469 82.9688 29.1094C83.375 28.6719 83.6875 28.2344 83.9062 27.7969C84.1562 27.3594 84.3281 27.0312 84.4219 26.8125C84.5156 26.625 84.6719 26.5312 84.8906 26.5312C85.1406 26.5312 85.2656 26.7188 85.2656 27.0938ZM88.2656 16.4062C88.2656 16.2188 88.5156 16.0156 89.0156 15.7969C89.5156 15.5781 90.0625 15.4062 90.6562 15.2812C91.2812 15.125 91.8438 15.0469 92.3438 15.0469C92.875 15.0156 93.1406 15.125 93.1406 15.375C93.1406 15.8438 93.1094 16.5156 93.0469 17.3906C92.9844 18.2344 92.9062 19.1406 92.8125 20.1094C92.7188 21.0469 92.625 22 92.5312 22.9688C92.4375 23.9062 92.375 24.7031 92.3438 25.3594C92.2812 26.0469 92.2188 26.7969 92.1562 27.6094C92.0938 28.2969 92.0469 29.0625 92.0156 29.9062C91.9844 30.75 91.9844 31.6094 92.0156 32.4844C92.0156 32.6406 91.8594 32.7969 91.5469 32.9531C91.2344 33.1094 90.8906 33.2188 90.5156 33.2812C90.1406 33.375 89.7812 33.4219 89.4375 33.4219C89.0938 33.4219 88.9062 33.3594 88.875 33.2344C88.8125 33.1094 88.75 32.8906 88.6875 32.5781C88.625 32.2656 88.5625 31.8281 88.5 31.2656C88.4375 30.6719 88.3906 29.9219 88.3594 29.0156C88.3281 28.0781 88.3438 26.9531 88.4062 25.6406C88.5312 23.0469 88.5469 21.0469 88.4531 19.6406C88.3594 18.2031 88.2969 17.125 88.2656 16.4062ZM91.5469 7.07812C92.1719 7.07812 92.7656 7.26562 93.3281 7.64062C93.8906 8.01562 94.1719 8.51562 94.1719 9.14062C94.1719 9.60938 94.0469 10.0625 93.7969 10.5C93.5781 10.9375 93.2969 11.3281 92.9531 11.6719C92.6094 12.0156 92.2188 12.2969 91.7812 12.5156C91.3438 12.7031 90.9375 12.7969 90.5625 12.7969C90.0625 12.7969 89.6562 12.7188 89.3438 12.5625C89.0312 12.375 88.7812 12.1719 88.5938 11.9531C88.4375 11.7031 88.3281 11.4375 88.2656 11.1562C88.2031 10.875 88.1719 10.6094 88.1719 10.3594C88.1719 10.0469 88.2188 9.70312 88.3125 9.32812C88.4062 8.92188 88.5781 8.5625 88.8281 8.25C89.0781 7.90625 89.4219 7.625 89.8594 7.40625C90.2969 7.1875 90.8594 7.07812 91.5469 7.07812ZM90.375 11.4375C90.5625 11.4375 90.7656 11.375 90.9844 11.25C91.2344 11.0938 91.4531 10.9219 91.6406 10.7344C91.8594 10.5469 92.0312 10.3438 92.1562 10.125C92.3125 9.90625 92.3906 9.71875 92.3906 9.5625C92.3906 9.3125 92.2656 9.1875 92.0156 9.1875C91.8594 9.1875 91.6562 9.25 91.4062 9.375C91.1875 9.5 90.9688 9.65625 90.75 9.84375C90.5312 10 90.3438 10.1875 90.1875 10.4062C90.0625 10.5938 90 10.7812 90 10.9688C90 11.2812 90.125 11.4375 90.375 11.4375ZM109.922 30.6094C109.984 30.8281 110.078 31.0312 110.203 31.2188C110.297 31.375 110.422 31.5312 110.578 31.6875C110.766 31.8125 110.984 31.8906 111.234 31.9219C111.016 32.3594 110.797 32.6562 110.578 32.8125C110.453 32.9062 110.344 32.9688 110.25 33C109.969 33.0938 109.547 33.1406 108.984 33.1406C108.422 33.1406 107.875 32.9688 107.344 32.625C107.156 32.4688 106.984 32.2344 106.828 31.9219C106.672 31.6719 106.531 31.3281 106.406 30.8906C106.312 30.4219 106.234 29.8281 106.172 29.1094C105.734 30.0469 105.234 30.7969 104.672 31.3594C104.141 31.8906 103.609 32.2812 103.078 32.5312C102.484 32.875 101.875 33.0781 101.25 33.1406C100.469 33.2031 99.7188 33.0781 99 32.7656C98.3125 32.4219 97.7188 31.9219 97.2188 31.2656C96.75 30.5781 96.3906 29.75 96.1406 28.7812C95.8906 27.8125 95.8125 26.7188 95.9062 25.5C96 24.2188 96.25 23.0781 96.6562 22.0781C97.0625 21.0781 97.5469 20.1875 98.1094 19.4062C98.6719 18.625 99.2656 17.9688 99.8906 17.4375C100.516 16.875 101.109 16.4219 101.672 16.0781C102.266 15.7031 102.766 15.4375 103.172 15.2812C103.609 15.0938 103.891 14.9844 104.016 14.9531C104.359 14.8594 104.656 14.8281 104.906 14.8594C105.156 14.8906 105.375 15.0312 105.562 15.2812C105.625 15.375 105.703 15.4844 105.797 15.6094C105.859 15.7344 105.938 15.9062 106.031 16.125C106.125 16.3125 106.203 16.5312 106.266 16.7812C105.516 17.125 104.812 17.5156 104.156 17.9531C103.5 18.3594 102.891 18.8594 102.328 19.4531C101.797 20.0469 101.328 20.7656 100.922 21.6094C100.516 22.4531 100.203 23.4844 99.9844 24.7031C99.6719 26.2344 99.75 27.4688 100.219 28.4062C100.719 29.3438 101.391 29.7344 102.234 29.5781C102.734 29.4219 103.219 29.125 103.688 28.6875C104.094 28.3125 104.516 27.75 104.953 27C105.422 26.25 105.859 25.2188 106.266 23.9062C106.422 22.0312 106.547 20.5625 106.641 19.5C106.766 18.4062 106.875 17.5781 106.969 17.0156C107.094 16.3594 107.188 15.9219 107.25 15.7031C107.344 15.5469 107.531 15.4062 107.812 15.2812C108.094 15.125 108.406 15 108.75 14.9062C109.094 14.8125 109.406 14.7656 109.688 14.7656C109.969 14.7344 110.156 14.7344 110.25 14.7656C110.312 14.7969 110.344 15.1875 110.344 15.9375C110.344 16.6562 110.312 17.5781 110.25 18.7031C110.219 19.7969 110.172 21 110.109 22.3125C110.047 23.5938 109.984 24.8125 109.922 25.9688C109.891 27.125 109.859 28.1406 109.828 29.0156C109.828 29.8594 109.859 30.3906 109.922 30.6094ZM120.047 2.625C119.984 3.75 119.875 5.04688 119.719 6.51562C119.562 7.98438 119.391 9.5625 119.203 11.25C119.047 12.9375 118.875 14.7031 118.688 16.5469C118.531 18.3906 118.391 20.25 118.266 22.125C118.141 24 118.078 25.5312 118.078 26.7188C118.109 27.875 118.188 28.8281 118.312 29.5781C118.438 30.3281 118.609 30.9219 118.828 31.3594C119.047 31.7969 119.328 32.2188 119.672 32.625C119.266 32.875 118.891 33.0625 118.547 33.1875C118.203 33.3125 117.906 33.4062 117.656 33.4688C117.344 33.5625 117.062 33.6094 116.812 33.6094C116.344 33.6094 115.938 33.3906 115.594 32.9531C115.25 32.4844 114.969 31.8906 114.75 31.1719C114.562 30.4531 114.406 29.6562 114.281 28.7812C114.188 27.875 114.141 26.9844 114.141 26.1094C114.141 25.1719 114.172 24.0938 114.234 22.875C114.297 21.625 114.359 20.3125 114.422 18.9375C114.516 17.5312 114.609 16.0781 114.703 14.5781C114.797 13.0469 114.875 11.5312 114.938 10.0312C115 8.875 115.062 7.82812 115.125 6.89062C115.188 6.07812 115.234 5.34375 115.266 4.6875C115.297 4 115.281 3.59375 115.219 3.46875C115.406 3.21875 115.641 3.03125 115.922 2.90625C116.203 2.78125 116.469 2.67188 116.719 2.57812C117.031 2.48438 117.344 2.40625 117.656 2.34375H118.547C118.797 2.34375 119.062 2.375 119.344 2.4375C119.625 2.46875 119.859 2.53125 120.047 2.625ZM122.531 16.4062C122.531 16.2188 122.781 16.0156 123.281 15.7969C123.781 15.5781 124.328 15.4062 124.922 15.2812C125.547 15.125 126.109 15.0469 126.609 15.0469C127.141 15.0156 127.406 15.125 127.406 15.375C127.406 15.8438 127.375 16.5156 127.312 17.3906C127.25 18.2344 127.172 19.1406 127.078 20.1094C126.984 21.0469 126.891 22 126.797 22.9688C126.703 23.9062 126.641 24.7031 126.609 25.3594C126.547 26.0469 126.484 26.7969 126.422 27.6094C126.359 28.2969 126.312 29.0625 126.281 29.9062C126.25 30.75 126.25 31.6094 126.281 32.4844C126.281 32.6406 126.125 32.7969 125.812 32.9531C125.5 33.1094 125.156 33.2188 124.781 33.2812C124.406 33.375 124.047 33.4219 123.703 33.4219C123.359 33.4219 123.172 33.3594 123.141 33.2344C123.078 33.1094 123.016 32.8906 122.953 32.5781C122.891 32.2656 122.828 31.8281 122.766 31.2656C122.703 30.6719 122.656 29.9219 122.625 29.0156C122.594 28.0781 122.609 26.9531 122.672 25.6406C122.797 23.0469 122.812 21.0469 122.719 19.6406C122.625 18.2031 122.562 17.125 122.531 16.4062ZM125.812 7.07812C126.438 7.07812 127.031 7.26562 127.594 7.64062C128.156 8.01562 128.438 8.51562 128.438 9.14062C128.438 9.60938 128.312 10.0625 128.062 10.5C127.844 10.9375 127.562 11.3281 127.219 11.6719C126.875 12.0156 126.484 12.2969 126.047 12.5156C125.609 12.7031 125.203 12.7969 124.828 12.7969C124.328 12.7969 123.922 12.7188 123.609 12.5625C123.297 12.375 123.047 12.1719 122.859 11.9531C122.703 11.7031 122.594 11.4375 122.531 11.1562C122.469 10.875 122.438 10.6094 122.438 10.3594C122.438 10.0469 122.484 9.70312 122.578 9.32812C122.672 8.92188 122.844 8.5625 123.094 8.25C123.344 7.90625 123.688 7.625 124.125 7.40625C124.562 7.1875 125.125 7.07812 125.812 7.07812ZM124.641 11.4375C124.828 11.4375 125.031 11.375 125.25 11.25C125.5 11.0938 125.719 10.9219 125.906 10.7344C126.125 10.5469 126.297 10.3438 126.422 10.125C126.578 9.90625 126.656 9.71875 126.656 9.5625C126.656 9.3125 126.531 9.1875 126.281 9.1875C126.125 9.1875 125.922 9.25 125.672 9.375C125.453 9.5 125.234 9.65625 125.016 9.84375C124.797 10 124.609 10.1875 124.453 10.4062C124.328 10.5938 124.266 10.7812 124.266 10.9688C124.266 11.2812 124.391 11.4375 124.641 11.4375ZM145.875 3.23438C145.875 3.57813 145.844 4.25 145.781 5.25C145.719 6.25 145.641 7.45312 145.547 8.85938C145.453 10.2656 145.359 11.8125 145.266 13.5C145.172 15.1875 145.094 16.9062 145.031 18.6562C144.969 20.4062 144.906 22.0469 144.844 23.5781C144.812 25.0781 144.797 26.4219 144.797 27.6094C144.828 28.7969 144.891 29.7969 144.984 30.6094C145.078 31.3906 145.219 31.9219 145.406 32.2031L143.297 33C143.141 33.0625 142.953 33.0938 142.734 33.0938C142.516 33.0938 142.281 33.0312 142.031 32.9062C141.812 32.7812 141.625 32.5625 141.469 32.25C141.312 31.9375 141.234 31.5 141.234 30.9375C141.234 30.7188 141.234 30.4531 141.234 30.1406C141.266 29.7969 141.281 29.4062 141.281 28.9688C140.906 29.5938 140.5 30.2031 140.062 30.7969C139.625 31.3906 139.141 31.9062 138.609 32.3438C138.109 32.7812 137.562 33.125 136.969 33.375C136.375 33.6562 135.75 33.7969 135.094 33.7969C134.469 33.7969 133.859 33.6562 133.266 33.375C132.672 33.125 132.141 32.7344 131.672 32.2031C131.203 31.6719 130.812 30.9844 130.5 30.1406C130.219 29.2969 130.078 28.2812 130.078 27.0938C130.078 24.9375 130.328 23.0625 130.828 21.4688C131.328 19.8438 131.953 18.5 132.703 17.4375C133.484 16.3438 134.312 15.5312 135.188 15C136.094 14.4375 136.922 14.1562 137.672 14.1562C138.828 14.1562 139.719 14.4688 140.344 15.0938C140.969 15.6875 141.422 16.3125 141.703 16.9688C141.734 16.0625 141.75 15.2188 141.75 14.4375C141.781 13.625 141.797 12.9375 141.797 12.375C141.797 10.0625 141.75 8 141.656 6.1875C141.562 4.375 141.328 3 140.953 2.0625C141.391 1.8125 141.781 1.625 142.125 1.5C142.5 1.375 142.828 1.28125 143.109 1.21875C143.453 1.125 143.75 1.07812 144 1.07812C144.688 1.07812 145.172 1.28125 145.453 1.6875C145.734 2.0625 145.875 2.57812 145.875 3.23438ZM141.422 24.9844C141.484 24.1719 141.516 23.3281 141.516 22.4531C141.547 21.5469 141.578 20.6406 141.609 19.7344C141.391 20.0781 141.125 20.375 140.812 20.625C140.531 20.875 140.219 20.9375 139.875 20.8125C140 19.875 139.984 19.1562 139.828 18.6562C139.703 18.1562 139.516 17.7812 139.266 17.5312C138.984 17.25 138.656 17.0938 138.281 17.0625C137.719 17.0625 137.156 17.375 136.594 18C136.062 18.625 135.578 19.4062 135.141 20.3438C134.734 21.25 134.406 22.2344 134.156 23.2969C133.906 24.3281 133.781 25.2812 133.781 26.1562C133.781 27.9062 134.016 29.125 134.484 29.8125C134.984 30.5 135.516 30.8438 136.078 30.8438C136.547 30.8438 137.031 30.6562 137.531 30.2812C138.062 29.9062 138.562 29.4219 139.031 28.8281C139.531 28.2344 139.984 27.6094 140.391 26.9531C140.828 26.2656 141.172 25.6094 141.422 24.9844ZM162.141 30.6094C162.203 30.8281 162.297 31.0312 162.422 31.2188C162.516 31.375 162.641 31.5312 162.797 31.6875C162.984 31.8125 163.203 31.8906 163.453 31.9219C163.234 32.3594 163.016 32.6562 162.797 32.8125C162.672 32.9062 162.562 32.9688 162.469 33C162.188 33.0938 161.766 33.1406 161.203 33.1406C160.641 33.1406 160.094 32.9688 159.562 32.625C159.375 32.4688 159.203 32.2344 159.047 31.9219C158.891 31.6719 158.75 31.3281 158.625 30.8906C158.531 30.4219 158.453 29.8281 158.391 29.1094C157.953 30.0469 157.453 30.7969 156.891 31.3594C156.359 31.8906 155.828 32.2812 155.297 32.5312C154.703 32.875 154.094 33.0781 153.469 33.1406C152.688 33.2031 151.938 33.0781 151.219 32.7656C150.531 32.4219 149.938 31.9219 149.438 31.2656C148.969 30.5781 148.609 29.75 148.359 28.7812C148.109 27.8125 148.031 26.7188 148.125 25.5C148.219 24.2188 148.469 23.0781 148.875 22.0781C149.281 21.0781 149.766 20.1875 150.328 19.4062C150.891 18.625 151.484 17.9688 152.109 17.4375C152.734 16.875 153.328 16.4219 153.891 16.0781C154.484 15.7031 154.984 15.4375 155.391 15.2812C155.828 15.0938 156.109 14.9844 156.234 14.9531C156.578 14.8594 156.875 14.8281 157.125 14.8594C157.375 14.8906 157.594 15.0312 157.781 15.2812C157.844 15.375 157.922 15.4844 158.016 15.6094C158.078 15.7344 158.156 15.9062 158.25 16.125C158.344 16.3125 158.422 16.5312 158.484 16.7812C157.734 17.125 157.031 17.5156 156.375 17.9531C155.719 18.3594 155.109 18.8594 154.547 19.4531C154.016 20.0469 153.547 20.7656 153.141 21.6094C152.734 22.4531 152.422 23.4844 152.203 24.7031C151.891 26.2344 151.969 27.4688 152.438 28.4062C152.938 29.3438 153.609 29.7344 154.453 29.5781C154.953 29.4219 155.438 29.125 155.906 28.6875C156.312 28.3125 156.734 27.75 157.172 27C157.641 26.25 158.078 25.2188 158.484 23.9062C158.641 22.0312 158.766 20.5625 158.859 19.5C158.984 18.4062 159.094 17.5781 159.188 17.0156C159.312 16.3594 159.406 15.9219 159.469 15.7031C159.562 15.5469 159.75 15.4062 160.031 15.2812C160.312 15.125 160.625 15 160.969 14.9062C161.312 14.8125 161.625 14.7656 161.906 14.7656C162.188 14.7344 162.375 14.7344 162.469 14.7656C162.531 14.7969 162.562 15.1875 162.562 15.9375C162.562 16.6562 162.531 17.5781 162.469 18.7031C162.438 19.7969 162.391 21 162.328 22.3125C162.266 23.5938 162.203 24.8125 162.141 25.9688C162.109 27.125 162.078 28.1406 162.047 29.0156C162.047 29.8594 162.078 30.3906 162.141 30.6094ZM181.406 3.23438C181.406 3.57813 181.375 4.25 181.312 5.25C181.25 6.25 181.172 7.45312 181.078 8.85938C180.984 10.2656 180.891 11.8125 180.797 13.5C180.703 15.1875 180.625 16.9062 180.562 18.6562C180.5 20.4062 180.438 22.0469 180.375 23.5781C180.344 25.0781 180.328 26.4219 180.328 27.6094C180.359 28.7969 180.422 29.7969 180.516 30.6094C180.609 31.3906 180.75 31.9219 180.938 32.2031L178.828 33C178.672 33.0625 178.484 33.0938 178.266 33.0938C178.047 33.0938 177.812 33.0312 177.562 32.9062C177.344 32.7812 177.156 32.5625 177 32.25C176.844 31.9375 176.766 31.5 176.766 30.9375C176.766 30.7188 176.766 30.4531 176.766 30.1406C176.797 29.7969 176.812 29.4062 176.812 28.9688C176.438 29.5938 176.031 30.2031 175.594 30.7969C175.156 31.3906 174.672 31.9062 174.141 32.3438C173.641 32.7812 173.094 33.125 172.5 33.375C171.906 33.6562 171.281 33.7969 170.625 33.7969C170 33.7969 169.391 33.6562 168.797 33.375C168.203 33.125 167.672 32.7344 167.203 32.2031C166.734 31.6719 166.344 30.9844 166.031 30.1406C165.75 29.2969 165.609 28.2812 165.609 27.0938C165.609 24.9375 165.859 23.0625 166.359 21.4688C166.859 19.8438 167.484 18.5 168.234 17.4375C169.016 16.3438 169.844 15.5312 170.719 15C171.625 14.4375 172.453 14.1562 173.203 14.1562C174.359 14.1562 175.25 14.4688 175.875 15.0938C176.5 15.6875 176.953 16.3125 177.234 16.9688C177.266 16.0625 177.281 15.2188 177.281 14.4375C177.312 13.625 177.328 12.9375 177.328 12.375C177.328 10.0625 177.281 8 177.188 6.1875C177.094 4.375 176.859 3 176.484 2.0625C176.922 1.8125 177.312 1.625 177.656 1.5C178.031 1.375 178.359 1.28125 178.641 1.21875C178.984 1.125 179.281 1.07812 179.531 1.07812C180.219 1.07812 180.703 1.28125 180.984 1.6875C181.266 2.0625 181.406 2.57812 181.406 3.23438ZM176.953 24.9844C177.016 24.1719 177.047 23.3281 177.047 22.4531C177.078 21.5469 177.109 20.6406 177.141 19.7344C176.922 20.0781 176.656 20.375 176.344 20.625C176.062 20.875 175.75 20.9375 175.406 20.8125C175.531 19.875 175.516 19.1562 175.359 18.6562C175.234 18.1562 175.047 17.7812 174.797 17.5312C174.516 17.25 174.188 17.0938 173.812 17.0625C173.25 17.0625 172.688 17.375 172.125 18C171.594 18.625 171.109 19.4062 170.672 20.3438C170.266 21.25 169.938 22.2344 169.688 23.2969C169.438 24.3281 169.312 25.2812 169.312 26.1562C169.312 27.9062 169.547 29.125 170.016 29.8125C170.516 30.5 171.047 30.8438 171.609 30.8438C172.078 30.8438 172.562 30.6562 173.062 30.2812C173.594 29.9062 174.094 29.4219 174.562 28.8281C175.062 28.2344 175.516 27.6094 175.922 26.9531C176.359 26.2656 176.703 25.6094 176.953 24.9844ZM190.406 33.5156C188.219 33.5156 186.531 32.7812 185.344 31.3125C184.156 29.8438 183.562 27.9219 183.562 25.5469C183.562 23.8906 183.797 22.3438 184.266 20.9062C184.766 19.4375 185.422 18.1719 186.234 17.1094C187.047 16.0469 187.984 15.2188 189.047 14.625C190.141 14 191.281 13.6875 192.469 13.6875C193.625 13.6875 194.609 14.1094 195.422 14.9531C196.234 15.7656 196.641 16.9375 196.641 18.4688C196.641 19.4688 196.422 20.4688 195.984 21.4688C195.547 22.4375 194.969 23.3125 194.25 24.0938C193.562 24.8438 192.797 25.4531 191.953 25.9219C191.109 26.3906 190.297 26.625 189.516 26.625C189.016 26.625 188.594 26.5625 188.25 26.4375C187.906 26.3125 187.594 26.125 187.312 25.875C187.406 27.6562 187.797 28.9062 188.484 29.625C189.172 30.3125 190.062 30.6562 191.156 30.6562C191.906 30.6562 192.562 30.5 193.125 30.1875C193.719 29.875 194.219 29.5156 194.625 29.1094C195.031 28.7031 195.359 28.2969 195.609 27.8906C195.859 27.4531 196.031 27.125 196.125 26.9062C196.219 26.7188 196.375 26.625 196.594 26.625C196.844 26.625 196.969 26.8125 196.969 27.1875C196.969 27.5312 196.844 28.0625 196.594 28.7812C196.375 29.4688 196 30.1719 195.469 30.8906C194.938 31.5781 194.25 32.1875 193.406 32.7188C192.594 33.25 191.594 33.5156 190.406 33.5156ZM192.562 15.7031C192.375 15.7031 192.016 15.9062 191.484 16.3125C190.984 16.6875 190.438 17.25 189.844 18C189.281 18.75 188.75 19.6562 188.25 20.7188C187.781 21.75 187.484 22.9219 187.359 24.2344C189.234 23.7969 190.719 23.1094 191.812 22.1719C192.906 21.2344 193.453 19.8594 193.453 18.0469C193.453 17.1406 193.344 16.5312 193.125 16.2188C192.906 15.875 192.719 15.7031 192.562 15.7031ZM207.094 24.0938C207.781 24.3438 208.438 24.5781 209.062 24.7969C209.688 25.0156 210.234 25.2812 210.703 25.5938C211.172 25.9062 211.547 26.2812 211.828 26.7188C212.109 27.125 212.25 27.6406 212.25 28.2656C212.25 29.0156 212.078 29.7188 211.734 30.375C211.422 31.0312 210.953 31.6094 210.328 32.1094C209.703 32.6094 208.938 33 208.031 33.2812C207.156 33.5938 206.172 33.75 205.078 33.75C203.859 33.75 202.875 33.625 202.125 33.375C201.375 33.1562 200.797 32.8906 200.391 32.5781C199.984 32.2656 199.719 31.9531 199.594 31.6406C199.469 31.3281 199.406 31.0781 199.406 30.8906C199.406 30.5156 199.484 30.1094 199.641 29.6719C199.797 29.2031 200.094 28.7031 200.531 28.1719C200.719 27.9531 200.922 27.75 201.141 27.5625C201.578 27.1875 202.016 26.9531 202.453 26.8594C202.391 27.5781 202.469 28.1719 202.688 28.6406C202.938 29.0781 203.25 29.4219 203.625 29.6719C204.031 29.9219 204.469 30.0938 204.938 30.1875C205.438 30.2812 205.906 30.3281 206.344 30.3281C206.781 30.3281 207.219 30.2656 207.656 30.1406C208.125 30.0156 208.547 29.8594 208.922 29.6719C209.297 29.4531 209.594 29.2188 209.812 28.9688C210.062 28.6875 210.188 28.3906 210.188 28.0781C210.188 27.7344 210.047 27.4531 209.766 27.2344C209.484 27.0156 209.125 26.8438 208.688 26.7188C208.281 26.5625 207.828 26.4531 207.328 26.3906C206.859 26.2969 206.406 26.2031 205.969 26.1094C205.531 26.0156 204.938 25.8906 204.188 25.7344C203.469 25.5469 202.75 25.2656 202.031 24.8906C201.344 24.5156 200.734 24.0156 200.203 23.3906C199.703 22.7656 199.453 21.9375 199.453 20.9062C199.453 19.7188 199.75 18.6875 200.344 17.8125C200.969 16.9062 201.719 16.1562 202.594 15.5625C203.5 14.9375 204.453 14.4688 205.453 14.1562C206.453 13.8438 207.344 13.6875 208.125 13.6875C208.531 13.6875 208.969 13.75 209.438 13.875C209.906 13.9688 210.344 14.1562 210.75 14.4375C211.156 14.6875 211.484 15.0312 211.734 15.4688C212.016 15.9062 212.156 16.4688 212.156 17.1562C212.156 17.8438 212.094 18.4062 211.969 18.8438C211.875 19.25 211.719 19.5781 211.5 19.8281C211.312 20.0469 211.078 20.1875 210.797 20.25C210.516 20.3125 210.188 20.3438 209.812 20.3438C209.562 20.3438 209.328 20.3125 209.109 20.25C208.922 20.1875 208.719 20.125 208.5 20.0625C208.281 20 208.078 19.8906 207.891 19.7344C208.203 19.3594 208.438 19 208.594 18.6562C208.781 18.3125 208.875 17.8906 208.875 17.3906C208.875 16.9531 208.75 16.5625 208.5 16.2188C208.281 15.875 207.906 15.7031 207.375 15.7031C206.812 15.7031 206.266 15.8125 205.734 16.0312C205.234 16.25 204.781 16.5469 204.375 16.9219C204 17.2969 203.688 17.7344 203.438 18.2344C203.219 18.7031 203.109 19.2188 203.109 19.7812C203.109 20.625 203.422 21.4219 204.047 22.1719C204.703 22.9219 205.719 23.5625 207.094 24.0938Z" fill="black"/>
</svg>
