<svg width="294" height="50" viewBox="0 0 294 50" fill="none" xmlns="http://www.w3.org/2000/svg">
<path d="M0.9375 41.6875C0.895833 40.8542 0.875 39.7083 0.875 38.25C0.916667 36.7917 0.958333 35.1875 1 33.4375C1.08333 31.6458 1.16667 29.7708 1.25 27.8125C1.33333 25.8125 1.39583 23.8542 1.4375 21.9375C1.52083 20.0208 1.58333 18.2083 1.625 16.5C1.70833 14.75 1.77083 13.2292 1.8125 11.9375C1.85417 11.0208 1.89583 10.125 1.9375 9.25C1.97917 8.5 2 7.6875 2 6.8125C2 5.9375 1.95833 5.14583 1.875 4.4375C2.20833 4.3125 2.47917 4.1875 2.6875 4.0625C2.89583 3.9375 3.10417 3.8125 3.3125 3.6875C3.52083 3.52083 3.75 3.35417 4 3.1875C4.29167 2.97917 4.6875 2.77083 5.1875 2.5625C5.47917 2.4375 5.79167 2.33333 6.125 2.25C6.41667 2.16667 6.72917 2.10417 7.0625 2.0625C7.4375 2.02083 7.83333 2.02083 8.25 2.0625C8.95833 4.39583 9.66667 6.5625 10.375 8.5625C11.125 10.5208 11.875 12.4375 12.625 14.3125C13.375 16.1458 14.1667 18 15 19.875C15.8333 21.7083 16.6875 23.6875 17.5625 25.8125C18.4792 27.9792 19.3125 29.9583 20.0625 31.75C20.8125 33.5417 21.4375 35.1042 21.9375 36.4375C22.0208 34.9375 22.1042 33.2708 22.1875 31.4375C22.2708 29.5625 22.3333 27.6458 22.375 25.6875C22.4167 23.7292 22.4375 21.8125 22.4375 19.9375C22.4792 18.0208 22.5 16.25 22.5 14.625C22.5417 12.9583 22.5625 11.5 22.5625 10.25C22.5625 9 22.5625 8.08333 22.5625 7.5C22.5625 6.45833 22.8333 5.60417 23.375 4.9375C23.9583 4.22917 24.6042 3.66667 25.3125 3.25C26.0625 2.83333 26.7917 2.54167 27.5 2.375C28.25 2.20833 28.7917 2.125 29.125 2.125C29.375 2.125 29.5833 2.14583 29.75 2.1875C29.9167 2.22917 30.0625 2.27083 30.1875 2.3125C30.3542 2.35417 30.4792 2.41667 30.5625 2.5C29.8542 3.45833 29.3333 4.47917 29 5.5625C28.6667 6.64583 28.4167 7.72917 28.25 8.8125C28.125 9.89583 28.0625 10.9583 28.0625 12C28.0625 13.0417 28.0625 14 28.0625 14.875C28.0208 16.9583 27.9583 19.5208 27.875 22.5625C27.7917 25.1875 27.7292 28.4583 27.6875 32.375C27.6458 36.2917 27.625 40.9792 27.625 46.4375C26.75 47.1458 25.9375 47.75 25.1875 48.25C24.4375 48.75 23.4792 48.9167 22.3125 48.75C21.8125 48.7083 21.3958 48.5 21.0625 48.125C20.7708 47.75 20.4583 47.2083 20.125 46.5C19.8333 45.8333 19.5208 45 19.1875 44C18.8542 42.9583 18.4167 41.75 17.875 40.375C16.9167 37.9583 15.9375 35.5208 14.9375 33.0625C13.9375 30.6042 12.9792 28.2708 12.0625 26.0625C11.1458 23.8542 10.2917 21.8542 9.5 20.0625C8.75 18.2292 8.125 16.75 7.625 15.625C6.875 21.3333 6.52083 26.25 6.5625 30.375C6.64583 34.5 6.79167 37.5208 7 39.4375C7.125 40.2708 7.27083 41.125 7.4375 42C7.60417 42.75 7.8125 43.5833 8.0625 44.5C8.3125 45.4583 8.64583 46.4167 9.0625 47.375C8.35417 48.0833 7.64583 48.5625 6.9375 48.8125C6.27083 49.0625 5.66667 49.2292 5.125 49.3125C4.5 49.3958 3.89583 49.375 3.3125 49.25C3.02083 49.1667 2.72917 48.875 2.4375 48.375C2.1875 47.9167 1.95833 47.3333 1.75 46.625C1.54167 45.9167 1.35417 45.125 1.1875 44.25C1.0625 43.4167 0.979167 42.5625 0.9375 41.6875ZM48.0625 20.75C48.0625 20.2917 48.3333 19.9583 48.875 19.75C49.4583 19.5 50.0625 19.375 50.6875 19.375C51.3542 19.375 51.9583 19.5 52.5 19.75C53.0417 19.9583 53.2917 20.25 53.25 20.625C53.2083 20.9167 53.1667 21.5 53.125 22.375C53.0833 23.2083 53.0208 24.2083 52.9375 25.375C52.8958 26.5417 52.8333 27.7917 52.75 29.125C52.6667 30.4583 52.5833 31.7708 52.5 33.0625C52.4583 34.3125 52.4167 35.4792 52.375 36.5625C52.375 37.6458 52.375 38.4792 52.375 39.0625C52.375 39.8125 52.4167 40.5 52.5 41.125C52.5833 41.6667 52.6875 42.2083 52.8125 42.75C52.9375 43.25 53.125 43.6042 53.375 43.8125C53.0417 43.9375 52.6875 44.0208 52.3125 44.0625C51.9792 44.1042 51.6667 44.1458 51.375 44.1875C51.0417 44.2292 50.7083 44.25 50.375 44.25C49.6667 44.25 49.0625 44.1042 48.5625 43.8125C48.1042 43.5208 47.875 42.9167 47.875 42C47.875 41.5417 47.8958 40.875 47.9375 40C48.0208 39.125 48.1042 38.1875 48.1875 37.1875C47.8958 38.0625 47.5417 38.9583 47.125 39.875C46.7083 40.7917 46.1875 41.6042 45.5625 42.3125C44.9792 43.0208 44.3125 43.6042 43.5625 44.0625C42.8125 44.5208 41.9583 44.75 41 44.75C39.9167 44.75 38.9167 44.5208 38 44.0625C37.125 43.6042 36.3542 42.9583 35.6875 42.125C35.0208 41.25 34.5208 40.1875 34.1875 38.9375C33.8542 37.6875 33.7292 36.25 33.8125 34.625C33.8125 33.375 33.8333 32.0417 33.875 30.625C33.9167 29.4167 33.9792 28.0208 34.0625 26.4375C34.1458 24.8542 34.2917 23.2083 34.5 21.5C34.5417 21.3333 34.8333 21.125 35.375 20.875C35.9167 20.625 36.5208 20.4167 37.1875 20.25C37.8542 20.0833 38.5 20.0208 39.125 20.0625C39.75 20.1042 40.2083 20.3542 40.5 20.8125C40.2917 21.5625 40.0833 22.4583 39.875 23.5C39.6667 24.5 39.4792 25.5417 39.3125 26.625C39.1458 27.7083 39.0208 28.7708 38.9375 29.8125C38.8542 30.8542 38.8125 31.8125 38.8125 32.6875C38.8125 33.4792 38.8542 34.3542 38.9375 35.3125C39.0208 36.2292 39.1667 37.1042 39.375 37.9375C39.625 38.7292 39.9583 39.3958 40.375 39.9375C40.8333 40.4792 41.4167 40.75 42.125 40.75C42.9167 40.75 43.6042 40.4167 44.1875 39.75C44.8125 39.0417 45.3333 38.1458 45.75 37.0625C46.1667 35.9792 46.5208 34.75 46.8125 33.375C47.1042 31.9583 47.3333 30.5625 47.5 29.1875C47.7083 27.8125 47.8333 26.5 47.875 25.25C47.9583 23.9583 48.0208 22.875 48.0625 22V20.75ZM66 44.6875C63.0833 44.6875 60.8333 43.7083 59.25 41.75C57.6667 39.7917 56.875 37.2292 56.875 34.0625C56.875 31.8542 57.1875 29.7917 57.8125 27.875C58.4792 25.9167 59.3542 24.2292 60.4375 22.8125C61.5208 21.3958 62.7708 20.2917 64.1875 19.5C65.6458 18.6667 67.1667 18.25 68.75 18.25C70.2917 18.25 71.6042 18.8125 72.6875 19.9375C73.7708 21.0208 74.3125 22.5833 74.3125 24.625C74.3125 25.9583 74.0208 27.2917 73.4375 28.625C72.8542 29.9167 72.0833 31.0833 71.125 32.125C70.2083 33.125 69.1875 33.9375 68.0625 34.5625C66.9375 35.1875 65.8542 35.5 64.8125 35.5C64.1458 35.5 63.5833 35.4167 63.125 35.25C62.6667 35.0833 62.25 34.8333 61.875 34.5C62 36.875 62.5208 38.5417 63.4375 39.5C64.3542 40.4167 65.5417 40.875 67 40.875C68 40.875 68.875 40.6667 69.625 40.25C70.4167 39.8333 71.0833 39.3542 71.625 38.8125C72.1667 38.2708 72.6042 37.7292 72.9375 37.1875C73.2708 36.6042 73.5 36.1667 73.625 35.875C73.75 35.625 73.9583 35.5 74.25 35.5C74.5833 35.5 74.75 35.75 74.75 36.25C74.75 36.7083 74.5833 37.4167 74.25 38.375C73.9583 39.2917 73.4583 40.2292 72.75 41.1875C72.0417 42.1042 71.125 42.9167 70 43.625C68.9167 44.3333 67.5833 44.6875 66 44.6875ZM68.875 20.9375C68.625 20.9375 68.1458 21.2083 67.4375 21.75C66.7708 22.25 66.0417 23 65.25 24C64.5 25 63.7917 26.2083 63.125 27.625C62.5 29 62.1042 30.5625 61.9375 32.3125C64.4375 31.7292 66.4167 30.8125 67.875 29.5625C69.3333 28.3125 70.0625 26.4792 70.0625 24.0625C70.0625 22.8542 69.9167 22.0417 69.625 21.625C69.3333 21.1667 69.0833 20.9375 68.875 20.9375ZM88.25 32.125C89.1667 32.4583 90.0417 32.7708 90.875 33.0625C91.7083 33.3542 92.4375 33.7083 93.0625 34.125C93.6875 34.5417 94.1875 35.0417 94.5625 35.625C94.9375 36.1667 95.125 36.8542 95.125 37.6875C95.125 38.6875 94.8958 39.625 94.4375 40.5C94.0208 41.375 93.3958 42.1458 92.5625 42.8125C91.7292 43.4792 90.7083 44 89.5 44.375C88.3333 44.7917 87.0208 45 85.5625 45C83.9375 45 82.625 44.8333 81.625 44.5C80.625 44.2083 79.8542 43.8542 79.3125 43.4375C78.7708 43.0208 78.4167 42.6042 78.25 42.1875C78.0833 41.7708 78 41.4375 78 41.1875C78 40.6875 78.1042 40.1458 78.3125 39.5625C78.5208 38.9375 78.9167 38.2708 79.5 37.5625C79.75 37.2708 80.0208 37 80.3125 36.75C80.8958 36.25 81.4792 35.9375 82.0625 35.8125C81.9792 36.7708 82.0833 37.5625 82.375 38.1875C82.7083 38.7708 83.125 39.2292 83.625 39.5625C84.1667 39.8958 84.75 40.125 85.375 40.25C86.0417 40.375 86.6667 40.4375 87.25 40.4375C87.8333 40.4375 88.4167 40.3542 89 40.1875C89.625 40.0208 90.1875 39.8125 90.6875 39.5625C91.1875 39.2708 91.5833 38.9583 91.875 38.625C92.2083 38.25 92.375 37.8542 92.375 37.4375C92.375 36.9792 92.1875 36.6042 91.8125 36.3125C91.4375 36.0208 90.9583 35.7917 90.375 35.625C89.8333 35.4167 89.2292 35.2708 88.5625 35.1875C87.9375 35.0625 87.3333 34.9375 86.75 34.8125C86.1667 34.6875 85.375 34.5208 84.375 34.3125C83.4167 34.0625 82.4583 33.6875 81.5 33.1875C80.5833 32.6875 79.7708 32.0208 79.0625 31.1875C78.3958 30.3542 78.0625 29.25 78.0625 27.875C78.0625 26.2917 78.4583 24.9167 79.25 23.75C80.0833 22.5417 81.0833 21.5417 82.25 20.75C83.4583 19.9167 84.7292 19.2917 86.0625 18.875C87.3958 18.4583 88.5833 18.25 89.625 18.25C90.1667 18.25 90.75 18.3333 91.375 18.5C92 18.625 92.5833 18.875 93.125 19.25C93.6667 19.5833 94.1042 20.0417 94.4375 20.625C94.8125 21.2083 95 21.9583 95 22.875C95 23.7917 94.9167 24.5417 94.75 25.125C94.625 25.6667 94.4167 26.1042 94.125 26.4375C93.875 26.7292 93.5625 26.9167 93.1875 27C92.8125 27.0833 92.375 27.125 91.875 27.125C91.5417 27.125 91.2292 27.0833 90.9375 27C90.6875 26.9167 90.4167 26.8333 90.125 26.75C89.8333 26.6667 89.5625 26.5208 89.3125 26.3125C89.7292 25.8125 90.0417 25.3333 90.25 24.875C90.5 24.4167 90.625 23.8542 90.625 23.1875C90.625 22.6042 90.4583 22.0833 90.125 21.625C89.8333 21.1667 89.3333 20.9375 88.625 20.9375C87.875 20.9375 87.1458 21.0833 86.4375 21.375C85.7708 21.6667 85.1667 22.0625 84.625 22.5625C84.125 23.0625 83.7083 23.6458 83.375 24.3125C83.0833 24.9375 82.9375 25.625 82.9375 26.375C82.9375 27.5 83.3542 28.5625 84.1875 29.5625C85.0625 30.5625 86.4167 31.4167 88.25 32.125ZM122.25 16.1875C121.792 16.1042 121.167 16.0208 120.375 15.9375C119.625 15.8542 118.854 15.7917 118.062 15.75C117.146 15.7083 116.167 15.6875 115.125 15.6875C114.083 15.6042 112.771 15.6042 111.188 15.6875C109.646 15.7292 108.021 15.75 106.312 15.75C106.271 16.8333 106.188 17.9375 106.062 19.0625C105.979 20.1875 105.896 21.2917 105.812 22.375C105.604 24.375 105.417 26.4167 105.25 28.5C105.125 30.5833 105.062 32.5625 105.062 34.4375C105.062 36.3125 105.167 38.0208 105.375 39.5625C105.625 41.0625 106.062 42.25 106.688 43.125C106.188 43.5 105.646 43.7917 105.062 44C104.479 44.1667 103.958 44.2917 103.5 44.375C102.958 44.5 102.417 44.5625 101.875 44.5625C101.375 44.5625 100.958 44.3958 100.625 44.0625C100.292 43.7292 100.104 43.1458 100.062 42.3125C99.9792 40.8958 99.9583 39.4792 100 38.0625C100.083 36.6042 100.167 35.0833 100.25 33.5C100.375 31.9167 100.5 30.2292 100.625 28.4375C100.75 26.6042 100.875 24.6042 101 22.4375C101.125 20.1875 101.188 18 101.188 15.875C99.6042 15.9167 98.2708 15.9375 97.1875 15.9375C96.1042 15.9375 95.5 15.9167 95.375 15.875C95.25 15.7917 95.1042 15.6042 94.9375 15.3125C94.7708 15.0625 94.5625 14.6875 94.3125 14.1875C94.0208 13.6875 93.6667 12.9792 93.25 12.0625C94.0417 12.0625 94.9167 12.0625 95.875 12.0625C96.7917 12.0625 97.6458 12.0417 98.4375 12C99.3542 11.9583 100.271 11.9167 101.188 11.875C101.146 11.2083 101.125 10.5 101.125 9.75C101.083 9.16667 101.062 8.52083 101.062 7.8125C101.062 7.0625 101.042 6.375 101 5.75C101 5.5 101.292 5.20833 101.875 4.875C102.5 4.5 103.167 4.16667 103.875 3.875C104.583 3.58333 105.229 3.39583 105.812 3.3125C106.438 3.22917 106.75 3.375 106.75 3.75C106.75 4.125 106.729 5.04167 106.688 6.5C106.688 7.91667 106.646 9.64583 106.562 11.6875C106.979 11.6875 107.292 11.6667 107.5 11.625C109.708 11.5417 111.479 11.4583 112.812 11.375C114.188 11.25 115.312 11.2292 116.188 11.3125C117.062 11.3958 117.833 11.6042 118.5 11.9375C119.167 12.2708 119.917 12.8125 120.75 13.5625C121.042 13.8125 121.292 14.0833 121.5 14.375C121.708 14.625 121.875 14.9167 122 15.25C122.167 15.5417 122.25 15.8542 122.25 16.1875ZM128.688 24.8125C128.688 25.3958 128.521 26 128.188 26.625C127.896 27.2083 127.521 27.7708 127.062 28.3125C126.604 28.8542 126.083 29.3333 125.5 29.75C124.958 30.125 124.438 30.3542 123.938 30.4375C124.271 29.1458 124.375 28.1458 124.25 27.4375C124.125 26.7292 123.917 26.2083 123.625 25.875C123.292 25.5 122.875 25.2917 122.375 25.25C121.625 25.25 120.896 25.6875 120.188 26.5625C119.521 27.3958 118.938 28.4375 118.438 29.6875C117.938 30.8958 117.542 32.2083 117.25 33.625C116.958 35 116.812 36.25 116.812 37.375C116.771 38.1667 116.792 38.9375 116.875 39.6875C116.917 40.3125 116.979 40.9583 117.062 41.625C117.188 42.2917 117.354 42.8125 117.562 43.1875C117.312 43.3958 116.896 43.6458 116.312 43.9375C115.771 44.2292 115.188 44.4167 114.562 44.5C113.979 44.5833 113.438 44.4792 112.938 44.1875C112.479 43.8958 112.229 43.2708 112.188 42.3125C112.104 41.3958 112.042 40.375 112 39.25C112 38.0833 112 36.9375 112 35.8125C112.042 34.6458 112.083 33.5 112.125 32.375C112.167 31.25 112.229 30.2083 112.312 29.25C112.396 27.4167 112.438 26 112.438 25C112.438 24 112.417 23.0417 112.375 22.125C112.375 21.9583 112.646 21.7292 113.188 21.4375C113.771 21.1042 114.396 20.8125 115.062 20.5625C115.771 20.3125 116.417 20.1667 117 20.125C117.583 20.0833 117.875 20.2083 117.875 20.5C117.875 20.9583 117.812 21.875 117.688 23.25C117.604 24.5833 117.479 25.9792 117.312 27.4375C117.604 26.6458 117.979 25.7917 118.438 24.875C118.938 23.9583 119.5 23.1042 120.125 22.3125C120.75 21.5208 121.458 20.875 122.25 20.375C123.042 19.8333 123.917 19.5625 124.875 19.5625C125.625 19.5625 126.229 19.7917 126.688 20.25C127.188 20.7083 127.583 21.2292 127.875 21.8125C128.167 22.3958 128.375 22.9792 128.5 23.5625C128.625 24.1458 128.688 24.5625 128.688 24.8125ZM148.75 40.8125C148.833 41.1042 148.958 41.375 149.125 41.625C149.25 41.8333 149.417 42.0417 149.625 42.25C149.875 42.4167 150.167 42.5208 150.5 42.5625C150.208 43.1458 149.917 43.5417 149.625 43.75C149.458 43.875 149.312 43.9583 149.188 44C148.812 44.125 148.25 44.1875 147.5 44.1875C146.75 44.1875 146.021 43.9583 145.312 43.5C145.062 43.2917 144.833 42.9792 144.625 42.5625C144.417 42.2292 144.229 41.7708 144.062 41.1875C143.938 40.5625 143.833 39.7708 143.75 38.8125C143.167 40.0625 142.5 41.0625 141.75 41.8125C141.042 42.5208 140.333 43.0417 139.625 43.375C138.833 43.8333 138.021 44.1042 137.188 44.1875C136.146 44.2708 135.146 44.1042 134.188 43.6875C133.271 43.2292 132.479 42.5625 131.812 41.6875C131.188 40.7708 130.708 39.6667 130.375 38.375C130.042 37.0833 129.938 35.625 130.062 34C130.188 32.2917 130.521 30.7708 131.062 29.4375C131.604 28.1042 132.25 26.9167 133 25.875C133.75 24.8333 134.542 23.9583 135.375 23.25C136.208 22.5 137 21.8958 137.75 21.4375C138.542 20.9375 139.208 20.5833 139.75 20.375C140.333 20.125 140.708 19.9792 140.875 19.9375C141.333 19.8125 141.729 19.7708 142.062 19.8125C142.396 19.8542 142.688 20.0417 142.938 20.375C143.021 20.5 143.125 20.6458 143.25 20.8125C143.333 20.9792 143.438 21.2083 143.562 21.5C143.688 21.75 143.792 22.0417 143.875 22.375C142.875 22.8333 141.938 23.3542 141.062 23.9375C140.188 24.4792 139.375 25.1458 138.625 25.9375C137.917 26.7292 137.292 27.6875 136.75 28.8125C136.208 29.9375 135.792 31.3125 135.5 32.9375C135.083 34.9792 135.188 36.625 135.812 37.875C136.479 39.125 137.375 39.6458 138.5 39.4375C139.167 39.2292 139.812 38.8333 140.438 38.25C140.979 37.75 141.542 37 142.125 36C142.75 35 143.333 33.625 143.875 31.875C144.083 29.375 144.25 27.4167 144.375 26C144.542 24.5417 144.688 23.4375 144.812 22.6875C144.979 21.8125 145.104 21.2292 145.188 20.9375C145.312 20.7292 145.562 20.5417 145.938 20.375C146.312 20.1667 146.729 20 147.188 19.875C147.646 19.75 148.062 19.6875 148.438 19.6875C148.812 19.6458 149.062 19.6458 149.188 19.6875C149.271 19.7292 149.312 20.25 149.312 21.25C149.312 22.2083 149.271 23.4375 149.188 24.9375C149.146 26.3958 149.083 28 149 29.75C148.917 31.4583 148.833 33.0833 148.75 34.625C148.708 36.1667 148.667 37.5208 148.625 38.6875C148.625 39.8125 148.667 40.5208 148.75 40.8125ZM180.938 49.5C178.688 49.5 176.646 48.9375 174.812 47.8125C172.979 46.7292 171.417 45.2292 170.125 43.3125C168.875 41.3958 167.896 39.1458 167.188 36.5625C166.521 33.9792 166.188 31.1875 166.188 28.1875C166.188 23.8958 166.688 20.0625 167.688 16.6875C168.688 13.3125 170 10.4583 171.625 8.125C173.292 5.79167 175.167 4 177.25 2.75C179.375 1.5 181.542 0.875 183.75 0.875C185.833 0.875 187.583 1.25 189 2C190.417 2.75 191.542 3.70833 192.375 4.875C193.25 6.04167 193.833 7.33333 194.125 8.75C194.458 10.125 194.562 11.4375 194.438 12.6875C194.229 15.1042 193.396 17.0625 191.938 18.5625C190.521 20.0625 188.875 20.8125 187 20.8125C186.375 20.7708 185.729 20.6667 185.062 20.5C184.479 20.3333 183.875 20.0833 183.25 19.75C182.625 19.4167 182.042 18.9375 181.5 18.3125C183.25 18.4375 184.604 18.0833 185.562 17.25C186.521 16.4167 187.229 15.4792 187.688 14.4375C188.188 13.2292 188.479 11.8125 188.562 10.1875C188.562 9.27083 188.417 8.47917 188.125 7.8125C187.833 7.10417 187.438 6.54167 186.938 6.125C186.479 5.66667 185.979 5.33333 185.438 5.125C184.896 4.91667 184.375 4.8125 183.875 4.8125C182.75 4.8125 181.521 5.25 180.188 6.125C178.896 7 177.667 8.33333 176.5 10.125C175.333 11.875 174.354 14.125 173.562 16.875C172.812 19.5833 172.438 22.8125 172.438 26.5625C172.438 30.2708 172.771 33.3125 173.438 35.6875C174.104 38.0208 174.917 39.8542 175.875 41.1875C176.833 42.4792 177.833 43.375 178.875 43.875C179.958 44.3333 180.875 44.5625 181.625 44.5625C183.083 44.4375 184.417 43.9375 185.625 43.0625C186.667 42.3125 187.646 41.125 188.562 39.5C189.521 37.8333 190.167 35.4583 190.5 32.375C191.042 32.4167 191.479 32.5417 191.812 32.75C192.188 32.9583 192.5 33.1667 192.75 33.375C193 33.625 193.229 33.9167 193.438 34.25C193.479 34.2917 193.479 34.7083 193.438 35.5C193.396 36.2917 193.25 37.25 193 38.375C192.75 39.5 192.354 40.7083 191.812 42C191.312 43.2917 190.583 44.5 189.625 45.625C188.708 46.75 187.542 47.6667 186.125 48.375C184.708 49.125 182.979 49.5 180.938 49.5ZM215 33.25C214.917 34.875 214.625 36.375 214.125 37.75C213.667 39.125 213.021 40.3333 212.188 41.375C211.354 42.375 210.354 43.1667 209.188 43.75C208.062 44.3333 206.812 44.6458 205.438 44.6875C204.229 44.7292 203.083 44.4375 202 43.8125C200.958 43.1875 200.042 42.3125 199.25 41.1875C198.458 40.0625 197.854 38.7292 197.438 37.1875C197.062 35.6042 196.958 33.8958 197.125 32.0625C197.25 29.9375 197.646 28.125 198.312 26.625C198.979 25.0833 199.688 23.8125 200.438 22.8125C201.188 21.8125 201.875 21.0833 202.5 20.625C203.167 20.125 203.583 19.8333 203.75 19.75C204.042 19.625 204.312 19.6042 204.562 19.6875C204.812 19.7292 205.083 19.7917 205.375 19.875C205.458 19.9167 205.542 20.0208 205.625 20.1875C205.792 20.4792 205.896 21.0208 205.938 21.8125C206.146 21.3542 206.417 20.9792 206.75 20.6875C207.083 20.3958 207.417 20.1875 207.75 20.0625C208.167 19.8958 208.583 19.7917 209 19.75C209.292 19.7083 209.792 19.9375 210.5 20.4375C211.25 20.9375 211.958 21.7292 212.625 22.8125C213.333 23.8958 213.938 25.3125 214.438 27.0625C214.938 28.7708 215.125 30.8333 215 33.25ZM210.75 32.5C210.792 31.5 210.75 30.5 210.625 29.5C210.542 28.4583 210.375 27.5208 210.125 26.6875C209.917 25.8125 209.646 25.125 209.312 24.625C208.979 24.0833 208.646 23.8125 208.312 23.8125C207.938 23.8958 207.521 24.0833 207.062 24.375C206.688 24.625 206.271 25.0208 205.812 25.5625C205.354 26.1042 204.917 26.875 204.5 27.875C204.458 27.75 204.417 27.5208 204.375 27.1875C204.333 26.8958 204.292 26.5208 204.25 26.0625C204.25 25.5625 204.292 24.8958 204.375 24.0625C203.792 24.7708 203.333 25.6042 203 26.5625C202.708 27.5208 202.479 28.4375 202.312 29.3125C202.146 30.3542 202.021 31.3958 201.938 32.4375C201.896 33.5625 201.938 34.6667 202.062 35.75C202.229 36.8333 202.479 37.7917 202.812 38.625C203.188 39.4583 203.625 40.125 204.125 40.625C204.625 41.125 205.229 41.3542 205.938 41.3125C206.646 41.2708 207.271 40.9792 207.812 40.4375C208.354 39.8958 208.833 39.2083 209.25 38.375C209.667 37.5417 210 36.6042 210.25 35.5625C210.5 34.5208 210.667 33.5 210.75 32.5ZM235.5 36.125C235.5 36.5833 235.333 37.2917 235 38.25C234.708 39.1667 234.208 40.1042 233.5 41.0625C232.792 41.9792 231.875 42.7917 230.75 43.5C229.667 44.2083 228.333 44.5625 226.75 44.5625C224.5 44.5625 222.604 43.9583 221.062 42.75C219.562 41.5 218.5 39.7292 217.875 37.4375C217.375 35.5208 217.229 33.4792 217.438 31.3125C217.688 29.1042 218.292 27.0625 219.25 25.1875C220.208 23.3125 221.542 21.7292 223.25 20.4375C224.958 19.1042 227.042 18.375 229.5 18.25C230.75 18.2083 231.792 18.4375 232.625 18.9375C233.458 19.4375 234.104 20.0833 234.562 20.875C235.021 21.6667 235.292 22.5417 235.375 23.5C235.458 24.4167 235.354 25.2917 235.062 26.125C234.812 26.9583 234.396 27.6667 233.812 28.25C233.271 28.7917 232.562 29.0833 231.688 29.125C230.812 29.2083 230.083 29.1042 229.5 28.8125C228.958 28.4792 228.521 28.0833 228.188 27.625C227.896 27.1667 227.688 26.6875 227.562 26.1875C227.479 25.6875 227.479 25.25 227.562 24.875C227.688 24.3333 227.896 23.8333 228.188 23.375C228.438 22.9583 228.792 22.5417 229.25 22.125C229.75 21.7083 230.396 21.375 231.188 21.125C231.062 21.0417 230.938 21 230.812 21C230.688 21 230.562 20.9792 230.438 20.9375C230.271 20.9375 230.146 20.9167 230.062 20.875C229.396 20.875 228.625 21.1042 227.75 21.5625C226.917 22.0208 226.104 22.75 225.312 23.75C224.562 24.75 223.917 26.0417 223.375 27.625C222.875 29.1667 222.625 31.0417 222.625 33.25C222.625 34.2083 222.729 35.1667 222.938 36.125C223.146 37.0417 223.458 37.875 223.875 38.625C224.333 39.3333 224.875 39.9167 225.5 40.375C226.167 40.7917 226.938 41 227.812 41C228.812 41 229.688 40.7917 230.438 40.375C231.229 39.9167 231.896 39.3958 232.438 38.8125C232.979 38.2292 233.396 37.6458 233.688 37.0625C234.021 36.4792 234.25 36.0417 234.375 35.75C234.5 35.5 234.708 35.375 235 35.375C235.333 35.375 235.5 35.625 235.5 36.125ZM239.5 21.875C239.5 21.625 239.833 21.3542 240.5 21.0625C241.167 20.7708 241.896 20.5417 242.688 20.375C243.521 20.1667 244.271 20.0625 244.938 20.0625C245.646 20.0208 246 20.1667 246 20.5C246 21.125 245.958 22.0208 245.875 23.1875C245.792 24.3125 245.688 25.5208 245.562 26.8125C245.438 28.0625 245.312 29.3333 245.188 30.625C245.062 31.875 244.979 32.9375 244.938 33.8125C244.854 34.7292 244.771 35.7292 244.688 36.8125C244.604 37.7292 244.542 38.75 244.5 39.875C244.458 41 244.458 42.1458 244.5 43.3125C244.5 43.5208 244.292 43.7292 243.875 43.9375C243.458 44.1458 243 44.2917 242.5 44.375C242 44.5 241.521 44.5625 241.062 44.5625C240.604 44.5625 240.354 44.4792 240.312 44.3125C240.229 44.1458 240.146 43.8542 240.062 43.4375C239.979 43.0208 239.896 42.4375 239.812 41.6875C239.729 40.8958 239.667 39.8958 239.625 38.6875C239.583 37.4375 239.604 35.9375 239.688 34.1875C239.854 30.7292 239.875 28.0625 239.75 26.1875C239.625 24.2708 239.542 22.8333 239.5 21.875ZM243.875 9.4375C244.708 9.4375 245.5 9.6875 246.25 10.1875C247 10.6875 247.375 11.3542 247.375 12.1875C247.375 12.8125 247.208 13.4167 246.875 14C246.583 14.5833 246.208 15.1042 245.75 15.5625C245.292 16.0208 244.771 16.3958 244.188 16.6875C243.604 16.9375 243.062 17.0625 242.562 17.0625C241.896 17.0625 241.354 16.9583 240.938 16.75C240.521 16.5 240.188 16.2292 239.938 15.9375C239.729 15.6042 239.583 15.25 239.5 14.875C239.417 14.5 239.375 14.1458 239.375 13.8125C239.375 13.3958 239.438 12.9375 239.562 12.4375C239.688 11.8958 239.917 11.4167 240.25 11C240.583 10.5417 241.042 10.1667 241.625 9.875C242.208 9.58333 242.958 9.4375 243.875 9.4375ZM242.312 15.25C242.562 15.25 242.833 15.1667 243.125 15C243.458 14.7917 243.75 14.5625 244 14.3125C244.292 14.0625 244.521 13.7917 244.688 13.5C244.896 13.2083 245 12.9583 245 12.75C245 12.4167 244.833 12.25 244.5 12.25C244.292 12.25 244.021 12.3333 243.688 12.5C243.396 12.6667 243.104 12.875 242.812 13.125C242.521 13.3333 242.271 13.5833 242.062 13.875C241.896 14.125 241.812 14.375 241.812 14.625C241.812 15.0417 241.979 15.25 242.312 15.25ZM256.812 42.3125C256.771 42.5625 256.542 42.8333 256.125 43.125C255.75 43.375 255.292 43.6042 254.75 43.8125C254.25 44.0208 253.771 44.1458 253.312 44.1875C252.854 44.2708 252.542 44.2292 252.375 44.0625C252.208 43.8958 251.938 43.5833 251.562 43.125C251.188 42.6667 250.958 41.9167 250.875 40.875C250.792 39.7917 250.75 38.4375 250.75 36.8125C250.75 35.1458 250.729 33.3125 250.688 31.3125V28.8125C250.688 28.0625 250.667 27.1875 250.625 26.1875C250.625 25.1875 250.604 24.1458 250.562 23.0625C250.938 22.8542 251.312 22.6667 251.688 22.5C252.104 22.2917 252.479 22.125 252.812 22C253.188 21.8333 253.542 21.7083 253.875 21.625C254.75 21.375 255.417 21.2292 255.875 21.1875C256.333 21.1458 256.604 21.2917 256.688 21.625C256.729 21.875 256.708 22.4792 256.625 23.4375C256.542 24.2708 256.438 25.5417 256.312 27.25C256.188 28.9167 255.979 31.25 255.688 34.25C256.229 32.9167 256.667 31.7708 257 30.8125C257.375 29.8542 257.688 29.0833 257.938 28.5C258.188 27.7917 258.417 27.2292 258.625 26.8125C258.833 26.2708 259.104 25.6667 259.438 25C259.771 24.3333 260.104 23.7083 260.438 23.125C260.812 22.5417 261.146 22.0208 261.438 21.5625C261.771 21.1042 262.021 20.8333 262.188 20.75C262.312 20.6667 262.688 20.6667 263.312 20.75C263.938 20.8333 264.604 21.0417 265.312 21.375C266.021 21.6667 266.708 22.1042 267.375 22.6875C268.042 23.2292 268.479 23.8958 268.688 24.6875C268.938 25.6042 269.021 26.8125 268.938 28.3125C268.896 29.8125 268.792 31.3542 268.625 32.9375C268.5 34.5208 268.396 36.0208 268.312 37.4375C268.229 38.8542 268.312 39.9375 268.562 40.6875C268.646 41.1042 268.771 41.4792 268.938 41.8125C269.021 42.1458 269.125 42.4583 269.25 42.75C269.417 43 269.583 43.1875 269.75 43.3125C268.75 43.7708 267.938 44.1042 267.312 44.3125C266.688 44.5208 266.208 44.6667 265.875 44.75C265.458 44.875 265.167 44.9167 265 44.875C264.625 44.75 264.292 44.4375 264 43.9375C263.75 43.4375 263.521 42.6458 263.312 41.5625C263.229 41.2292 263.188 40.6875 263.188 39.9375C263.229 39.1458 263.292 38.2708 263.375 37.3125C263.458 36.3125 263.542 35.2917 263.625 34.25C263.75 33.1667 263.833 32.1667 263.875 31.25C263.958 30.2917 264.021 29.4792 264.062 28.8125C264.104 28.1042 264.104 27.625 264.062 27.375C263.854 26.625 263.562 26.1042 263.188 25.8125C262.812 25.4792 262.521 25.4375 262.312 25.6875C261.771 26.3125 261.188 27.3333 260.562 28.75C259.979 30.125 259.417 31.6458 258.875 33.3125C258.333 34.9375 257.875 36.5625 257.5 38.1875C257.125 39.8125 256.896 41.1875 256.812 42.3125ZM291.438 40.8125C291.521 41.1042 291.646 41.375 291.812 41.625C291.938 41.8333 292.104 42.0417 292.312 42.25C292.562 42.4167 292.854 42.5208 293.188 42.5625C292.896 43.1458 292.604 43.5417 292.312 43.75C292.146 43.875 292 43.9583 291.875 44C291.5 44.125 290.938 44.1875 290.188 44.1875C289.438 44.1875 288.708 43.9583 288 43.5C287.75 43.2917 287.521 42.9792 287.312 42.5625C287.104 42.2292 286.917 41.7708 286.75 41.1875C286.625 40.5625 286.521 39.7708 286.438 38.8125C285.854 40.0625 285.188 41.0625 284.438 41.8125C283.729 42.5208 283.021 43.0417 282.312 43.375C281.521 43.8333 280.708 44.1042 279.875 44.1875C278.833 44.2708 277.833 44.1042 276.875 43.6875C275.958 43.2292 275.167 42.5625 274.5 41.6875C273.875 40.7708 273.396 39.6667 273.062 38.375C272.729 37.0833 272.625 35.625 272.75 34C272.875 32.2917 273.208 30.7708 273.75 29.4375C274.292 28.1042 274.938 26.9167 275.688 25.875C276.438 24.8333 277.229 23.9583 278.062 23.25C278.896 22.5 279.688 21.8958 280.438 21.4375C281.229 20.9375 281.896 20.5833 282.438 20.375C283.021 20.125 283.396 19.9792 283.562 19.9375C284.021 19.8125 284.417 19.7708 284.75 19.8125C285.083 19.8542 285.375 20.0417 285.625 20.375C285.708 20.5 285.812 20.6458 285.938 20.8125C286.021 20.9792 286.125 21.2083 286.25 21.5C286.375 21.75 286.479 22.0417 286.562 22.375C285.562 22.8333 284.625 23.3542 283.75 23.9375C282.875 24.4792 282.062 25.1458 281.312 25.9375C280.604 26.7292 279.979 27.6875 279.438 28.8125C278.896 29.9375 278.479 31.3125 278.188 32.9375C277.771 34.9792 277.875 36.625 278.5 37.875C279.167 39.125 280.062 39.6458 281.188 39.4375C281.854 39.2292 282.5 38.8333 283.125 38.25C283.667 37.75 284.229 37 284.812 36C285.438 35 286.021 33.625 286.562 31.875C286.771 29.375 286.938 27.4167 287.062 26C287.229 24.5417 287.375 23.4375 287.5 22.6875C287.667 21.8125 287.792 21.2292 287.875 20.9375C288 20.7292 288.25 20.5417 288.625 20.375C289 20.1667 289.417 20 289.875 19.875C290.333 19.75 290.75 19.6875 291.125 19.6875C291.5 19.6458 291.75 19.6458 291.875 19.6875C291.958 19.7292 292 20.25 292 21.25C292 22.2083 291.958 23.4375 291.875 24.9375C291.833 26.3958 291.771 28 291.688 29.75C291.604 31.4583 291.521 33.0833 291.438 34.625C291.396 36.1667 291.354 37.5208 291.312 38.6875C291.312 39.8125 291.354 40.5208 291.438 40.8125Z" fill="#333333"/>
</svg>
