<svg width="161" height="78" viewBox="0 0 161 78" fill="none" xmlns="http://www.w3.org/2000/svg">
<path d="M32.4062 57.3438C31.7812 55.4062 31.1562 53.6875 30.5312 52.1875C29.9688 50.6875 29.4688 49.4062 29.0312 48.3438C26.5938 49.1562 23.9375 49.7188 21.0625 50.0312C21.0625 54.0312 21.1562 57.4375 21.3438 60.25C21.4062 62 21.4688 63.5 21.5312 64.75C21.6562 65.9375 21.75 66.9688 21.8125 67.8438C21.9375 68.7188 22.0625 69.5 22.1875 70.1875C22.3125 70.9375 22.5 71.6562 22.75 72.3438C21.5 73.2812 20.2812 73.9688 19.0938 74.4062C17.9688 74.8438 16.9688 75.1562 16.0938 75.3438C15.0312 75.5938 14.0938 75.6562 13.2812 75.5312C12.9688 74.6562 12.6875 73.7188 12.4375 72.7188C12.1875 71.7812 12 70.4688 11.875 68.7812C11.8125 67.1562 11.7812 65.0625 11.7812 62.5C11.7812 59.9375 11.875 56.6562 12.0625 52.6562C12.125 52.2188 12.1562 51.7812 12.1562 51.3438C12.1562 50.9062 12.1875 50.4688 12.25 50.0312C11.6875 49.9688 11.0938 49.9062 10.4688 49.8438C9.90625 49.7812 9.34375 49.7188 8.78125 49.6562C8.40625 48.6562 8.15625 47.7812 8.03125 47.0312C7.90625 46.2188 7.84375 45.5625 7.84375 45.0625C7.84375 44.4375 7.90625 43.9375 8.03125 43.5625C9.03125 43.75 10.0312 43.8438 11.0312 43.8438H12.4375C12.5625 41.2188 12.6875 38.5625 12.8125 35.875C12.9375 33.125 13.0312 30.4688 13.0938 27.9062C13.2188 25.2812 13.3125 22.8125 13.375 20.5C13.4375 18.125 13.5 15.9688 13.5625 14.0312C11.6875 15.2812 10.0625 16.9062 8.6875 18.9062C7.3125 20.9062 6.375 23.2188 5.875 25.8438C5.0625 25.7188 4.375 25.3438 3.8125 24.7188C3.25 24.0312 2.78125 23.3438 2.40625 22.6562C1.96875 21.8438 1.59375 20.9375 1.28125 19.9375C0.96875 18.75 0.96875 17.5625 1.28125 16.375C1.59375 15.125 2.0625 13.9688 2.6875 12.9062C3.3125 11.7812 4.03125 10.8125 4.84375 10C5.65625 9.125 6.4375 8.4375 7.1875 7.9375C8.5 7.125 9.84375 6.40625 11.2188 5.78125C12.6562 5.09375 14.25 4.53125 16 4.09375C16.6875 3.40625 17.4375 2.78125 18.25 2.21875C19.125 1.65625 19.9375 1.3125 20.6875 1.1875C21.75 0.9375 22.3438 1.59375 22.4688 3.15625C23.0312 3.09375 23.625 3.0625 24.25 3.0625C24.875 3 25.5312 2.96875 26.2188 2.96875C28.5938 2.96875 31.0625 3.34375 33.625 4.09375C36.1875 4.84375 38.5312 6.0625 40.6562 7.75C42.8438 9.375 44.625 11.5313 46 14.2188C47.375 16.8438 48.0625 20.0625 48.0625 23.875C48.0625 28.1875 47.0312 32.1562 44.9688 35.7812C42.9688 39.4062 40.0938 42.4062 36.3438 44.7812C36.7812 45.9062 37.3438 47.3125 38.0312 49C38.7188 50.6875 39.4062 52.5938 40.0938 54.7188C41.0938 57.3438 42.1562 59.8125 43.2812 62.125C44.4688 64.375 45.6875 66.3438 46.9375 68.0312C48.1875 69.7188 49.5 71.0625 50.875 72.0625C52.25 73.125 53.625 73.75 55 73.9375C54.1875 75.1875 53.25 76.0625 52.1875 76.5625C51.125 77.0625 50.0625 77.375 49 77.5C47.8125 77.6875 46.5625 77.6875 45.25 77.5C43.4375 77.125 41.875 76.25 40.5625 74.875C39.25 73.5 38.0938 71.8438 37.0938 69.9062C36.1562 67.9688 35.2812 65.9062 34.4688 63.7188C33.7188 61.4688 33.0312 59.3438 32.4062 57.3438ZM21.5312 17.4062C21.5312 18.7812 21.5 20.4375 21.4375 22.375C21.375 24.3125 21.3125 26.4062 21.25 28.6562C21.25 30.9062 21.2188 33.2812 21.1562 35.7812C21.0938 38.2188 21.0625 40.6562 21.0625 43.0938C22.75 42.8438 24.5938 42.4375 26.5938 41.875C28.6562 41.3125 30.5625 40.375 32.3125 39.0625C34.0625 37.75 35.5312 36 36.7188 33.8125C37.9062 31.625 38.5 28.8125 38.5 25.375C38.5 22.75 38.0312 20.5312 37.0938 18.7188C36.2188 16.8438 35.0625 15.3438 33.625 14.2188C32.1875 13.0312 30.5938 12.1875 28.8438 11.6875C27.1562 11.125 25.4688 10.8438 23.7812 10.8438C23.4688 10.8438 23.1562 10.8438 22.8438 10.8438C22.5312 10.8438 22.1875 10.875 21.8125 10.9375C21.625 12.9375 21.5312 15.0938 21.5312 17.4062ZM65.7812 68.0312C61.4062 68.0312 58.0312 66.5625 55.6562 63.625C53.2812 60.6875 52.0938 56.8438 52.0938 52.0938C52.0938 48.7812 52.5625 45.6875 53.5 42.8125C54.5 39.875 55.8125 37.3438 57.4375 35.2188C59.0625 33.0938 60.9375 31.4375 63.0625 30.25C65.25 29 67.5312 28.375 69.9062 28.375C72.2188 28.375 74.1875 29.2188 75.8125 30.9062C77.4375 32.5312 78.25 34.875 78.25 37.9375C78.25 39.9375 77.8125 41.9375 76.9375 43.9375C76.0625 45.875 74.9062 47.625 73.4688 49.1875C72.0938 50.6875 70.5625 51.9062 68.875 52.8438C67.1875 53.7812 65.5625 54.25 64 54.25C63 54.25 62.1562 54.125 61.4688 53.875C60.7812 53.625 60.1562 53.25 59.5938 52.75C59.7812 56.3125 60.5625 58.8125 61.9375 60.25C63.3125 61.625 65.0938 62.3125 67.2812 62.3125C68.7812 62.3125 70.0938 62 71.2188 61.375C72.4062 60.75 73.4062 60.0312 74.2188 59.2188C75.0312 58.4062 75.6875 57.5938 76.1875 56.7812C76.6875 55.9062 77.0312 55.25 77.2188 54.8125C77.4062 54.4375 77.7188 54.25 78.1562 54.25C78.6562 54.25 78.9062 54.625 78.9062 55.375C78.9062 56.0625 78.6562 57.125 78.1562 58.5625C77.7188 59.9375 76.9688 61.3438 75.9062 62.7812C74.8438 64.1562 73.4688 65.375 71.7812 66.4375C70.1562 67.5 68.1562 68.0312 65.7812 68.0312ZM70.0938 32.4062C69.7188 32.4062 69 32.8125 67.9375 33.625C66.9375 34.375 65.8438 35.5 64.6562 37C63.5312 38.5 62.4688 40.3125 61.4688 42.4375C60.5312 44.5 59.9375 46.8438 59.6875 49.4688C63.4375 48.5938 66.4062 47.2188 68.5938 45.3438C70.7812 43.4688 71.875 40.7188 71.875 37.0938C71.875 35.2812 71.6562 34.0625 71.2188 33.4375C70.7812 32.75 70.4062 32.4062 70.0938 32.4062ZM99.1562 49.1875C100.531 49.6875 101.844 50.1562 103.094 50.5938C104.344 51.0312 105.438 51.5625 106.375 52.1875C107.312 52.8125 108.062 53.5625 108.625 54.4375C109.188 55.25 109.469 56.2812 109.469 57.5312C109.469 59.0312 109.125 60.4375 108.438 61.75C107.812 63.0625 106.875 64.2188 105.625 65.2188C104.375 66.2188 102.844 67 101.031 67.5625C99.2812 68.1875 97.3125 68.5 95.125 68.5C92.6875 68.5 90.7188 68.25 89.2188 67.75C87.7188 67.3125 86.5625 66.7812 85.75 66.1562C84.9375 65.5312 84.4062 64.9062 84.1562 64.2812C83.9062 63.6562 83.7812 63.1562 83.7812 62.7812C83.7812 62.0312 83.9375 61.2188 84.25 60.3438C84.5625 59.4062 85.1562 58.4062 86.0312 57.3438C86.4062 56.9062 86.8125 56.5 87.25 56.125C88.125 55.375 89 54.9062 89.875 54.7188C89.75 56.1562 89.9062 57.3438 90.3438 58.2812C90.8438 59.1562 91.4688 59.8438 92.2188 60.3438C93.0312 60.8438 93.9062 61.1875 94.8438 61.375C95.8438 61.5625 96.7812 61.6562 97.6562 61.6562C98.5312 61.6562 99.4062 61.5312 100.281 61.2812C101.219 61.0312 102.062 60.7188 102.812 60.3438C103.562 59.9062 104.156 59.4375 104.594 58.9375C105.094 58.375 105.344 57.7812 105.344 57.1562C105.344 56.4688 105.062 55.9062 104.5 55.4688C103.938 55.0312 103.219 54.6875 102.344 54.4375C101.531 54.125 100.625 53.9062 99.625 53.7812C98.6875 53.5938 97.7812 53.4062 96.9062 53.2188C96.0312 53.0312 94.8438 52.7812 93.3438 52.4688C91.9062 52.0938 90.4688 51.5312 89.0312 50.7812C87.6562 50.0312 86.4375 49.0312 85.375 47.7812C84.375 46.5312 83.875 44.875 83.875 42.8125C83.875 40.4375 84.4688 38.375 85.6562 36.625C86.9062 34.8125 88.4062 33.3125 90.1562 32.125C91.9688 30.875 93.875 29.9375 95.875 29.3125C97.875 28.6875 99.6562 28.375 101.219 28.375C102.031 28.375 102.906 28.5 103.844 28.75C104.781 28.9375 105.656 29.3125 106.469 29.875C107.281 30.375 107.938 31.0625 108.438 31.9375C109 32.8125 109.281 33.9375 109.281 35.3125C109.281 36.6875 109.156 37.8125 108.906 38.6875C108.719 39.5 108.406 40.1562 107.969 40.6562C107.594 41.0938 107.125 41.375 106.562 41.5C106 41.625 105.344 41.6875 104.594 41.6875C104.094 41.6875 103.625 41.625 103.188 41.5C102.812 41.375 102.406 41.25 101.969 41.125C101.531 41 101.125 40.7812 100.75 40.4688C101.375 39.7188 101.844 39 102.156 38.3125C102.531 37.625 102.719 36.7812 102.719 35.7812C102.719 34.9062 102.469 34.125 101.969 33.4375C101.531 32.75 100.781 32.4062 99.7188 32.4062C98.5938 32.4062 97.5 32.625 96.4375 33.0625C95.4375 33.5 94.5312 34.0938 93.7188 34.8438C92.9688 35.5938 92.3438 36.4688 91.8438 37.4688C91.4062 38.4062 91.1875 39.4375 91.1875 40.5625C91.1875 42.25 91.8125 43.8438 93.0625 45.3438C94.375 46.8438 96.4062 48.125 99.1562 49.1875ZM150.156 25.2812C149.469 25.1562 148.531 25.0312 147.344 24.9062C146.219 24.7812 145.062 24.6875 143.875 24.625C142.5 24.5625 141.031 24.5312 139.469 24.5312C137.906 24.4062 135.938 24.4062 133.562 24.5312C131.25 24.5938 128.812 24.625 126.25 24.625C126.188 26.25 126.062 27.9062 125.875 29.5938C125.75 31.2812 125.625 32.9375 125.5 34.5625C125.188 37.5625 124.906 40.625 124.656 43.75C124.469 46.875 124.375 49.8438 124.375 52.6562C124.375 55.4688 124.531 58.0312 124.844 60.3438C125.219 62.5938 125.875 64.375 126.812 65.6875C126.062 66.25 125.25 66.6875 124.375 67C123.5 67.25 122.719 67.4375 122.031 67.5625C121.219 67.75 120.406 67.8438 119.594 67.8438C118.844 67.8438 118.219 67.5938 117.719 67.0938C117.219 66.5938 116.938 65.7188 116.875 64.4688C116.75 62.3438 116.719 60.2188 116.781 58.0938C116.906 55.9062 117.031 53.625 117.156 51.25C117.344 48.875 117.531 46.3438 117.719 43.6562C117.906 40.9062 118.094 37.9062 118.281 34.6562C118.469 31.2812 118.562 28 118.562 24.8125C116.188 24.875 114.188 24.9062 112.562 24.9062C110.938 24.9062 110.031 24.875 109.844 24.8125C109.656 24.6875 109.438 24.4062 109.188 23.9688C108.938 23.5938 108.625 23.0312 108.25 22.2812C107.812 21.5312 107.281 20.4688 106.656 19.0938C107.844 19.0938 109.156 19.0938 110.594 19.0938C111.969 19.0938 113.25 19.0625 114.438 19C115.812 18.9375 117.188 18.875 118.562 18.8125C118.5 17.8125 118.469 16.75 118.469 15.625C118.406 14.75 118.375 13.7812 118.375 12.7188C118.375 11.5938 118.344 10.5625 118.281 9.625C118.281 9.25 118.719 8.8125 119.594 8.3125C120.531 7.75 121.531 7.25 122.594 6.8125C123.656 6.375 124.625 6.09375 125.5 5.96875C126.438 5.84375 126.906 6.0625 126.906 6.625C126.906 7.1875 126.875 8.5625 126.812 10.75C126.812 12.875 126.75 15.4688 126.625 18.5312C127.25 18.5312 127.719 18.5 128.031 18.4375C131.344 18.3125 134 18.1875 136 18.0625C138.062 17.875 139.75 17.8438 141.062 17.9688C142.375 18.0938 143.531 18.4062 144.531 18.9062C145.531 19.4062 146.656 20.2188 147.906 21.3438C148.344 21.7188 148.719 22.125 149.031 22.5625C149.344 22.9375 149.594 23.375 149.781 23.875C150.031 24.3125 150.156 24.7812 150.156 25.2812ZM160.281 50.875C160.156 53.3125 159.719 55.5625 158.969 57.625C158.281 59.6875 157.312 61.5 156.062 63.0625C154.812 64.5625 153.312 65.75 151.562 66.625C149.875 67.5 148 67.9688 145.938 68.0312C144.125 68.0938 142.406 67.6562 140.781 66.7188C139.219 65.7812 137.844 64.4688 136.656 62.7812C135.469 61.0938 134.562 59.0938 133.938 56.7812C133.375 54.4062 133.219 51.8438 133.469 49.0938C133.656 45.9062 134.25 43.1875 135.25 40.9375C136.25 38.625 137.312 36.7188 138.438 35.2188C139.562 33.7188 140.594 32.625 141.531 31.9375C142.531 31.1875 143.156 30.75 143.406 30.625C143.844 30.4375 144.25 30.4062 144.625 30.5312C145 30.5938 145.406 30.6875 145.844 30.8125C145.969 30.875 146.094 31.0312 146.219 31.2812C146.469 31.7188 146.625 32.5312 146.688 33.7188C147 33.0312 147.406 32.4688 147.906 32.0312C148.406 31.5938 148.906 31.2812 149.406 31.0938C150.031 30.8438 150.656 30.6875 151.281 30.625C151.719 30.5625 152.469 30.9062 153.531 31.6562C154.656 32.4062 155.719 33.5938 156.719 35.2188C157.781 36.8438 158.688 38.9688 159.438 41.5938C160.188 44.1562 160.469 47.25 160.281 50.875ZM153.906 49.75C153.969 48.25 153.906 46.75 153.719 45.25C153.594 43.6875 153.344 42.2812 152.969 41.0312C152.656 39.7188 152.25 38.6875 151.75 37.9375C151.25 37.125 150.75 36.7188 150.25 36.7188C149.688 36.8438 149.062 37.125 148.375 37.5625C147.812 37.9375 147.188 38.5312 146.5 39.3438C145.812 40.1562 145.156 41.3125 144.531 42.8125C144.469 42.625 144.406 42.2812 144.344 41.7812C144.281 41.3438 144.219 40.7812 144.156 40.0938C144.156 39.3438 144.219 38.3438 144.344 37.0938C143.469 38.1562 142.781 39.4062 142.281 40.8438C141.844 42.2812 141.5 43.6562 141.25 44.9688C141 46.5312 140.812 48.0938 140.688 49.6562C140.625 51.3438 140.688 53 140.875 54.625C141.125 56.25 141.5 57.6875 142 58.9375C142.562 60.1875 143.219 61.1875 143.969 61.9375C144.719 62.6875 145.625 63.0312 146.688 62.9688C147.75 62.9062 148.688 62.4688 149.5 61.6562C150.312 60.8438 151.031 59.8125 151.656 58.5625C152.281 57.3125 152.781 55.9062 153.156 54.3438C153.531 52.7812 153.781 51.25 153.906 49.75Z" fill="black"/>
</svg>
