<svg width="161" height="78" viewBox="0 0 161 78" fill="none" xmlns="http://www.w3.org/2000/svg">
<path d="M32.5068 57.3438C31.8818 55.4062 31.2568 53.6875 30.6318 52.1875C30.0693 50.6875 29.5693 49.4062 29.1318 48.3438C26.6943 49.1562 24.038 49.7188 21.163 50.0312C21.163 54.0312 21.2568 57.4375 21.4443 60.25C21.5068 62 21.5693 63.5 21.6318 64.75C21.7568 65.9375 21.8505 66.9688 21.913 67.8438C22.038 68.7188 22.163 69.5 22.288 70.1875C22.413 70.9375 22.6005 71.6562 22.8505 72.3438C21.6005 73.2812 20.3818 73.9688 19.1943 74.4062C18.0693 74.8438 17.0693 75.1562 16.1943 75.3438C15.1318 75.5938 14.1943 75.6562 13.3818 75.5312C13.0693 74.6562 12.788 73.7188 12.538 72.7188C12.288 71.7812 12.1005 70.4688 11.9755 68.7812C11.913 67.1562 11.8818 65.0625 11.8818 62.5C11.8818 59.9375 11.9755 56.6562 12.163 52.6562C12.2255 52.2188 12.2568 51.7812 12.2568 51.3438C12.2568 50.9062 12.288 50.4688 12.3505 50.0312C11.788 49.9688 11.1943 49.9062 10.5693 49.8438C10.0068 49.7812 9.44427 49.7188 8.88177 49.6562C8.50677 48.6562 8.25677 47.7812 8.13177 47.0312C8.00677 46.2188 7.94427 45.5625 7.94427 45.0625C7.94427 44.4375 8.00677 43.9375 8.13177 43.5625C9.13177 43.75 10.1318 43.8438 11.1318 43.8438H12.538C12.663 41.2188 12.788 38.5625 12.913 35.875C13.038 33.125 13.1318 30.4688 13.1943 27.9062C13.3193 25.2812 13.413 22.8125 13.4755 20.5C13.538 18.125 13.6005 15.9688 13.663 14.0312C11.788 15.2812 10.163 16.9062 8.78802 18.9062C7.41302 20.9062 6.47552 23.2188 5.97552 25.8438C5.16302 25.7188 4.47552 25.3438 3.91302 24.7188C3.35052 24.0312 2.88177 23.3438 2.50677 22.6562C2.06927 21.8438 1.69427 20.9375 1.38177 19.9375C1.06927 18.75 1.06927 17.5625 1.38177 16.375C1.69427 15.125 2.16302 13.9688 2.78802 12.9062C3.41302 11.7812 4.13177 10.8125 4.94427 10C5.75677 9.125 6.53802 8.4375 7.28802 7.9375C8.60052 7.125 9.94427 6.40625 11.3193 5.78125C12.7568 5.09375 14.3505 4.53125 16.1005 4.09375C16.788 3.40625 17.538 2.78125 18.3505 2.21875C19.2255 1.65625 20.038 1.3125 20.788 1.1875C21.8505 0.9375 22.4443 1.59375 22.5693 3.15625C23.1318 3.09375 23.7255 3.0625 24.3505 3.0625C24.9755 3 25.6318 2.96875 26.3193 2.96875C28.6943 2.96875 31.163 3.34375 33.7255 4.09375C36.288 4.84375 38.6318 6.0625 40.7568 7.75C42.9443 9.375 44.7255 11.5313 46.1005 14.2188C47.4755 16.8438 48.163 20.0625 48.163 23.875C48.163 28.1875 47.1318 32.1562 45.0693 35.7812C43.0693 39.4062 40.1943 42.4062 36.4443 44.7812C36.8818 45.9062 37.4443 47.3125 38.1318 49C38.8193 50.6875 39.5068 52.5938 40.1943 54.7188C41.1943 57.3438 42.2568 59.8125 43.3818 62.125C44.5693 64.375 45.788 66.3438 47.038 68.0312C48.288 69.7188 49.6005 71.0625 50.9755 72.0625C52.3505 73.125 53.7255 73.75 55.1005 73.9375C54.288 75.1875 53.3505 76.0625 52.288 76.5625C51.2255 77.0625 50.163 77.375 49.1005 77.5C47.913 77.6875 46.663 77.6875 45.3505 77.5C43.538 77.125 41.9755 76.25 40.663 74.875C39.3505 73.5 38.1943 71.8438 37.1943 69.9062C36.2568 67.9688 35.3818 65.9062 34.5693 63.7188C33.8193 61.4688 33.1318 59.3438 32.5068 57.3438ZM21.6318 17.4062C21.6318 18.7812 21.6005 20.4375 21.538 22.375C21.4755 24.3125 21.413 26.4062 21.3505 28.6562C21.3505 30.9062 21.3193 33.2812 21.2568 35.7812C21.1943 38.2188 21.163 40.6562 21.163 43.0938C22.8505 42.8438 24.6943 42.4375 26.6943 41.875C28.7568 41.3125 30.663 40.375 32.413 39.0625C34.163 37.75 35.6318 36 36.8193 33.8125C38.0068 31.625 38.6005 28.8125 38.6005 25.375C38.6005 22.75 38.1318 20.5312 37.1943 18.7188C36.3193 16.8438 35.163 15.3438 33.7255 14.2188C32.288 13.0312 30.6943 12.1875 28.9443 11.6875C27.2568 11.125 25.5693 10.8438 23.8818 10.8438C23.5693 10.8438 23.2568 10.8438 22.9443 10.8438C22.6318 10.8438 22.288 10.875 21.913 10.9375C21.7255 12.9375 21.6318 15.0938 21.6318 17.4062ZM65.8818 68.0312C61.5068 68.0312 58.1318 66.5625 55.7568 63.625C53.3818 60.6875 52.1943 56.8438 52.1943 52.0938C52.1943 48.7812 52.663 45.6875 53.6005 42.8125C54.6005 39.875 55.913 37.3438 57.538 35.2188C59.163 33.0938 61.038 31.4375 63.163 30.25C65.3505 29 67.6318 28.375 70.0068 28.375C72.3193 28.375 74.288 29.2188 75.913 30.9062C77.538 32.5312 78.3505 34.875 78.3505 37.9375C78.3505 39.9375 77.913 41.9375 77.038 43.9375C76.163 45.875 75.0068 47.625 73.5693 49.1875C72.1943 50.6875 70.663 51.9062 68.9755 52.8438C67.288 53.7812 65.663 54.25 64.1005 54.25C63.1005 54.25 62.2568 54.125 61.5693 53.875C60.8818 53.625 60.2568 53.25 59.6943 52.75C59.8818 56.3125 60.663 58.8125 62.038 60.25C63.413 61.625 65.1943 62.3125 67.3818 62.3125C68.8818 62.3125 70.1943 62 71.3193 61.375C72.5068 60.75 73.5068 60.0312 74.3193 59.2188C75.1318 58.4062 75.788 57.5938 76.288 56.7812C76.788 55.9062 77.1318 55.25 77.3193 54.8125C77.5068 54.4375 77.8193 54.25 78.2568 54.25C78.7568 54.25 79.0068 54.625 79.0068 55.375C79.0068 56.0625 78.7568 57.125 78.2568 58.5625C77.8193 59.9375 77.0693 61.3438 76.0068 62.7812C74.9443 64.1562 73.5693 65.375 71.8818 66.4375C70.2568 67.5 68.2568 68.0312 65.8818 68.0312ZM70.1943 32.4062C69.8193 32.4062 69.1005 32.8125 68.038 33.625C67.038 34.375 65.9443 35.5 64.7568 37C63.6318 38.5 62.5693 40.3125 61.5693 42.4375C60.6318 44.5 60.038 46.8438 59.788 49.4688C63.538 48.5938 66.5068 47.2188 68.6943 45.3438C70.8818 43.4688 71.9755 40.7188 71.9755 37.0938C71.9755 35.2812 71.7568 34.0625 71.3193 33.4375C70.8818 32.75 70.5068 32.4062 70.1943 32.4062ZM99.2568 49.1875C100.632 49.6875 101.944 50.1562 103.194 50.5938C104.444 51.0312 105.538 51.5625 106.476 52.1875C107.413 52.8125 108.163 53.5625 108.726 54.4375C109.288 55.25 109.569 56.2812 109.569 57.5312C109.569 59.0312 109.226 60.4375 108.538 61.75C107.913 63.0625 106.976 64.2188 105.726 65.2188C104.476 66.2188 102.944 67 101.132 67.5625C99.3818 68.1875 97.413 68.5 95.2255 68.5C92.788 68.5 90.8193 68.25 89.3193 67.75C87.8193 67.3125 86.663 66.7812 85.8505 66.1562C85.038 65.5312 84.5068 64.9062 84.2568 64.2812C84.0068 63.6562 83.8818 63.1562 83.8818 62.7812C83.8818 62.0312 84.038 61.2188 84.3505 60.3438C84.663 59.4062 85.2568 58.4062 86.1318 57.3438C86.5068 56.9062 86.913 56.5 87.3505 56.125C88.2255 55.375 89.1005 54.9062 89.9755 54.7188C89.8505 56.1562 90.0068 57.3438 90.4443 58.2812C90.9443 59.1562 91.5693 59.8438 92.3193 60.3438C93.1318 60.8438 94.0068 61.1875 94.9443 61.375C95.9443 61.5625 96.8818 61.6562 97.7568 61.6562C98.6318 61.6562 99.5068 61.5312 100.382 61.2812C101.319 61.0312 102.163 60.7188 102.913 60.3438C103.663 59.9062 104.257 59.4375 104.694 58.9375C105.194 58.375 105.444 57.7812 105.444 57.1562C105.444 56.4688 105.163 55.9062 104.601 55.4688C104.038 55.0312 103.319 54.6875 102.444 54.4375C101.632 54.125 100.726 53.9062 99.7255 53.7812C98.788 53.5938 97.8818 53.4062 97.0068 53.2188C96.1318 53.0312 94.9443 52.7812 93.4443 52.4688C92.0068 52.0938 90.5693 51.5312 89.1318 50.7812C87.7568 50.0312 86.538 49.0312 85.4755 47.7812C84.4755 46.5312 83.9755 44.875 83.9755 42.8125C83.9755 40.4375 84.5693 38.375 85.7568 36.625C87.0068 34.8125 88.5068 33.3125 90.2568 32.125C92.0693 30.875 93.9755 29.9375 95.9755 29.3125C97.9755 28.6875 99.7568 28.375 101.319 28.375C102.132 28.375 103.007 28.5 103.944 28.75C104.882 28.9375 105.757 29.3125 106.569 29.875C107.382 30.375 108.038 31.0625 108.538 31.9375C109.101 32.8125 109.382 33.9375 109.382 35.3125C109.382 36.6875 109.257 37.8125 109.007 38.6875C108.819 39.5 108.507 40.1562 108.069 40.6562C107.694 41.0938 107.226 41.375 106.663 41.5C106.101 41.625 105.444 41.6875 104.694 41.6875C104.194 41.6875 103.726 41.625 103.288 41.5C102.913 41.375 102.507 41.25 102.069 41.125C101.632 41 101.226 40.7812 100.851 40.4688C101.476 39.7188 101.944 39 102.257 38.3125C102.632 37.625 102.819 36.7812 102.819 35.7812C102.819 34.9062 102.569 34.125 102.069 33.4375C101.632 32.75 100.882 32.4062 99.8193 32.4062C98.6943 32.4062 97.6005 32.625 96.538 33.0625C95.538 33.5 94.6318 34.0938 93.8193 34.8438C93.0693 35.5938 92.4443 36.4688 91.9443 37.4688C91.5068 38.4062 91.288 39.4375 91.288 40.5625C91.288 42.25 91.913 43.8438 93.163 45.3438C94.4755 46.8438 96.5068 48.125 99.2568 49.1875ZM150.257 25.2812C149.569 25.1562 148.632 25.0312 147.444 24.9062C146.319 24.7812 145.163 24.6875 143.976 24.625C142.601 24.5625 141.132 24.5312 139.569 24.5312C138.007 24.4062 136.038 24.4062 133.663 24.5312C131.351 24.5938 128.913 24.625 126.351 24.625C126.288 26.25 126.163 27.9062 125.976 29.5938C125.851 31.2812 125.726 32.9375 125.601 34.5625C125.288 37.5625 125.007 40.625 124.757 43.75C124.569 46.875 124.476 49.8438 124.476 52.6562C124.476 55.4688 124.632 58.0312 124.944 60.3438C125.319 62.5938 125.976 64.375 126.913 65.6875C126.163 66.25 125.351 66.6875 124.476 67C123.601 67.25 122.819 67.4375 122.132 67.5625C121.319 67.75 120.507 67.8438 119.694 67.8438C118.944 67.8438 118.319 67.5938 117.819 67.0938C117.319 66.5938 117.038 65.7188 116.976 64.4688C116.851 62.3438 116.819 60.2188 116.882 58.0938C117.007 55.9062 117.132 53.625 117.257 51.25C117.444 48.875 117.632 46.3438 117.819 43.6562C118.007 40.9062 118.194 37.9062 118.382 34.6562C118.569 31.2812 118.663 28 118.663 24.8125C116.288 24.875 114.288 24.9062 112.663 24.9062C111.038 24.9062 110.132 24.875 109.944 24.8125C109.757 24.6875 109.538 24.4062 109.288 23.9688C109.038 23.5938 108.726 23.0312 108.351 22.2812C107.913 21.5312 107.382 20.4688 106.757 19.0938C107.944 19.0938 109.257 19.0938 110.694 19.0938C112.069 19.0938 113.351 19.0625 114.538 19C115.913 18.9375 117.288 18.875 118.663 18.8125C118.601 17.8125 118.569 16.75 118.569 15.625C118.507 14.75 118.476 13.7812 118.476 12.7188C118.476 11.5938 118.444 10.5625 118.382 9.625C118.382 9.25 118.819 8.8125 119.694 8.3125C120.632 7.75 121.632 7.25 122.694 6.8125C123.757 6.375 124.726 6.09375 125.601 5.96875C126.538 5.84375 127.007 6.0625 127.007 6.625C127.007 7.1875 126.976 8.5625 126.913 10.75C126.913 12.875 126.851 15.4688 126.726 18.5312C127.351 18.5312 127.819 18.5 128.132 18.4375C131.444 18.3125 134.101 18.1875 136.101 18.0625C138.163 17.875 139.851 17.8438 141.163 17.9688C142.476 18.0938 143.632 18.4062 144.632 18.9062C145.632 19.4062 146.757 20.2188 148.007 21.3438C148.444 21.7188 148.819 22.125 149.132 22.5625C149.444 22.9375 149.694 23.375 149.882 23.875C150.132 24.3125 150.257 24.7812 150.257 25.2812ZM160.382 50.875C160.257 53.3125 159.819 55.5625 159.069 57.625C158.382 59.6875 157.413 61.5 156.163 63.0625C154.913 64.5625 153.413 65.75 151.663 66.625C149.976 67.5 148.101 67.9688 146.038 68.0312C144.226 68.0938 142.507 67.6562 140.882 66.7188C139.319 65.7812 137.944 64.4688 136.757 62.7812C135.569 61.0938 134.663 59.0938 134.038 56.7812C133.476 54.4062 133.319 51.8438 133.569 49.0938C133.757 45.9062 134.351 43.1875 135.351 40.9375C136.351 38.625 137.413 36.7188 138.538 35.2188C139.663 33.7188 140.694 32.625 141.632 31.9375C142.632 31.1875 143.257 30.75 143.507 30.625C143.944 30.4375 144.351 30.4062 144.726 30.5312C145.101 30.5938 145.507 30.6875 145.944 30.8125C146.069 30.875 146.194 31.0312 146.319 31.2812C146.569 31.7188 146.726 32.5312 146.788 33.7188C147.101 33.0312 147.507 32.4688 148.007 32.0312C148.507 31.5938 149.007 31.2812 149.507 31.0938C150.132 30.8438 150.757 30.6875 151.382 30.625C151.819 30.5625 152.569 30.9062 153.632 31.6562C154.757 32.4062 155.819 33.5938 156.819 35.2188C157.882 36.8438 158.788 38.9688 159.538 41.5938C160.288 44.1562 160.569 47.25 160.382 50.875ZM154.007 49.75C154.069 48.25 154.007 46.75 153.819 45.25C153.694 43.6875 153.444 42.2812 153.069 41.0312C152.757 39.7188 152.351 38.6875 151.851 37.9375C151.351 37.125 150.851 36.7188 150.351 36.7188C149.788 36.8438 149.163 37.125 148.476 37.5625C147.913 37.9375 147.288 38.5312 146.601 39.3438C145.913 40.1562 145.257 41.3125 144.632 42.8125C144.569 42.625 144.507 42.2812 144.444 41.7812C144.382 41.3438 144.319 40.7812 144.257 40.0938C144.257 39.3438 144.319 38.3438 144.444 37.0938C143.569 38.1562 142.882 39.4062 142.382 40.8438C141.944 42.2812 141.601 43.6562 141.351 44.9688C141.101 46.5312 140.913 48.0938 140.788 49.6562C140.726 51.3438 140.788 53 140.976 54.625C141.226 56.25 141.601 57.6875 142.101 58.9375C142.663 60.1875 143.319 61.1875 144.069 61.9375C144.819 62.6875 145.726 63.0312 146.788 62.9688C147.851 62.9062 148.788 62.4688 149.601 61.6562C150.413 60.8438 151.132 59.8125 151.757 58.5625C152.382 57.3125 152.882 55.9062 153.257 54.3438C153.632 52.7812 153.882 51.25 154.007 49.75Z" fill="#FEFEFE"/>
</svg>
